<?xml version="1.0" encoding="iso-8859-1"?>
<!-- Generator: Adobe Illustrator 19.0.0, SVG Export Plug-In . SVG Version: 6.00 Build 0)  -->
<svg version="1.1" id="Layer_1" xmlns="http://www.w3.org/2000/svg" xmlns:xlink="http://www.w3.org/1999/xlink" x="0px" y="0px"
	 viewBox="0 0 512 512" style="enable-background:new 0 0 512 512;" xml:space="preserve">
<g>
	<rect x="24.787" y="338.572" style="fill:#704324;" width="462.429" height="77.071"/>
	<path style="fill:#704324;" d="M24.787,415.647h462.425v49.546c0,18.277-14.754,33.03-33.03,33.03H57.817
		c-18.276,0-33.03-14.754-33.03-33.03V415.647z"/>
	<polygon style="fill:#704324;" points="487.212,338.577 24.787,338.577 24.787,256.001 426.657,256.001 487.212,256.001 	"/>
	<path style="fill:#704324;" d="M481.707,162.414H256H30.293c-12.111,0-22.021,9.909-22.021,22.02v71.566h16.515h401.87h60.555
		h16.515v-71.566C503.728,172.323,493.818,162.414,481.707,162.414z"/>
</g>
<path style="fill:#F23222;" d="M256,74.333c24.332,0,44.04,19.708,44.04,44.04s-19.708,44.04-44.04,44.04s-44.04-19.708-44.04-44.04
	S231.668,74.333,256,74.333z"/>
<g>
	<rect x="24.787" y="255.997" style="fill:#5E3719;" width="462.429" height="49.546"/>
	<rect x="24.787" y="415.644" style="fill:#5E3719;" width="462.429" height="38.536"/>
</g>
<rect x="24.787" y="338.572" style="fill:#61391B;" width="462.429" height="38.536"/>
<path d="M512,184.434c0-16.704-13.589-30.291-30.293-30.291H294.121c8.79-9.363,14.191-21.944,14.191-35.769
	c0-25.603-18.493-46.953-42.819-51.433c2.857-14.873,11.481-44.891,34.548-44.891V5.506c-13.521,0-32.152,6.144-44.127,35.418
	c-3.983,9.736-6.106,19.39-7.176,25.654c-25.419,3.548-45.05,25.417-45.05,51.797c0,13.825,5.401,26.406,14.191,35.769H30.293
	C13.589,154.142,0,167.731,0,184.434v79.838h16.515v200.921c0,22.774,18.528,41.302,41.302,41.302h396.365
	c22.774,0,41.302-18.528,41.302-41.302V264.272h16.515v-79.839H512z M220.231,118.374c0-19.723,16.045-35.769,35.769-35.769
	s35.769,16.045,35.769,35.769S275.723,154.142,256,154.142S220.231,138.097,220.231,118.374z M16.544,184.434
	c0-7.581,6.167-13.748,13.749-13.748h451.415c7.581,0,13.749,6.167,13.749,13.748v63.294H16.544V184.434z M33.059,346.848H478.94
	v60.527H33.059V346.848z M454.182,489.951H57.817c-13.652,0-24.758-11.106-24.758-24.758v-41.274H478.94v41.274
	C478.94,478.845,467.834,489.951,454.182,489.951z M478.94,330.305H33.059v-66.032H478.94V330.305z"/>
<g>
	<rect x="85.343" y="286.261" style="fill:#FFFFFF;" width="22.021" height="16.544"/>
	<rect x="129.382" y="297.279" style="fill:#FFFFFF;" width="22.021" height="16.544"/>
	<rect x="250.493" y="363.333" style="fill:#FFFFFF;" width="22.02" height="16.544"/>
	<rect x="217.461" y="374.351" style="fill:#FFFFFF;" width="22.021" height="16.544"/>
	<rect x="426.661" y="451.411" style="fill:#FFFFFF;" width="22.02" height="16.544"/>
	<rect x="382.622" y="440.404" style="fill:#FFFFFF;" width="22.02" height="16.544"/>
	<rect x="63.318" y="451.411" style="fill:#FFFFFF;" width="22.02" height="16.544"/>
	<rect x="426.661" y="286.261" style="fill:#FFFFFF;" width="22.02" height="16.544"/>
	<path style="fill:#FFFFFF;" d="M470.695,231.241c-22.963,0-35.038-6.355-45.691-11.962c-10.254-5.398-19.11-10.059-37.985-10.059
		c-18.864,0-27.724,4.658-37.983,10.05c-10.675,5.611-22.774,11.971-45.804,11.971c-22.896,0-34.947-6.351-45.578-11.953
		c-10.25-5.401-19.102-10.066-37.989-10.066c-18.875,0-27.732,4.661-37.985,10.059c-10.653,5.606-22.728,11.962-45.691,11.962
		s-35.038-6.355-45.691-11.962c-8.317-4.377-15.5-8.158-27.887-9.535l1.826-16.442c15.497,1.722,25.203,6.829,33.766,11.337
		c10.255,5.398,19.111,10.059,37.986,10.059s27.732-4.661,37.985-10.059c10.653-5.606,22.728-11.962,45.691-11.962
		c22.979,0,35.051,6.362,45.702,11.974c10.227,5.39,19.061,10.045,37.865,10.045c18.947,0,27.825-4.666,38.107-10.071
		c10.656-5.601,22.733-11.949,45.68-11.949c22.963,0,35.038,6.355,45.691,11.962c10.254,5.398,19.11,10.059,37.985,10.059v16.543
		H470.695z"/>
</g>
<g>
</g>
<g>
</g>
<g>
</g>
<g>
</g>
<g>
</g>
<g>
</g>
<g>
</g>
<g>
</g>
<g>
</g>
<g>
</g>
<g>
</g>
<g>
</g>
<g>
</g>
<g>
</g>
<g>
</g>
</svg>
