<?xml version="1.0" encoding="iso-8859-1"?>
<!-- Generator: Adobe Illustrator 19.0.0, SVG Export Plug-In . SVG Version: 6.00 Build 0)  -->
<svg version="1.1" id="Layer_1" xmlns="http://www.w3.org/2000/svg" xmlns:xlink="http://www.w3.org/1999/xlink" x="0px" y="0px"
	 viewBox="0 0 511.999 511.999" style="enable-background:new 0 0 511.999 511.999;" xml:space="preserve">
<rect x="165.649" y="448.738" style="fill:#AFB6BB;" width="120.469" height="36.139"/>
<polygon style="fill:#595E62;" points="442.718,406.572 442.718,448.735 286.115,448.735 165.653,448.735 9.051,448.735 
	9.051,406.572 93.375,406.572 358.393,406.572 "/>
<path style="fill:#AFB6BB;" d="M502.948,111.438c0,6.023,0,186.718,0,186.718h-96.37v-42.162h48.185c0,0,0-96.972,0-102.755
	c0-5.662-4.337-5.662-4.337-5.662h-43.848v-42.161h90.347C496.925,105.415,502.948,105.415,502.948,111.438z"/>
<path style="fill:#553323;" d="M358.393,364.411c0,0-258.995,0-265.019,0c-6.023,0-6.023-6.023-6.023-6.023V225.878
	c46.137,0,46.137,24.093,92.275,24.093c46.258,0,46.258-24.093,92.395-24.093c46.258,0,46.258,24.093,92.395,24.093v108.417
	C364.416,364.411,358.393,364.411,358.393,364.411z"/>
<path style="fill:#A26234;" d="M272.022,225.878c-46.137,0-46.137,24.093-92.395,24.093c-46.137,0-46.137-24.093-92.275-24.093
	v60.232c46.137,0,46.137,24.093,92.275,24.093c46.258,0,46.258-24.093,92.395-24.093c46.258,0,46.258,24.093,92.395,24.093V249.97
	C318.279,249.971,318.279,225.878,272.022,225.878z"/>
<path style="fill:#B29875;" d="M364.416,249.971c-46.137,0-46.137-24.093-92.395-24.093c-46.137,0-46.137,24.093-92.395,24.093
	c-46.137,0-46.137-24.093-92.274-24.093v-36.138v-36.139c46.137,0,46.137,24.093,92.274,24.093
	c46.258,0,46.258-24.093,92.395-24.093c46.258,0,46.258,24.093,92.395,24.093V249.971z"/>
<path style="fill:#EDC999;" d="M364.416,105.415v72.278c-46.137,0-46.137-24.093-92.395-24.093
	c-46.137,0-46.137,24.093-92.395,24.093c-46.137,0-46.137-24.093-92.274-24.093v-48.185H364.416z"/>
<path style="fill:#E7ECED;" d="M87.351,225.878v132.51c0,0,0,6.023,6.023,6.023c6.023,0,265.019,0,265.019,0s6.023,0,6.023-6.023
	V249.97v-72.278v-72.278h42.162v42.162v108.417v42.162v60.232c0,26.622-21.563,48.185-48.185,48.185H93.375
	c-26.622,0-48.185-21.563-48.185-48.185V105.415h42.162V153.6v72.278H87.351z"/>
<g>
	<rect x="141.563" y="283.077" style="fill:#FFFFFF;" width="24.093" height="18.101"/>
	<rect x="117.464" y="319.219" style="fill:#FFFFFF;" width="24.093" height="18.101"/>
	<rect x="177.692" y="307.176" style="fill:#FFFFFF;" width="24.093" height="18.101"/>
	<rect x="310.204" y="271.034" style="fill:#FFFFFF;" width="24.093" height="18.101"/>
	<rect x="262.019" y="295.132" style="fill:#FFFFFF;" width="24.093" height="18.101"/>
</g>
<path style="fill:#A26234;" d="M361.284,105.777H87.351c21.924-53.004,84.685-26.743,132.51-66.255
	C263.589,3.383,339.36,52.773,361.284,105.777z"/>
<path d="M415.629,307.206h96.37V111.439c0-9.79-7.767-15.073-15.075-15.073H366.962C349.896,61.093,312.76,29.85,276.28,20.769
	c-24.101-6.004-45.604-1.927-62.184,11.777l0.001-0.001c-19.293,15.94-41.564,20.25-63.102,24.42
	c-26.715,5.17-54.283,10.509-69.245,39.4H36.139v262.023c0,15.126,5.908,28.891,15.526,39.135H0v60.263h156.602v36.138h138.564
	v-36.138h156.602v-60.263h-51.664c9.616-10.244,15.526-24.008,15.526-39.135v-51.181H415.629z M493.899,114.467v174.639H415.63
	v-24.06h48.185V153.24c0-9.556-6.898-14.711-13.388-14.711H415.63v-24.062H493.899z M415.629,246.944v-90.316h30.084v90.316H415.629
	z M96.402,235.306c14.89,1.266,23.359,5.661,32.898,10.642c11.736,6.128,25.037,13.074,50.327,13.074
	c25.362,0,38.692-6.951,50.45-13.083c11.328-5.908,21.109-11.009,41.945-11.009c20.926,0,30.73,5.112,42.08,11.033
	c10.251,5.345,21.698,11.313,41.264,12.741v96.659H96.402V235.306z M355.365,240.544c-14.88-1.265-23.353-5.656-32.895-10.633
	c-11.76-6.133-25.088-13.083-50.45-13.083c-25.272,0-38.576,6.939-50.315,13.059c-11.351,5.92-21.154,11.033-42.08,11.033
	c-20.848,0-30.626-5.106-41.947-11.019c-10.25-5.352-21.695-11.326-41.277-12.754v-54.12c14.89,1.266,23.359,5.661,32.898,10.642
	c11.736,6.128,25.037,13.074,50.327,13.074c25.362,0,38.692-6.951,50.45-13.083c11.328-5.908,21.109-11.009,41.945-11.009
	c20.926,0,30.73,5.112,42.08,11.033c10.251,5.345,21.698,11.313,41.264,12.741v54.119H355.365z M355.365,168.265
	c-14.88-1.265-23.353-5.656-32.895-10.633c-11.76-6.133-25.088-13.083-50.45-13.083c-25.272,0-38.576,6.939-50.315,13.059
	c-11.351,5.92-21.154,11.033-42.08,11.033c-20.848,0-30.626-5.106-41.947-11.019c-10.25-5.352-21.695-11.326-41.277-12.754v-30.043
	h258.964V168.265z M154.435,74.736c22.658-4.386,48.34-9.357,71.19-28.235l0.001-0.001c15.129-12.504,33.517-11.343,46.282-8.165
	c28.427,7.076,58.333,30.859,74.513,58.031h-243.07C115.003,82.384,132.911,78.9,154.435,74.736z M277.065,475.823H174.703v-18.037
	h102.362V475.823z M433.667,439.685H18.101v-24.061h415.566V439.685z M93.375,397.522c-21.579,0-39.135-17.556-39.135-39.135
	V114.467l24.06,0.361v243.561c0,7.308,5.283,15.073,15.075,15.073h265.018c7.308,0,15.073-5.283,15.073-15.073V114.826l24.061-0.361
	v243.922c0,21.579-17.556,39.135-39.135,39.135L93.375,397.522L93.375,397.522z"/>
<g>
</g>
<g>
</g>
<g>
</g>
<g>
</g>
<g>
</g>
<g>
</g>
<g>
</g>
<g>
</g>
<g>
</g>
<g>
</g>
<g>
</g>
<g>
</g>
<g>
</g>
<g>
</g>
<g>
</g>
</svg>
