<?xml version="1.0" encoding="iso-8859-1"?>
<!-- Generator: Adobe Illustrator 19.0.0, SVG Export Plug-In . SVG Version: 6.00 Build 0)  -->
<svg version="1.1" id="Layer_1" xmlns="http://www.w3.org/2000/svg" xmlns:xlink="http://www.w3.org/1999/xlink" x="0px" y="0px"
	 viewBox="0 0 512 512" style="enable-background:new 0 0 512 512;" xml:space="preserve">
<path style="fill:#704324;" d="M140.869,466.418H92.62l-6.541-203.722h1.179c39.243,0,39.243,21.445,78.594,21.445
	s39.351-21.445,78.594-21.445c39.351,0,39.351,21.445,78.701,21.445h0.536l-5.898,182.277h-48.251l10.722,37.528h-150.11
	L140.869,466.418z"/>
<path style="fill:#553323;" d="M244.446,359.195c38.435,0,39.431,20.403,76.118,21.355l3.119-96.411h-0.536
	c-39.351,0-39.351-21.445-78.701-21.445c-39.243,0-39.243,21.445-78.593,21.445c-39.351,0-39.351-21.445-78.594-21.445H86.08
	l3.1,96.566c37.247,0.72,38.006,21.377,76.674,21.377C205.203,380.639,205.203,359.195,244.446,359.195z"/>
<path style="fill:#E7ECED;" d="M328.508,134.028l-4.825,150.111h-0.536c-39.351,0-39.351-21.445-78.701-21.445
	c-39.243,0-39.243,21.445-78.594,21.445s-39.351-21.445-78.594-21.445h-1.179l-4.181-128.666H328.508z"/>
<path style="fill:#D9DEDF;" d="M81.897,134.028l4.181,128.666h1.179c39.243,0,39.243,21.445,78.594,21.445
	c19.684,0,29.522-5.366,39.351-10.73V134.027H81.897V134.028z"/>
<g>
	<polygon style="fill:#FFFFFF;" points="116.78,220.696 110.426,163.5 151.592,163.5 151.592,179.612 128.425,179.612 
		132.792,218.916 	"/>
	<rect x="140.865" y="351.135" style="fill:#FFFFFF;" width="21.445" height="16.111"/>
	<rect x="119.427" y="383.304" style="fill:#FFFFFF;" width="21.444" height="16.111"/>
	<rect x="162.314" y="383.304" style="fill:#FFFFFF;" width="21.444" height="16.111"/>
	<rect x="215.921" y="415.472" style="fill:#FFFFFF;" width="21.445" height="16.111"/>
	<rect x="237.37" y="383.304" style="fill:#FFFFFF;" width="21.445" height="16.111"/>
	<rect x="205.202" y="318.978" style="fill:#FFFFFF;" width="21.444" height="16.111"/>
	<rect x="269.539" y="340.416" style="fill:#FFFFFF;" width="21.445" height="16.111"/>
</g>
<path style="fill:#D9DEDF;" d="M430.37,139.39c0,5.361,0,203.722,0,203.722h-42.889V182.278c0,0,0-5.361-5.361-5.361h-55.005
	l1.394-42.889h96.5C425.008,134.028,430.37,134.028,430.37,139.39z"/>
<path d="M207.87,101.862h16.111c0-15.713-7.004-24.031-12.633-30.715c-5.116-6.075-8.812-10.464-8.812-20.216
	c0-9.815,3.701-14.2,8.822-20.27C216.981,23.997,223.98,15.704,223.98,0h-16.111c0,9.815-3.701,14.2-8.822,20.27
	c-5.623,6.664-12.621,14.956-12.621,30.66c0,15.632,6.986,23.928,12.599,30.594C204.159,87.623,207.87,92.029,207.87,101.862z"/>
<path d="M282.926,101.862h16.111c0-15.713-7.004-24.031-12.633-30.715c-5.116-6.075-8.812-10.464-8.812-20.216
	c0-9.815,3.701-14.2,8.823-20.27c5.623-6.664,12.621-14.956,12.621-30.66h-16.111c0,9.815-3.701,14.2-8.823,20.27
	c-5.623,6.664-12.621,14.956-12.621,30.66c0,15.632,6.986,23.928,12.599,30.594C279.215,87.623,282.926,92.029,282.926,101.862z"/>
<path d="M132.814,101.862h16.111c0-15.713-7.004-24.031-12.633-30.715c-5.116-6.075-8.812-10.464-8.812-20.216
	c0-9.815,3.701-14.2,8.822-20.27c5.623-6.664,12.621-14.956,12.621-30.66h-16.111c0,9.815-3.701,14.2-8.822,20.27
	c-5.623,6.664-12.621,14.956-12.621,30.66c0,15.632,6.986,23.928,12.599,30.594C129.104,87.623,132.814,92.029,132.814,101.862z"/>
<path d="M425.008,125.972H73.575l11.242,348.5h45.372L119.467,512h171.47l-10.722-37.528h45.37l9.34-289.5h44.5v166.195h59V139.389
	C438.426,130.675,431.513,125.972,425.008,125.972z M320.186,142.083l-1.123,34.575l-3.172,99.127
	c-12.837-1.071-20.075-4.993-28.239-9.442c-10.067-5.486-21.478-11.704-43.206-11.704c-21.663,0-33.049,6.213-43.095,11.696
	c-9.586,5.232-17.865,9.749-35.498,9.749c-17.634,0-25.913-4.518-35.499-9.749c-8.965-4.892-19.02-10.354-36.47-11.475
	l-3.665-112.775h229.967V142.083z M258.857,458.361l10.722,37.528H140.826l6.119-21.417h68.979v-16.111H100.421L94.406,271.04
	c12.839,1.06,20.07,4.984,28.23,9.437c10.065,5.493,21.473,11.718,43.216,11.718s33.151-6.225,43.216-11.718
	c9.565-5.219,17.824-9.727,35.378-9.727c17.623,0,25.906,4.514,35.496,9.74c8.792,4.791,18.612,10.139,35.43,11.417l-5.385,166.453
	h-51.13V458.361z M422.315,335.056h-26.778V182.278c0-6.505-4.702-13.416-13.417-13.416h-46.674l0.864-26.778h86.004v192.972
	H422.315z"/>
<g>
</g>
<g>
</g>
<g>
</g>
<g>
</g>
<g>
</g>
<g>
</g>
<g>
</g>
<g>
</g>
<g>
</g>
<g>
</g>
<g>
</g>
<g>
</g>
<g>
</g>
<g>
</g>
<g>
</g>
</svg>
