<?xml version="1.0" encoding="iso-8859-1"?>
<!-- Generator: Adobe Illustrator 19.0.0, SVG Export Plug-In . SVG Version: 6.00 Build 0)  -->
<svg version="1.1" id="Layer_1" xmlns="http://www.w3.org/2000/svg" xmlns:xlink="http://www.w3.org/1999/xlink" x="0px" y="0px"
	 viewBox="0 0 512 512" style="enable-background:new 0 0 512 512;" xml:space="preserve">
<g>
	<path style="fill:#AFB6BB;" d="M490.54,148.734c0,5.72,0,177.335,0,177.335h-91.528v-40.044h45.764c0,0,0-92.1,0-97.592
		c0-5.377-4.119-5.377-4.119-5.377h-41.645v-40.044h85.808C484.82,143.014,490.54,143.014,490.54,148.734z"/>
	<rect x="170.192" y="469.077" style="fill:#AFB6BB;" width="114.412" height="34.323"/>
</g>
<polygon style="fill:#595E62;" points="433.335,429.039 433.335,469.082 284.602,469.082 170.192,469.082 21.459,469.082 
	21.459,429.039 101.545,429.039 353.248,429.039 "/>
<path style="fill:#E7ECED;" d="M399.012,205.939v80.088v40.044v57.205c0,25.285-20.479,45.764-45.764,45.764H101.545
	c-25.285,0-45.764-20.479-45.764-45.764V205.939v-62.925h343.23v40.044V205.939z"/>
<path style="fill:#D7DCDD;" d="M147.31,383.274V211.66v-5.72v-62.925H55.782v62.925v177.335c0,25.285,20.479,45.764,45.764,45.764
	h91.528C167.79,429.039,147.31,408.559,147.31,383.274z"/>
<rect x="55.782" y="143.008" style="fill:#C6CBCD;" width="343.226" height="62.925"/>
<rect x="55.782" y="143.008" style="fill:#B0B5B6;" width="91.525" height="62.925"/>
<path style="fill:#A26234;" d="M238.838,216.351c7.894-6.407,17.733-10.411,28.603-10.411c25.17,0,45.764,20.594,45.764,45.764
	v68.646c0,25.17-20.594,45.764-45.764,45.764c-10.869,0-20.708-4.004-28.603-10.411c-7.894,6.407-17.733,10.411-28.603,10.411
	c-25.17,0-45.764-20.594-45.764-45.764v-68.646c0-25.17,20.594-45.764,45.764-45.764
	C221.105,205.939,230.944,209.943,238.838,216.351z"/>
<path d="M407.608,334.666h91.529V148.734c0-9.299-7.377-14.317-14.317-14.317H47.186v248.857c0,14.366,5.612,27.439,14.747,37.168
	H12.864v57.235h148.733V512h131.601v-34.323H441.93v-57.235h-49.07c9.134-9.729,14.745-22.802,14.745-37.168v-48.608H407.608z
	 M481.945,151.609v165.865h-74.338v-22.853h45.765V188.435c0-9.076-6.551-13.973-12.715-13.973h-33.05v-22.853H481.945z
	 M407.608,277.431v-85.778h28.574v85.778H407.608z M276.006,494.81h-97.219v-17.132h97.219V494.81z M424.74,460.486H30.055v-22.853
	H424.74V460.486z M101.547,420.443c-20.495,0-37.169-16.673-37.169-37.168v-168.74h65.772v-17.191H64.377v-45.735h326.038v45.735
	h-65.771v17.191h65.771v168.74c0,20.495-16.674,37.168-37.168,37.168H101.547z"/>
<path d="M230.243,108.69h17.191c0-16.766-7.474-25.642-13.48-32.773c-5.459-6.482-9.402-11.165-9.402-21.571
	c0-10.473,3.948-15.152,9.415-21.63c6-7.11,13.468-15.959,13.468-32.716h-17.191c0,10.473-3.948,15.152-9.415,21.629
	c-6,7.11-13.467,15.959-13.467,32.716c0,16.681,7.454,25.532,13.443,32.645C226.284,93.498,230.243,98.199,230.243,108.69z"/>
<path d="M344.653,108.69h17.191c0-16.766-7.474-25.642-13.48-32.773c-5.459-6.482-9.402-11.165-9.402-21.571
	c0-10.473,3.948-15.152,9.415-21.63c6-7.11,13.467-15.959,13.467-32.716h-17.191c0,10.473-3.948,15.152-9.415,21.629
	c-6,7.11-13.467,15.959-13.467,32.716c0,16.681,7.454,25.532,13.443,32.645C340.694,93.498,344.653,98.199,344.653,108.69z"/>
<path d="M115.832,108.69h17.191c0-16.766-7.474-25.642-13.48-32.773c-5.458-6.481-9.401-11.165-9.401-21.571
	c0-10.473,3.948-15.152,9.415-21.63c5.999-7.11,13.466-15.959,13.466-32.716h-17.191c0,10.473-3.948,15.152-9.414,21.629
	c-6,7.11-13.468,15.959-13.468,32.716c0,16.68,7.454,25.532,13.442,32.645C111.874,93.498,115.832,98.199,115.832,108.69z"/>
<path d="M267.441,197.343c-10.145,0-19.915,2.894-28.603,8.425c-8.686-5.531-18.456-8.425-28.603-8.425
	c-29.973,0-54.359,24.385-54.359,54.359v68.645c0,29.974,24.385,54.359,54.359,54.359c10.146,0,19.916-2.894,28.603-8.425
	c8.687,5.531,18.458,8.425,28.603,8.425c29.974,0,54.361-24.385,54.361-54.359v-68.645
	C321.8,221.73,297.415,197.343,267.441,197.343z M304.609,320.349c0,20.495-16.674,37.168-37.169,37.168
	c-8.325,0-16.343-2.936-23.186-8.49l-5.416-4.395l-5.417,4.396c-6.843,5.554-14.86,8.489-23.185,8.489
	c-20.494,0-37.168-16.673-37.168-37.168v-68.645c0-20.495,16.674-37.168,37.168-37.168c7.069,0,13.913,2.124,20.007,6.162v88.211
	h17.191v-88.211c6.095-4.039,12.939-6.162,20.007-6.162c20.495,0,37.169,16.673,37.169,37.168V320.349z"/>
<g>
	<rect x="92.946" y="240.264" style="fill:#FFFFFF;" width="17.191" height="85.808"/>
	<rect x="92.946" y="343.227" style="fill:#FFFFFF;" width="17.191" height="22.881"/>
	<rect x="267.436" y="243.106" style="fill:#FFFFFF;" width="22.882" height="17.191"/>
</g>
<g>
</g>
<g>
</g>
<g>
</g>
<g>
</g>
<g>
</g>
<g>
</g>
<g>
</g>
<g>
</g>
<g>
</g>
<g>
</g>
<g>
</g>
<g>
</g>
<g>
</g>
<g>
</g>
<g>
</g>
</svg>
