<?xml version="1.0" encoding="iso-8859-1"?>
<!-- Generator: Adobe Illustrator 19.0.0, SVG Export Plug-In . SVG Version: 6.00 Build 0)  -->
<svg version="1.1" id="Layer_1" xmlns="http://www.w3.org/2000/svg" xmlns:xlink="http://www.w3.org/1999/xlink" x="0px" y="0px"
	 viewBox="0 0 512 512" style="enable-background:new 0 0 512 512;" xml:space="preserve">
<rect x="192.659" y="382.674" style="fill:#A26234;" width="126.673" height="42.224"/>
<polygon style="fill:#685642;" points="467.122,424.898 456.566,488.235 55.433,488.235 44.878,424.898 192.663,424.898 
	319.336,424.898 "/>
<polygon style="fill:#A58763;" points="13.209,351.005 35.482,351.005 208.392,351.005 299.386,351.005 472.295,351.005 
	498.79,351.005 498.79,424.898 467.122,424.898 319.336,424.898 319.336,382.673 192.663,382.673 192.663,424.898 44.878,424.898 
	13.209,424.898 "/>
<g>
	<polygon style="fill:#AFB6BB;" points="473.879,319.336 472.295,351.005 299.386,351.005 297.802,319.336 366.417,319.336 	"/>
	<polygon style="fill:#AFB6BB;" points="209.976,319.336 208.392,351.005 35.482,351.005 33.899,319.336 102.514,319.336 	"/>
</g>
<polygon style="fill:#E7ECED;" points="297.169,65.99 474.512,65.99 504.069,65.99 504.069,108.214 484.328,108.214 
	356.283,108.214 287.352,108.214 271.834,108.214 271.834,65.99 "/>
<g>
	<polygon style="fill:#AFB6BB;" points="484.328,108.214 481.162,171.551 359.556,171.551 356.283,108.214 	"/>
	<polygon style="fill:#AFB6BB;" points="464.695,23.765 474.512,65.99 297.169,65.99 306.986,23.765 	"/>
</g>
<path style="fill:#E7ECED;" d="M385.84,274.684c-8.762,0-16.574-3.801-21.957-9.817l-1.689-37.263
	c5.278-7.39,13.934-12.034,23.646-12.034c16.362,0,29.557,13.195,29.557,29.557S402.202,274.684,385.84,274.684z"/>
<path style="fill:#A26234;" d="M385.84,274.684c16.362,0,29.557-13.195,29.557-29.557s-13.195-29.557-29.557-29.557
	c-9.712,0-18.368,4.644-23.646,12.034l-2.639-56.053h121.607l-7.284,147.785h-107.46l-2.534-54.47
	C369.267,270.884,377.079,274.684,385.84,274.684z"/>
<path style="fill:#E7ECED;" d="M362.195,227.603l1.689,37.263c-4.75-5.278-7.6-12.14-7.6-19.74
	C356.283,238.582,358.394,232.459,362.195,227.603z"/>
<path style="fill:#8C552B;" d="M359.556,171.551l2.639,56.053c-3.801,4.856-5.911,10.979-5.911,17.523
	c0,7.601,2.85,14.462,7.6,19.74l2.534,54.47h-68.615l-7.284-147.785H359.556z"/>
<polygon style="fill:#A0A7AB;" points="356.283,108.214 359.556,171.551 290.518,171.551 287.352,108.214 "/>
<polygon style="fill:#E7ECED;" points="210.609,65.99 240.166,65.99 240.166,108.214 220.425,108.214 92.38,108.214 7.931,108.214 
	7.931,65.99 "/>
<g>
	<polygon style="fill:#AFB6BB;" points="220.425,108.214 217.259,171.551 95.653,171.551 92.38,108.214 	"/>
	<polygon style="fill:#AFB6BB;" points="200.792,23.765 210.609,65.99 33.266,65.99 43.083,23.765 	"/>
</g>
<path style="fill:#E7ECED;" d="M98.292,227.603c5.278-7.39,13.934-12.034,23.646-12.034c16.362,0,29.557,13.195,29.557,29.557
	s-13.195,29.557-29.557,29.557c-8.761,0-16.574-3.801-21.957-9.817L98.292,227.603z"/>
<path style="fill:#36C63F;" d="M102.514,319.336l-2.534-54.47c5.384,6.017,13.195,9.817,21.957,9.817
	c16.362,0,29.557-13.195,29.557-29.557S138.3,215.57,121.938,215.57c-9.712,0-18.368,4.644-23.646,12.034l-2.639-56.053h121.607
	l-7.284,147.785H102.514z"/>
<path style="fill:#E7ECED;" d="M98.292,227.603l1.689,37.263c-4.75-5.278-7.6-12.14-7.6-19.74
	C92.38,238.582,94.491,232.459,98.292,227.603z"/>
<path style="fill:#00AA4F;" d="M95.653,171.551l2.639,56.053c-3.801,4.856-5.911,10.979-5.911,17.523c0,7.601,2.85,14.462,7.6,19.74
	l2.534,54.47H33.899l-7.284-147.785H95.653z"/>
<polygon style="fill:#A0A7AB;" points="92.38,108.214 95.653,171.551 26.615,171.551 23.448,108.214 "/>
<g>
	<rect x="314.055" y="195.292" style="fill:#FFFFFF;" width="21.112" height="15.862"/>
	<rect x="430.175" y="279.741" style="fill:#FFFFFF;" width="21.112" height="15.862"/>
	<rect x="50.155" y="195.292" style="fill:#FFFFFF;" width="21.112" height="15.862"/>
	<rect x="166.275" y="279.741" style="fill:#FFFFFF;" width="21.112" height="15.862"/>
</g>
<path d="M512,116.145V58.058h-31.19l-9.816-42.224H300.688l-9.816,42.224h-26.967v58.087h15.892l11.253,226.929H216.73l0.79-15.806
	l0,0l10.461-211.122h20.115V58.058h-31.19l-9.816-42.224H36.785l-9.819,42.224H0v58.087h15.893l11.253,226.929H5.278v89.755h32.881
	l10.557,63.338h414.569l10.557-63.338h32.881v-89.755h-26.09l0.791-15.806l0,0l10.461-211.122H512V116.145z M313.284,31.696h145.113
	l6.129,26.362H307.155L313.284,31.696z M279.765,73.92h216.372v26.364H279.765V73.92z M297.97,163.62l-2.296-47.475h180.331
	l-2.301,47.475H297.97z M472.936,179.482l-6.538,131.924h-161.01l-5.363-107.498l-1.247-24.426L472.936,179.482L472.936,179.482z
	 M34.066,163.62l-2.294-47.475h180.33l-2.301,47.475H34.066z M49.381,31.696h145.112l6.129,26.362H43.252L49.381,31.696z
	 M15.862,73.92h216.372v26.364H15.862V73.92z M209.033,179.482l-6.539,131.924H41.485l-6.611-131.925L209.033,179.482
	L209.033,179.482z M42.236,327.267h159.402l-0.79,15.806H43.027L42.236,327.267z M449.847,480.304H62.152l-7.913-47.476h403.522
	L449.847,480.304z M311.405,416.967H200.594v-26.362h110.811V416.967z M490.86,380.021H372.118v15.862H490.86v21.084H327.267
	v-42.224H184.732v42.224H21.14v-21.084h118.742v-15.862H21.14v-21.085h469.72v21.085H490.86z M306.929,343.074l-0.79-15.806h159.402
	l-0.791,15.806H306.929z"/>
<path d="M385.84,282.615c20.671,0,37.488-16.817,37.488-37.487c0-20.671-16.817-37.488-37.488-37.488
	c-11.921,0-23.121,5.685-29.998,15.215c-4.83,6.238-7.489,14.14-7.489,22.273c0,9.246,3.422,18.141,9.621,25.029
	C365.06,278.074,375.215,282.615,385.84,282.615z M368.44,232.491l0.208-0.278c3.897-5.455,10.323-8.712,17.191-8.712
	c11.924,0,21.626,9.702,21.626,21.626s-9.702,21.625-21.626,21.625c-6.207,0-11.907-2.547-16.062-7.192
	c-3.639-4.044-5.563-9.035-5.563-14.433C364.215,240.393,365.676,236.024,368.44,232.491z"/>
<path d="M121.938,282.615c20.671,0,37.488-16.817,37.488-37.487c0-20.671-16.817-37.488-37.488-37.488
	c-11.922,0-23.122,5.685-29.999,15.215c-4.83,6.238-7.489,14.14-7.489,22.273c0,9.246,3.422,18.141,9.622,25.028
	C101.155,278.074,111.312,282.615,121.938,282.615z M104.536,232.491l0.208-0.278c3.897-5.455,10.323-8.712,17.192-8.712
	c11.924,0,21.626,9.702,21.626,21.626s-9.702,21.625-21.626,21.625c-6.208,0-11.907-2.547-16.062-7.192
	c-3.64-4.044-5.564-9.036-5.564-14.433C100.311,240.393,101.772,236.024,104.536,232.491z"/>
<rect x="129.327" y="448.638" style="fill:#FFFFFF;" width="253.346" height="15.862"/>
<g>
</g>
<g>
</g>
<g>
</g>
<g>
</g>
<g>
</g>
<g>
</g>
<g>
</g>
<g>
</g>
<g>
</g>
<g>
</g>
<g>
</g>
<g>
</g>
<g>
</g>
<g>
</g>
<g>
</g>
</svg>
