<?xml version="1.0" encoding="iso-8859-1"?>
<!-- Generator: Adobe Illustrator 19.0.0, SVG Export Plug-In . SVG Version: 6.00 Build 0)  -->
<svg version="1.1" id="Layer_1" xmlns="http://www.w3.org/2000/svg" xmlns:xlink="http://www.w3.org/1999/xlink" x="0px" y="0px"
	 viewBox="0 0 512 512" style="enable-background:new 0 0 512 512;" xml:space="preserve">
<rect x="170.192" y="469.077" style="fill:#7E8488;" width="114.412" height="34.323"/>
<polygon style="fill:#595E62;" points="433.336,429.039 433.336,469.082 284.603,469.082 170.192,469.082 21.46,469.082 
	21.46,429.039 101.547,429.039 353.249,429.039 "/>
<path style="fill:#7E8488;" d="M490.542,148.734c0,5.72,0,177.335,0,177.335h-91.528v-40.044h45.764c0,0,0-92.1,0-97.592
	c0-5.377-4.119-5.377-4.119-5.377h-41.645v-40.044h85.808C484.82,143.014,490.542,143.014,490.542,148.734z"/>
<path style="fill:#E7ECED;" d="M399.013,326.07v57.205c0,25.285-20.479,45.764-45.764,45.764H101.547
	c-25.285,0-45.764-20.479-45.764-45.764V211.66h343.23v74.366v40.044H399.013z"/>
<path style="fill:#D2D6D8;" d="M135.87,383.274V211.66H55.782v171.615c0,25.285,20.48,45.764,45.764,45.764h80.088
	C156.35,429.039,135.87,408.559,135.87,383.274z"/>
<polygon style="fill:#AFB6BB;" points="399.013,183.058 399.013,211.66 55.783,211.66 55.783,143.014 399.013,143.014 "/>
<rect x="55.783" y="143.008" style="fill:#A0A7AB;" width="80.088" height="68.646"/>
<path d="M407.608,334.666h91.528V148.734c0-9.299-7.376-14.317-14.316-14.317H47.187v248.857c0,14.366,5.612,27.439,14.747,37.168
	H12.864v57.235h148.733V512h131.601v-34.323h148.733v-57.235h-49.068c9.134-9.729,14.747-22.802,14.747-37.168v-48.608H407.608z
	 M481.946,151.609v165.865h-74.337v-22.853h45.764V188.435c0-9.076-6.551-13.973-12.715-13.973h-33.049v-22.853H481.946z
	 M407.608,277.431v-85.778h28.573v85.778H407.608z M390.417,151.609v51.455H64.378v-51.455H390.417z M276.007,494.81h-97.219
	v-17.132h97.219V494.81z M424.74,460.486H30.055v-22.853H424.74V460.486z M101.547,420.443c-20.495,0-37.168-16.673-37.168-37.168
	V220.256h326.039v163.02c0,20.495-16.673,37.168-37.168,37.168H101.547V420.443z"/>
<path d="M230.243,108.69h17.191c0-16.766-7.474-25.642-13.48-32.773c-5.459-6.481-9.402-11.165-9.402-21.571
	c0-10.473,3.949-15.152,9.414-21.63c6-7.11,13.467-15.959,13.467-32.716h-17.191c0,10.473-3.949,15.152-9.414,21.629
	c-6,7.11-13.468,15.959-13.468,32.716c0,16.68,7.454,25.532,13.443,32.645C226.285,93.498,230.243,98.199,230.243,108.69z"/>
<path d="M344.653,108.69h17.191c0-16.766-7.474-25.642-13.48-32.773c-5.459-6.482-9.402-11.165-9.402-21.571
	c0-10.473,3.949-15.152,9.415-21.63c6-7.11,13.467-15.959,13.467-32.716h-17.191c0,10.473-3.949,15.152-9.415,21.629
	c-6,7.11-13.467,15.959-13.467,32.716c0,16.681,7.454,25.532,13.443,32.645C340.695,93.498,344.653,98.199,344.653,108.69z"/>
<path d="M115.833,108.69h17.191c0-16.766-7.474-25.642-13.48-32.773c-5.459-6.482-9.402-11.165-9.402-21.571
	c0-10.473,3.949-15.152,9.415-21.63c6-7.11,13.467-15.959,13.467-32.716h-17.191c0,10.473-3.949,15.152-9.415,21.629
	c-6,7.11-13.467,15.959-13.467,32.716c0,16.681,7.454,25.532,13.443,32.645C111.874,93.498,115.833,98.199,115.833,108.69z"/>
<g>
	<rect x="92.947" y="245.983" style="fill:#FFFFFF;" width="17.191" height="74.366"/>
	<rect x="92.947" y="337.508" style="fill:#FFFFFF;" width="17.191" height="34.324"/>
</g>
<g>
</g>
<g>
</g>
<g>
</g>
<g>
</g>
<g>
</g>
<g>
</g>
<g>
</g>
<g>
</g>
<g>
</g>
<g>
</g>
<g>
</g>
<g>
</g>
<g>
</g>
<g>
</g>
<g>
</g>
</svg>
