<?xml version="1.0" encoding="iso-8859-1"?>
<!-- Generator: Adobe Illustrator 19.0.0, SVG Export Plug-In . SVG Version: 6.00 Build 0)  -->
<svg version="1.1" id="Layer_1" xmlns="http://www.w3.org/2000/svg" xmlns:xlink="http://www.w3.org/1999/xlink" x="0px" y="0px"
	 viewBox="0 0 512 512" style="enable-background:new 0 0 512 512;" xml:space="preserve">
<rect x="170.192" y="469.077" style="fill:#AFB6BB;" width="114.412" height="34.323"/>
<polygon style="fill:#595E62;" points="433.335,429.039 433.335,469.082 284.602,469.082 170.192,469.082 21.459,469.082 
	21.459,429.039 101.545,429.039 353.248,429.039 "/>
<path style="fill:#AFB6BB;" d="M490.54,148.734c0,5.72,0,177.335,0,177.335h-91.528v-40.044h45.764c0,0,0-92.1,0-97.592
	c0-5.377-4.119-5.377-4.119-5.377h-41.645v-40.044h85.808C484.82,143.014,490.54,143.014,490.54,148.734z"/>
<path style="fill:#E7ECED;" d="M399.012,326.069v57.205c0,25.285-20.479,45.764-45.764,45.764H101.545
	c-25.285,0-45.764-20.479-45.764-45.764v-240.26h343.23v40.044v102.969V326.069z"/>
<path style="fill:#704324;" d="M358.968,245.983v137.291c0,5.72-5.72,5.72-5.72,5.72s-245.982,0-251.703,0s-5.72-5.72-5.72-5.72
	V223.1c43.819,0,43.819,22.882,87.638,22.882c43.934,0,43.934-22.882,87.752-22.882C315.149,223.1,315.149,245.983,358.968,245.983z
	"/>
<path style="fill:#89532F;" d="M271.216,223.1c-43.819,0-43.819,22.882-87.753,22.882c-43.819,0-43.819-22.882-87.638-22.882v80.088
	c43.819,0,43.819,22.882,87.638,22.882c43.934,0,43.934-22.882,87.752-22.882c43.934,0,43.934,22.882,87.753,22.882v-80.088
	C315.149,245.983,315.149,223.1,271.216,223.1z"/>
<path style="fill:#AFB6BB;" d="M358.968,143.014v102.969c-43.819,0-43.819-22.882-87.753-22.882
	c-43.819,0-43.819,22.882-87.752,22.882c-43.819,0-43.819-22.882-87.638-22.882v-80.086H358.968z"/>
<path d="M407.608,334.665h91.529V148.734c0-9.299-7.377-14.317-14.317-14.317H47.186v248.857c0,14.366,5.612,27.439,14.747,37.168
	H12.864v57.235h148.733V512h131.601v-34.323H441.93v-57.235h-49.07c9.134-9.729,14.745-22.802,14.745-37.168v-48.61H407.608z
	 M481.945,151.609v165.865h-74.338v-22.853h45.765V188.435c0-9.076-6.551-13.973-12.715-13.973h-33.05v-22.853H481.945z
	 M407.608,277.431v-85.778h28.574v85.778H407.608z M350.373,151.609v85.42c-14.133-1.201-22.179-5.373-31.242-10.098
	c-11.168-5.826-23.828-12.427-47.916-12.427c-24.001,0-36.638,6.59-47.785,12.404c-10.78,5.623-20.091,10.479-39.966,10.479
	c-19.8,0-29.087-4.849-39.841-10.465c-9.735-5.083-20.605-10.758-39.203-12.114v-63.199L350.373,151.609L350.373,151.609z
	 M104.421,232.053c14.143,1.202,22.186,5.376,31.245,10.107c11.147,5.821,23.78,12.418,47.798,12.418
	c24.088,0,36.747-6.601,47.916-12.427c10.758-5.611,20.048-10.456,39.836-10.456c19.874,0,29.185,4.856,39.966,10.479
	c9.736,5.077,20.608,10.746,39.191,12.101V380.4H104.421V232.053z M276.006,494.81h-97.219v-17.132h97.219V494.81z M424.74,460.486
	H30.055v-22.853H424.74V460.486z M101.547,420.443c-20.495,0-37.169-16.673-37.169-37.168V151.609h22.852v231.666
	c0,6.939,5.018,14.316,14.317,14.316h251.702c6.941,0,14.316-5.017,14.316-14.316V151.609h22.852v231.666
	c0,20.495-16.674,37.168-37.168,37.168H101.547V420.443z"/>
<path d="M230.243,108.69h17.191c0-16.766-7.474-25.642-13.48-32.774c-5.459-6.482-9.402-11.165-9.402-21.571
	c0-10.473,3.948-15.152,9.415-21.629c6-7.11,13.468-15.959,13.468-32.716h-17.191c0,10.473-3.948,15.152-9.415,21.629
	c-6,7.11-13.467,15.959-13.467,32.716c0,16.68,7.454,25.532,13.443,32.645C226.284,93.498,230.243,98.199,230.243,108.69z"/>
<path d="M344.653,108.69h17.191c0-16.766-7.474-25.642-13.48-32.774c-5.459-6.482-9.402-11.165-9.402-21.571
	c0-10.473,3.948-15.152,9.415-21.629c6-7.11,13.467-15.959,13.467-32.716h-17.191c0,10.473-3.948,15.152-9.415,21.629
	c-6,7.11-13.467,15.959-13.467,32.716c0,16.68,7.454,25.532,13.443,32.645C340.694,93.498,344.653,98.199,344.653,108.69z"/>
<path d="M115.832,108.69h17.191c0-16.766-7.474-25.642-13.48-32.774c-5.458-6.481-9.401-11.165-9.401-21.571
	c0-10.473,3.948-15.152,9.414-21.629c6-7.11,13.467-15.959,13.467-32.716h-17.191c0,10.473-3.948,15.152-9.414,21.629
	c-6,7.11-13.467,15.959-13.467,32.716c0,16.68,7.454,25.532,13.442,32.645C111.874,93.497,115.832,98.199,115.832,108.69z"/>
<g>
	<rect x="147.305" y="300.318" style="fill:#FFFFFF;" width="22.882" height="17.191"/>
	<rect x="124.429" y="334.631" style="fill:#FFFFFF;" width="22.882" height="17.191"/>
	<rect x="181.63" y="323.194" style="fill:#FFFFFF;" width="22.882" height="17.191"/>
	<rect x="307.48" y="277.431" style="fill:#FFFFFF;" width="22.882" height="17.191"/>
	<rect x="273.155" y="311.756" style="fill:#FFFFFF;" width="22.882" height="17.191"/>
</g>
<g>
</g>
<g>
</g>
<g>
</g>
<g>
</g>
<g>
</g>
<g>
</g>
<g>
</g>
<g>
</g>
<g>
</g>
<g>
</g>
<g>
</g>
<g>
</g>
<g>
</g>
<g>
</g>
<g>
</g>
</svg>
