<?xml version="1.0" encoding="iso-8859-1"?>
<!-- Generator: Adobe Illustrator 19.0.0, SVG Export Plug-In . SVG Version: 6.00 Build 0)  -->
<svg version="1.1" id="Layer_1" xmlns="http://www.w3.org/2000/svg" xmlns:xlink="http://www.w3.org/1999/xlink" x="0px" y="0px"
	 viewBox="0 0 512 512" style="enable-background:new 0 0 512 512;" xml:space="preserve">
<rect x="30.958" y="441.663" style="fill:#AFB6BB;" width="450.082" height="45.008"/>
<polygon style="fill:#36C63F;" points="436.033,171.609 481.042,171.609 481.042,441.66 30.958,441.66 30.958,171.609 
	143.478,171.609 255.999,171.609 368.521,171.609 "/>
<path style="fill:#AFB6BB;" d="M492.294,25.332H368.521H255.999H143.478H19.706c-6.188,0-11.252,5.063-11.252,11.252v135.025h22.505
	h45.008h67.513h112.521h112.521h67.513h45.008h22.505V36.584C503.546,30.395,498.482,25.332,492.294,25.332z"/>
<path style="fill:#FDB51E;" d="M503.546,36.584v135.025h-22.505h-45.008h-67.513v-28.13V53.462v-28.13h123.773
	C498.483,25.332,503.546,30.395,503.546,36.584z"/>
<polygon style="fill:#FFD311;" points="368.521,143.479 368.521,171.609 255.999,171.609 255.999,143.479 255.999,53.462 
	255.999,25.332 368.521,25.332 368.521,53.462 "/>
<polygon style="fill:#FDB51E;" points="255.999,143.479 255.999,171.609 143.478,171.609 143.478,143.479 143.478,53.462 
	143.478,25.332 255.999,25.332 255.999,53.462 "/>
<path style="fill:#FFD311;" d="M143.478,143.479v28.13H30.958H8.454V36.584c0-6.189,5.063-11.252,11.252-11.252h123.773v28.13
	v90.016H143.478z"/>
<rect x="30.958" y="171.609" style="fill:#00AE4D;" width="225.047" height="270.054"/>
<path d="M512,36.584c0-10.866-8.84-19.706-19.706-19.706H19.706C8.84,16.879,0,25.719,0,36.584v143.478h22.505v315.059h466.992
	V180.063H512V36.584z M84.419,379.773V180.063H427.58v199.711h16.907V180.063h28.101v253.143H39.412V180.063h28.101v199.711H84.419z
	 M39.412,478.215v-28.101h433.177v28.101H39.412z M495.093,163.156H16.907V36.584c0-1.517,1.282-2.799,2.799-2.799h472.588
	c1.517,0,2.799,1.282,2.799,2.799V163.156z"/>
<rect x="247.545" y="53.461" width="16.907" height="90.014"/>
<rect x="360.068" y="53.461" width="16.907" height="90.014"/>
<rect x="135.021" y="53.461" width="16.907" height="90.014"/>
<path style="fill:#A26234;" d="M278.03,248.242c7.764-6.301,17.44-10.239,28.13-10.239c24.754,0,45.008,20.254,45.008,45.008v67.513
	c0,24.754-20.254,45.008-45.008,45.008c-10.69,0-20.366-3.938-28.13-10.239c-7.764,6.301-17.44,10.239-28.13,10.239
	c-24.754,0-45.008-20.254-45.008-45.008v-67.513c0-24.754,20.254-45.008,45.008-45.008
	C260.589,238.003,270.266,241.941,278.03,248.242z"/>
<path d="M306.16,229.549c-9.978,0-19.586,2.846-28.13,8.287c-8.544-5.44-18.153-8.287-28.13-8.287
	c-29.479,0-53.462,23.982-53.462,53.462v67.513c0,29.479,23.982,53.462,53.462,53.462c9.978,0,19.586-2.846,28.13-8.287
	c8.544,5.44,18.153,8.287,28.13,8.287c29.479,0,53.463-23.982,53.463-53.462v-67.513
	C359.623,253.532,335.639,229.549,306.16,229.549z M342.716,350.524c0,20.157-16.399,36.555-36.556,36.555
	c-8.186,0-16.072-2.888-22.802-8.35l-5.327-4.324l-5.327,4.324c-6.731,5.462-14.616,8.35-22.803,8.35
	c-20.157,0-36.555-16.398-36.555-36.555v-67.513c0-20.157,16.398-36.555,36.555-36.555c6.951,0,13.682,2.089,19.677,6.061v86.754
	h16.907v-86.754c5.994-3.972,12.726-6.061,19.677-6.061c20.157,0,36.556,16.398,36.556,36.555v67.513H342.716z"/>
<rect x="306.156" y="274.563" style="fill:#FFFFFF;" width="22.505" height="16.907"/>
<g>
</g>
<g>
</g>
<g>
</g>
<g>
</g>
<g>
</g>
<g>
</g>
<g>
</g>
<g>
</g>
<g>
</g>
<g>
</g>
<g>
</g>
<g>
</g>
<g>
</g>
<g>
</g>
<g>
</g>
</svg>
