<?xml version="1.0" encoding="iso-8859-1"?>
<!-- Generator: Adobe Illustrator 19.0.0, SVG Export Plug-In . SVG Version: 6.00 Build 0)  -->
<svg version="1.1" id="Layer_1" xmlns="http://www.w3.org/2000/svg" xmlns:xlink="http://www.w3.org/1999/xlink" x="0px" y="0px"
	 viewBox="0 0 512 512" style="enable-background:new 0 0 512 512;" xml:space="preserve">
<path style="fill:#A58763;" d="M383.333,201.611H128.668c0-52.737,56.981-95.5,127.333-95.5S383.333,148.874,383.333,201.611z"/>
<g>
	<polygon style="fill:#704324;" points="452.306,450.972 462.917,504.028 49.084,504.028 59.695,450.972 75.612,450.972 
		436.389,450.972 	"/>
	<polygon style="fill:#704324;" points="457.612,201.611 457.612,254.667 436.389,254.667 75.612,254.667 54.389,254.667 
		54.389,201.611 128.668,201.611 383.333,201.611 	"/>
</g>
<rect x="75.609" y="254.666" style="fill:#A26234;" width="360.782" height="196.309"/>
<path style="fill:#977C5B;" d="M245.389,201.611c0-36.952,28.025-68.941,68.972-84.821c-17.493-6.784-37.303-10.68-58.361-10.68
	c-70.351,0-127.333,42.762-127.333,95.5h42.444H245.389z"/>
<g>
	<polygon style="fill:#5C3618;" points="75.612,450.972 59.695,450.972 49.084,504.028 165.807,504.028 176.417,450.972 	"/>
	<polygon style="fill:#5C3618;" points="171.112,201.611 128.668,201.611 54.389,201.611 54.389,254.667 75.612,254.667 
		171.112,254.667 	"/>
</g>
<polygon style="fill:#8F572C;" points="192.334,450.972 192.334,254.667 171.112,254.667 75.612,254.667 75.612,450.972 
	176.417,450.972 "/>
<rect x="133.977" y="297.11" style="fill:#D7B740;" width="244.058" height="111.42"/>
<rect x="155.194" y="318.338" style="fill:#C8AB3B;" width="201.613" height="68.972"/>
<g>
	<rect x="155.194" y="320.974" style="fill:#FFFFFF;" width="21.222" height="15.945"/>
	<rect x="155.194" y="368.722" style="fill:#FFFFFF;" width="21.222" height="15.945"/>
	<rect x="335.58" y="320.974" style="fill:#FFFFFF;" width="21.222" height="15.945"/>
	<rect x="335.58" y="368.722" style="fill:#FFFFFF;" width="21.222" height="15.945"/>
</g>
<path d="M53.16,443l-13.801,69h433.282l-13.799-69h-14.48v-180.36h21.222v-69h-74.668c-2.457-25.048-16.47-48.219-40.082-65.932
	c-23.519-17.642-54.111-27.943-86.86-29.386V55.723h201.611V0h-15.945v39.778H248.028v58.543
	c-32.748,1.442-63.341,11.744-86.86,29.386c-23.613,17.713-37.626,40.884-40.082,65.932H46.417v69h21.222V443H53.16z
	 M445.77,458.944l7.422,37.111H58.808l7.422-37.111H445.77z M83.584,443v-180.36h344.833V443H83.584z M256.001,114.083
	c62.151,0,113.351,35.015,118.861,79.556H137.139C142.65,149.098,193.85,114.083,256.001,114.083z M62.362,246.695v-37.111h387.278
	v37.111H62.362z"/>
<path d="M126.001,416.5h260V289.139h-260V416.5z M141.945,305.084h228.111v95.472H141.945V305.084z"/>
<rect x="208.247" y="331.582" width="95.497" height="15.945"/>
<rect x="208.247" y="363.418" width="21.222" height="15.945"/>
<rect x="282.527" y="363.418" width="21.222" height="15.945"/>
<rect x="250.691" y="363.418" width="21.222" height="15.945"/>
<g>
</g>
<g>
</g>
<g>
</g>
<g>
</g>
<g>
</g>
<g>
</g>
<g>
</g>
<g>
</g>
<g>
</g>
<g>
</g>
<g>
</g>
<g>
</g>
<g>
</g>
<g>
</g>
<g>
</g>
</svg>
