<?xml version="1.0" encoding="iso-8859-1"?>
<!-- Generator: Adobe Illustrator 19.0.0, SVG Export Plug-In . SVG Version: 6.00 Build 0)  -->
<svg version="1.1" id="Layer_1" xmlns="http://www.w3.org/2000/svg" xmlns:xlink="http://www.w3.org/1999/xlink" x="0px" y="0px"
	 viewBox="0 0 512.001 512.001" style="enable-background:new 0 0 512.001 512.001;" xml:space="preserve">
<polygon style="fill:#A26234;" points="376.875,209.174 368.134,383.993 143.991,383.993 135.25,209.174 "/>
<g>
	<polygon style="fill:#AFB6BB;" points="368.134,383.993 362.14,502.619 149.86,502.619 143.991,383.993 	"/>
	<polygon style="fill:#AFB6BB;" points="380.87,128.009 376.875,209.174 135.25,209.174 131.13,128.009 	"/>
</g>
<polygon style="fill:#8C552B;" points="222.66,209.174 135.251,209.174 143.992,383.993 231.401,383.993 "/>
<g>
	<polygon style="fill:#A0A7AB;" points="143.992,383.993 149.86,502.619 237.27,502.619 231.401,383.993 	"/>
	<polygon style="fill:#A0A7AB;" points="218.539,128.009 131.13,128.009 135.251,209.174 222.66,209.174 	"/>
</g>
<polygon style="fill:#AFB6BB;" points="355.896,9.381 368.383,65.574 143.617,65.574 156.104,9.381 "/>
<g>
	<polygon style="fill:#E7ECED;" points="405.845,65.574 405.845,128.009 380.87,128.009 131.13,128.009 106.156,128.009 
		106.156,65.574 143.617,65.574 368.383,65.574 	"/>
	<path style="fill:#E7ECED;" d="M256,259.122c20.728,0,37.461,16.733,37.461,37.461c0,20.729-16.733,37.461-37.461,37.461
		c-20.728,0-37.461-16.733-37.461-37.461C218.539,275.855,235.272,259.122,256,259.122z"/>
</g>
<path d="M415.226,56.192h-39.317L363.422,0H148.579l-12.487,56.192H96.775v81.198h25.437l3.669,72.253l8.741,174.813l6.309,127.545
	H371.06l6.442-127.535l8.742-174.831l3.556-72.246h25.425V56.192H415.226z M163.629,18.763h184.74l8.318,37.429H155.312
	L163.629,18.763z M141,137.389h230.016l-3.072,62.403H144.167L141,137.389z M152.916,374.611l-7.803-156.055h221.9l-7.803,156.055
	H152.916z M158.789,493.237l-4.941-99.863h204.417l-5.046,99.863H158.789z M396.464,118.626H115.538V74.955h280.926V118.626z"/>
<path d="M256,249.741c-25.829,0-46.842,21.013-46.842,46.842c0,25.829,21.013,46.843,46.842,46.843s46.843-21.013,46.843-46.843
	C302.843,270.754,281.829,249.741,256,249.741z M256,324.663c-15.483,0-28.079-12.596-28.079-28.08
	c0-15.483,12.596-28.079,28.079-28.079c15.483,0,28.08,12.596,28.08,28.079C284.08,312.066,271.484,324.663,256,324.663z"/>
<g>
	<rect x="162.348" y="237.25" style="fill:#FFFFFF;" width="24.975" height="18.763"/>
	<rect x="318.43" y="337.155" style="fill:#FFFFFF;" width="24.975" height="18.763"/>
	<rect x="187.316" y="437.049" style="fill:#FFFFFF;" width="137.356" height="18.763"/>
</g>
<g>
</g>
<g>
</g>
<g>
</g>
<g>
</g>
<g>
</g>
<g>
</g>
<g>
</g>
<g>
</g>
<g>
</g>
<g>
</g>
<g>
</g>
<g>
</g>
<g>
</g>
<g>
</g>
<g>
</g>
</svg>
