<?xml version="1.0" encoding="iso-8859-1"?>
<!-- Generator: Adobe Illustrator 19.0.0, SVG Export Plug-In . SVG Version: 6.00 Build 0)  -->
<svg version="1.1" id="Layer_1" xmlns="http://www.w3.org/2000/svg" xmlns:xlink="http://www.w3.org/1999/xlink" x="0px" y="0px"
	 viewBox="0 0 512 512" style="enable-background:new 0 0 512 512;" xml:space="preserve">
<polygon style="fill:#E7ECED;" points="211.281,153.607 211.281,195.768 163.095,195.768 114.91,195.768 114.91,153.607 "/>
<rect x="114.914" y="93.375" style="fill:#7E8488;" width="96.368" height="60.232"/>
<polygon style="fill:#99A0A4;" points="488.346,442.718 488.346,502.95 30.585,502.95 66.724,442.718 319.697,442.718 "/>
<rect x="319.693" y="93.375" style="fill:#E7ECED;" width="168.65" height="349.343"/>
<rect x="397.996" y="93.375" style="fill:#D9DEDF;" width="90.348" height="349.343"/>
<path style="fill:#AFB6BB;" d="M30.585,21.097c0-6.625,5.421-12.047,12.047-12.047h445.714v84.325H30.585V21.097z"/>
<rect x="96.837" y="42.162" style="fill:#FFFFFF;" width="313.202" height="18.101"/>
<path style="fill:#36C63F;" d="M404.022,135.537c23.25,0,42.162,18.913,42.162,42.162s-18.913,42.162-42.162,42.162
	c-23.25,0-42.162-18.913-42.162-42.162S380.773,135.537,404.022,135.537z"/>
<rect x="361.855" y="262.025" style="fill:#7E8488;" width="84.325" height="144.552"/>
<g>
	<rect x="385.953" y="289.116" style="fill:#FFFFFF;" width="36.139" height="18.101"/>
	<rect x="385.953" y="325.257" style="fill:#FFFFFF;" width="36.139" height="18.101"/>
	<rect x="385.953" y="361.386" style="fill:#FFFFFF;" width="36.139" height="18.101"/>
	<rect x="422.094" y="42.162" style="fill:#FFFFFF;" width="24.093" height="18.101"/>
</g>
<rect x="90.816" y="334.307" style="fill:#E7ECED;" width="150.573" height="108.411"/>
<rect x="90.816" y="280.09" style="fill:#AFB6BB;" width="150.573" height="54.209"/>
<rect x="90.816" y="334.307" style="fill:#D5DADB;" width="78.301" height="108.411"/>
<rect x="90.816" y="280.09" style="fill:#9CA2A7;" width="78.301" height="54.209"/>
<path d="M42.632,0C30.999,0,21.536,9.464,21.536,21.097v81.327h84.324v102.394h48.186v33.111h18.101v-33.111h48.185V102.424h90.317
	v331.243h-60.202V289.144h24.062v99.367h18.101V271.043H81.767v162.625H61.601L14.602,512h482.795V0H42.632z M202.23,144.555h-78.27
	v-42.131h78.27V144.555z M123.959,186.718v-24.062h78.27v24.062H123.959z M39.636,84.324V21.097c0-1.624,1.372-2.996,2.995-2.996
	h436.664v66.223H39.636z M328.748,102.424h150.548v331.243H328.748V102.424z M232.346,289.144v36.107H99.867v-36.107H232.346z
	 M99.867,343.351h132.478v90.316H99.867V343.351z M46.571,493.899l25.278-42.131h407.447v42.131H46.571z"/>
<path d="M404.021,228.912c28.238,0,51.213-22.973,51.213-51.212s-22.975-51.213-51.213-51.213
	c-28.238,0-51.212,22.975-51.212,51.213S375.783,228.912,404.021,228.912z M404.021,144.587c18.259,0,33.112,14.855,33.112,33.112
	s-14.855,33.111-33.112,33.111c-18.258,0-33.111-14.853-33.111-33.111S385.764,144.587,404.021,144.587z"/>
<path d="M352.81,415.63h102.426V252.974H352.81V415.63z M370.91,271.074h66.224v126.455H370.91V271.074z"/>
<g>
</g>
<g>
</g>
<g>
</g>
<g>
</g>
<g>
</g>
<g>
</g>
<g>
</g>
<g>
</g>
<g>
</g>
<g>
</g>
<g>
</g>
<g>
</g>
<g>
</g>
<g>
</g>
<g>
</g>
</svg>
