<?xml version="1.0" encoding="iso-8859-1"?>
<!-- Generator: Adobe Illustrator 19.0.0, SVG Export Plug-In . SVG Version: 6.00 Build 0)  -->
<svg version="1.1" id="Layer_1" xmlns="http://www.w3.org/2000/svg" xmlns:xlink="http://www.w3.org/1999/xlink" x="0px" y="0px"
	 viewBox="0 0 512 512" style="enable-background:new 0 0 512 512;" xml:space="preserve">
<path style="fill:#A26234;" d="M470.003,283.208L283.259,469.95c-44.896,44.896-118.427,44.973-163.4,0
	c-14.084-14.084-23.732-30.891-28.945-48.864c-17.974-5.213-34.781-14.862-48.864-28.945c-44.973-44.974-44.896-118.504,0-163.4
	L228.793,41.998c44.973-44.973,118.426-44.973,163.4,0c14.084,14.084,23.732,30.891,28.945,48.864
	c17.974,5.213,34.781,14.862,48.864,28.945C514.976,164.781,514.976,238.233,470.003,283.208z"/>
<path style="fill:#895329;" d="M392.193,41.998c-44.975-44.974-118.426-44.974-163.4,0L42.05,228.74
	c-44.896,44.896-44.974,118.426,0,163.4c14.084,14.084,30.891,23.731,48.864,28.945L421.138,90.862
	C415.925,72.888,406.277,56.081,392.193,41.998z"/>
<path d="M475.848,113.961c-13.526-13.526-30.081-23.736-48.107-29.704c-5.969-18.026-16.177-34.58-29.702-48.105
	C374.725,12.839,343.634,0,310.494,0c-33.141,0-64.233,12.838-87.546,36.152L36.205,222.895
	c-48.273,48.274-48.273,126.819,0,175.091c13.526,13.526,30.08,23.736,48.107,29.704c5.969,18.026,16.177,34.58,29.702,48.105
	C138.151,499.931,169.855,512,201.56,512s63.409-12.068,87.547-36.205l186.741-186.742C499.16,265.741,512,234.65,512,201.507
	S499.161,137.275,475.848,113.961z M464.156,277.361L277.414,464.104c-41.823,41.824-109.883,41.826-151.708,0
	c-12.81-12.81-21.843-28.058-26.851-45.322l-1.267-4.369l-4.371-1.268c-17.263-5.007-32.512-14.041-45.321-26.851
	c-41.826-41.825-41.826-109.882,0-151.708L234.64,47.844c20.19-20.19,47.128-31.309,75.854-31.309s55.663,11.119,75.853,31.309
	c11.659,11.659,20.178,25.344,25.392,40.724L129.576,370.733l11.692,11.691L423.431,100.26c15.38,5.214,29.065,13.733,40.724,25.393
	c20.191,20.19,31.309,47.128,31.309,75.854C495.466,230.233,484.347,257.172,464.156,277.361z"/>
<path style="fill:#FFFFFF;" d="M257.983,86.748l-11.692-11.691c18.117-18.117,47.067-38.016,82.109-29.929
	c21.035,4.854,34.079,17.713,34.625,18.258l-11.693,11.691l5.847-5.845l-5.821,5.871C349.676,73.448,309.548,35.181,257.983,86.748z
	"/>
<g>
</g>
<g>
</g>
<g>
</g>
<g>
</g>
<g>
</g>
<g>
</g>
<g>
</g>
<g>
</g>
<g>
</g>
<g>
</g>
<g>
</g>
<g>
</g>
<g>
</g>
<g>
</g>
<g>
</g>
</svg>
