<?xml version="1.0" encoding="iso-8859-1"?>
<!-- Generator: Adobe Illustrator 19.0.0, SVG Export Plug-In . SVG Version: 6.00 Build 0)  -->
<svg version="1.1" id="Layer_1" xmlns="http://www.w3.org/2000/svg" xmlns:xlink="http://www.w3.org/1999/xlink" x="0px" y="0px"
	 viewBox="0 0 512 512" style="enable-background:new 0 0 512 512;" xml:space="preserve">
<polygon style="fill:#AFB6BB;" points="443.711,89.882 443.711,340.421 400.139,340.421 400.139,133.453 337.612,133.453 
	340.226,89.882 "/>
<path style="fill:#FFD7A3;" d="M337.612,133.453l-3.703,59.911c-24.183-0.544-24.509-21.786-49.236-21.786
	c-25.163,0-25.163,21.786-50.217,21.786s-25.053-21.786-50.108-21.786c-25.053,0-25.053,21.786-49.999,21.786
	c-25.053,0-25.053-21.786-50.108-21.786h-0.544l-4.902-81.697h261.432L337.612,133.453z"/>
<path style="fill:#A26234;" d="M84.241,171.579c25.053,0,25.053,21.786,50.108,21.786c24.945,0,24.945-21.786,49.999-21.786
	c25.055,0,25.055,21.786,50.108,21.786s25.053-21.786,50.217-21.786c24.727,0,25.055,21.241,49.236,21.786l-15.469,255.986H100.581
	L83.696,171.579H84.241z"/>
<path style="fill:#814E26;" d="M184.893,269.616c25.053,0,25.053,21.786,50.108,21.786s25.055-21.786,50.217-21.786
	c22.468,0,24.979,17.377,43.36,20.988l5.875-97.239c-24.183-0.544-24.509-21.786-49.236-21.786
	c-25.163,0-25.163,21.786-50.217,21.786c-25.053,0-25.053-21.786-50.108-21.786s-25.053,21.786-49.999,21.786
	c-25.053,0-25.053-21.786-50.108-21.786H84.24l5.996,98.651c19.542,3.008,21.654,21.172,44.655,21.172
	C159.838,291.403,159.838,269.616,184.893,269.616z"/>
<polygon style="fill:#E7ECED;" points="345.674,503.816 73.348,503.816 100.581,449.351 318.441,449.351 "/>
<path style="fill:#A26234;" d="M323.887,89.882H95.133C95.133,59.055,119.751,34,150.252,34c4.14,0,8.17,0.544,12.091,1.307
	c9.586-16.23,27.123-27.123,47.167-27.123c20.043,0,37.581,10.893,47.167,27.123C260.6,34.545,264.63,34,268.77,34
	C299.269,34,323.887,59.055,323.887,89.882z"/>
<path d="M331.536,81.698c-3.985-31.473-30.604-55.881-62.768-55.881c-2.617,0-5.287,0.18-8.163,0.555
	C248.809,9.979,229.712,0,209.511,0s-39.298,9.979-51.094,26.372c-2.877-0.375-5.546-0.555-8.163-0.555
	c-32.164,0-58.783,24.409-62.768,55.881H70.104l5.423,90.378l16.752,275.58L60.105,512h298.811l-32.173-64.345l15.333-253.784
	l3.23-52.233h46.648v206.967h59.941V81.698H331.536z M315.087,176.284c-6.614-5.743-14.843-12.89-30.414-12.89
	c-15.651,0-23.901,7.16-30.532,12.913c-5.936,5.151-10.225,8.873-19.684,8.873c-9.466,0-13.752-3.727-19.683-8.884
	c-6.611-5.748-14.838-12.902-30.425-12.902c-15.606,0-23.829,7.166-30.437,12.925c-5.903,5.145-10.168,8.861-19.563,8.861
	c-9.466,0-13.752-3.727-19.683-8.885c-5.507-4.789-12.154-10.539-23.228-12.329l-3.953-65.902h244.052l-5.239,85.774
	C322.045,182.314,318.911,179.606,315.087,176.284z M325.276,200.534l-14.54,240.633H108.281L92.468,181.01
	c4.388,1.506,7.574,4.261,11.456,7.637c6.61,5.748,14.837,12.901,30.424,12.901c15.525,0,23.726-7.147,30.315-12.89
	c5.927-5.165,10.209-8.896,19.684-8.896c9.467,0,13.753,3.727,19.685,8.885c6.61,5.748,14.836,12.901,30.423,12.901
	c15.57,0,23.8-7.141,30.411-12.878c5.96-5.171,10.266-8.908,19.805-8.908c9.456,0,13.747,3.725,19.683,8.88
	C309.46,193.077,315.568,198.355,325.276,200.534z M150.252,42.184c3.126,0,6.472,0.368,10.528,1.157l5.671,1.103l2.939-4.975
	c8.417-14.25,23.79-23.101,40.122-23.101s31.704,8.852,40.12,23.101l2.939,4.975l5.671-1.103c4.057-0.789,7.401-1.157,10.528-1.157
	c23.134,0,42.413,17.099,46.243,39.514H104.009C107.839,59.284,127.118,42.184,150.252,42.184z M86.589,495.632l19.048-38.097
	h207.745l19.048,38.097H86.589z M435.527,332.237h-27.205V125.27h-62.019l1.632-27.204h87.592V332.237z"/>
<g>
	<rect x="127.81" y="234.2" style="fill:#FFFFFF;" width="21.786" height="16.368"/>
	<rect x="149.601" y="266.881" style="fill:#FFFFFF;" width="21.786" height="16.368"/>
	<rect x="182.282" y="234.2" style="fill:#FFFFFF;" width="21.786" height="16.368"/>
	<rect x="258.533" y="397.593" style="fill:#FFFFFF;" width="21.785" height="16.368"/>
	<rect x="225.852" y="375.813" style="fill:#FFFFFF;" width="21.786" height="16.368"/>
	<rect x="258.533" y="343.132" style="fill:#FFFFFF;" width="21.785" height="16.368"/>
	<rect x="258.533" y="245.09" style="fill:#FFFFFF;" width="21.785" height="16.368"/>
	<rect x="160.491" y="343.132" style="fill:#FFFFFF;" width="21.786" height="16.368"/>
</g>
<g>
</g>
<g>
</g>
<g>
</g>
<g>
</g>
<g>
</g>
<g>
</g>
<g>
</g>
<g>
</g>
<g>
</g>
<g>
</g>
<g>
</g>
<g>
</g>
<g>
</g>
<g>
</g>
<g>
</g>
</svg>
