<?xml version="1.0" encoding="iso-8859-1"?>
<!-- Generator: Adobe Illustrator 19.0.0, SVG Export Plug-In . SVG Version: 6.00 Build 0)  -->
<svg version="1.1" id="Layer_1" xmlns="http://www.w3.org/2000/svg" xmlns:xlink="http://www.w3.org/1999/xlink" x="0px" y="0px"
	 viewBox="0 0 512 512" style="enable-background:new 0 0 512 512;" xml:space="preserve">
<g>
	<polygon style="fill:#A26234;" points="435.454,472.4 461.845,504.069 50.156,504.069 76.546,472.4 76.546,446.01 435.454,446.01 	
		"/>
	<polygon style="fill:#A26234;" points="461.845,7.931 435.454,39.6 435.454,71.268 76.546,71.268 76.546,39.6 50.156,7.931 	"/>
</g>
<rect x="76.55" y="71.262" style="fill:#A58763;" width="358.913" height="374.743"/>
<rect x="76.55" y="113.497" style="fill:#685642;" width="358.913" height="290.294"/>
<g>
	<rect x="245.448" y="105.566" style="fill:#FFFFFF;" width="21.112" height="15.862"/>
	<rect x="287.672" y="105.566" style="fill:#FFFFFF;" width="21.113" height="15.862"/>
	<rect x="329.896" y="105.566" style="fill:#FFFFFF;" width="21.112" height="15.862"/>
	<rect x="372.121" y="105.566" style="fill:#FFFFFF;" width="21.112" height="15.862"/>
	<rect x="203.223" y="105.566" style="fill:#FFFFFF;" width="21.112" height="15.862"/>
	<rect x="160.999" y="105.566" style="fill:#FFFFFF;" width="21.112" height="15.862"/>
	<rect x="118.774" y="105.566" style="fill:#FFFFFF;" width="21.112" height="15.862"/>
	<rect x="245.448" y="395.86" style="fill:#FFFFFF;" width="21.112" height="15.862"/>
	<rect x="287.672" y="395.86" style="fill:#FFFFFF;" width="21.113" height="15.862"/>
	<rect x="329.896" y="395.86" style="fill:#FFFFFF;" width="21.112" height="15.862"/>
	<rect x="372.121" y="395.86" style="fill:#FFFFFF;" width="21.112" height="15.862"/>
	<rect x="203.223" y="395.86" style="fill:#FFFFFF;" width="21.112" height="15.862"/>
	<rect x="160.999" y="395.86" style="fill:#FFFFFF;" width="21.112" height="15.862"/>
	<rect x="118.774" y="395.86" style="fill:#FFFFFF;" width="21.112" height="15.862"/>
</g>
<path style="fill:#A26234;" d="M256,191.713c7.284-5.911,16.362-9.606,26.39-9.606c23.224,0,42.224,19.001,42.224,42.224v63.337
	c0,23.223-19.001,42.224-42.224,42.224c-10.028,0-19.106-3.695-26.39-9.606c-7.284,5.911-16.362,9.606-26.39,9.606
	c-23.224,0-42.224-19.001-42.224-42.224v-63.337c0-23.224,19.001-42.224,42.224-42.224C239.638,182.107,248.716,185.802,256,191.713
	z"/>
<path d="M443.385,42.471L478.777,0H33.223l35.392,42.471v427.06L33.223,512h445.555l-35.392-42.47V42.471z M427.523,438.078H84.477
	V79.2h343.046V438.078z M67.089,15.862h377.823l-17.388,20.865v26.61H84.477v-26.61L67.089,15.862z M444.912,496.138H67.089
	l17.388-20.865v-21.332h343.046v21.332L444.912,496.138z"/>
<path d="M229.61,337.824c9.362,0,18.377-2.67,26.39-7.773c8.013,5.102,17.029,7.773,26.39,7.773c27.656,0,50.156-22.5,50.156-50.155
	v-63.338c0-27.655-22.5-50.155-50.156-50.155c-9.361,0-18.375,2.67-26.39,7.774c-8.014-5.103-17.029-7.774-26.39-7.774
	c-27.656,0-50.156,22.5-50.156,50.155v63.338C179.455,315.323,201.954,337.824,229.61,337.824z M195.317,224.332
	c0-18.91,15.384-34.293,34.294-34.293c6.521,0,12.837,1.959,18.459,5.686v81.388h15.862v-81.388
	c5.624-3.727,11.938-5.686,18.459-5.686c18.911,0,34.294,15.384,34.294,34.293v63.338c0,18.909-15.384,34.293-34.294,34.293
	c-7.682,0-15.079-2.709-21.391-7.833l-4.999-4.057l-4.999,4.057c-6.313,5.124-13.71,7.833-21.391,7.833
	c-18.911,0-34.294-15.384-34.294-34.293L195.317,224.332L195.317,224.332z"/>
<rect x="282.395" y="216.399" style="fill:#FFFFFF;" width="21.113" height="15.862"/>
<g>
</g>
<g>
</g>
<g>
</g>
<g>
</g>
<g>
</g>
<g>
</g>
<g>
</g>
<g>
</g>
<g>
</g>
<g>
</g>
<g>
</g>
<g>
</g>
<g>
</g>
<g>
</g>
<g>
</g>
</svg>
