<?xml version="1.0" encoding="iso-8859-1"?>
<!-- Generator: Adobe Illustrator 19.0.0, SVG Export Plug-In . SVG Version: 6.00 Build 0)  -->
<svg version="1.1" id="Layer_1" xmlns="http://www.w3.org/2000/svg" xmlns:xlink="http://www.w3.org/1999/xlink" x="0px" y="0px"
	 viewBox="0 0 512.001 512.001" style="enable-background:new 0 0 512.001 512.001;" xml:space="preserve">
<path style="fill:#865128;" d="M411.921,100.08c122.428,75.642,122.428,236.199,0,311.841
	c-75.642,122.428-236.199,122.428-311.841,0c-122.428-75.642-122.428-236.199,0-311.841
	C175.721-22.348,336.279-22.348,411.921,100.08z"/>
<path style="fill:#91582D;" d="M100.079,100.08c-122.428,75.641-122.428,236.199,0,311.841
	c38.921,62.995,100.324,93.487,161.074,91.655V8.426C200.402,6.593,139,37.085,100.079,100.08z"/>
<path d="M256,512.001c-31.271,0-62.396-8.311-90.008-24.037c-28.793-16.398-52.978-39.96-71.907-70.048
	c-30.088-18.929-53.65-43.114-70.048-71.907C8.311,318.397,0,287.273,0,256.001s8.311-62.396,24.037-90.008
	c16.398-28.793,39.96-52.978,70.047-71.907c18.929-30.088,43.114-53.65,71.908-70.048C193.604,8.312,224.728,0.001,256,0.001
	s62.396,8.311,90.008,24.038c28.793,16.398,52.978,39.96,71.907,70.048c30.088,18.929,53.65,43.114,70.048,71.907
	c15.725,27.612,24.038,58.736,24.038,90.008s-8.311,62.396-24.038,90.008c-16.398,28.793-39.96,52.978-70.048,71.908
	c-18.929,30.088-43.114,53.649-71.907,70.047C318.396,503.689,287.271,512.001,256,512.001z M256,16.518
	c-28.411,0-56.709,7.564-81.835,21.873c-26.889,15.314-49.451,37.53-67.061,66.03l-1.025,1.659l-1.659,1.025
	c-28.501,17.609-50.716,40.172-66.03,67.061c-14.309,25.127-21.873,53.425-21.873,81.835s7.564,56.709,21.873,81.835
	c15.314,26.889,37.529,49.451,66.03,67.061l1.659,1.025l1.025,1.659c17.609,28.501,40.172,50.716,67.061,66.03
	c25.126,14.309,53.424,21.873,81.835,21.873c28.411,0,56.709-7.564,81.835-21.873c26.889-15.314,49.451-37.529,67.061-66.03
	l1.025-1.659l1.659-1.025c28.501-17.609,50.716-40.172,66.03-67.061c14.309-25.126,21.873-53.424,21.873-81.835
	s-7.564-56.709-21.873-81.835c-15.314-26.889-37.53-49.451-66.03-67.061l-1.659-1.025l-1.025-1.659
	c-17.609-28.501-40.172-50.716-67.061-66.03C312.708,24.081,284.411,16.518,256,16.518z"/>
<g>
	<path style="fill:#A58763;" d="M328.138,359.055c17.107,0,30.917,13.809,30.917,30.917c0,17.107-13.809,30.917-30.917,30.917
		s-30.916-13.809-30.916-30.917C297.221,372.865,311.031,359.055,328.138,359.055z"/>
	<path style="fill:#A58763;" d="M307.527,250.848c17.107,0,30.916,13.809,30.916,30.917s-13.809,30.916-30.916,30.916
		c-17.107,0-30.916-13.809-30.916-30.916C276.611,264.658,290.419,250.848,307.527,250.848z"/>
	<path style="fill:#A58763;" d="M225.083,317.833c17.107,0,30.916,13.809,30.916,30.916c0,17.107-13.809,30.917-30.916,30.917
		s-30.917-13.809-30.917-30.917C194.168,331.642,207.977,317.833,225.083,317.833z"/>
	<path style="fill:#A58763;" d="M142.641,173.558c11.336,0,20.611,9.275,20.611,20.611c0,11.336-9.275,20.611-20.611,20.611
		c-11.336,0-20.611-9.275-20.611-20.611C122.03,182.833,131.305,173.558,142.641,173.558z"/>
	<path style="fill:#A58763;" d="M209.625,101.42c11.336,0,20.611,9.275,20.611,20.611s-9.275,20.611-20.611,20.611
		c-11.336,0-20.611-9.275-20.611-20.611S198.289,101.42,209.625,101.42z"/>
</g>
<path d="M225.083,387.924c-21.601,0-39.174-17.573-39.174-39.175s17.573-39.175,39.174-39.175s39.175,17.573,39.175,39.175
	S246.684,387.924,225.083,387.924z M225.083,326.092c-12.494,0-22.657,10.164-22.657,22.658c0,12.495,10.164,22.658,22.657,22.658
	c12.494,0,22.658-10.164,22.658-22.658C247.741,336.255,237.577,326.092,225.083,326.092z"/>
<path d="M307.527,320.939c-21.601,0-39.174-17.573-39.174-39.175c0-21.601,17.573-39.174,39.174-39.174s39.175,17.573,39.175,39.174
	C346.701,303.365,329.128,320.939,307.527,320.939z M307.527,259.107c-12.494,0-22.657,10.164-22.657,22.657
	c0,12.494,10.164,22.658,22.657,22.658c12.494,0,22.658-10.164,22.658-22.658C330.184,269.272,320.02,259.107,307.527,259.107z"/>
<path d="M328.138,429.146c-21.601,0-39.174-17.573-39.174-39.175c0-21.601,17.573-39.174,39.174-39.174s39.175,17.573,39.175,39.174
	C367.312,411.572,349.739,429.146,328.138,429.146z M328.138,367.314c-12.494,0-22.657,10.164-22.657,22.657
	c0,12.494,10.164,22.658,22.657,22.658c12.494,0,22.658-10.164,22.658-22.658C350.795,377.477,340.632,367.314,328.138,367.314z"/>
<path d="M142.641,223.038c-15.918,0-28.869-12.951-28.869-28.869c0-15.919,12.951-28.87,28.869-28.87
	c15.919,0,28.87,12.951,28.87,28.87C171.509,210.087,158.559,223.038,142.641,223.038z M142.641,181.817
	c-6.811,0-12.352,5.541-12.352,12.353c0,6.811,5.541,12.352,12.352,12.352c6.812,0,12.353-5.541,12.353-12.352
	C154.992,187.358,149.451,181.817,142.641,181.817z"/>
<path d="M209.625,150.9c-15.919,0-28.87-12.951-28.87-28.87c0-15.918,12.951-28.869,28.87-28.869s28.87,12.951,28.87,28.869
	C238.495,137.949,225.545,150.9,209.625,150.9z M209.625,109.679c-6.812,0-12.353,5.541-12.353,12.352
	c0,6.812,5.541,12.353,12.353,12.353c6.812,0,12.353-5.541,12.353-12.353C221.978,115.22,216.437,109.679,209.625,109.679z"/>
<g>
	<rect x="400.276" y="247.746" style="fill:#FFFFFF;" width="20.611" height="16.517"/>
	<rect x="431.196" y="216.826" style="fill:#FFFFFF;" width="20.611" height="16.517"/>
	<rect x="307.527" y="113.771" style="fill:#FFFFFF;" width="20.611" height="16.517"/>
	<rect x="91.119" y="330.189" style="fill:#FFFFFF;" width="20.611" height="16.517"/>
	<rect x="122.029" y="278.655" style="fill:#FFFFFF;" width="20.61" height="16.517"/>
	<rect x="225.084" y="433.234" style="fill:#FFFFFF;" width="20.611" height="16.517"/>
	<rect x="266.3" y="72.55" style="fill:#FFFFFF;" width="20.611" height="16.517"/>
	<rect x="441.492" y="268.349" style="fill:#FFFFFF;" width="20.611" height="16.517"/>
</g>
<g>
</g>
<g>
</g>
<g>
</g>
<g>
</g>
<g>
</g>
<g>
</g>
<g>
</g>
<g>
</g>
<g>
</g>
<g>
</g>
<g>
</g>
<g>
</g>
<g>
</g>
<g>
</g>
<g>
</g>
</svg>
