<?xml version="1.0" encoding="iso-8859-1"?>
<!-- Generator: Adobe Illustrator 19.0.0, SVG Export Plug-In . SVG Version: 6.00 Build 0)  -->
<svg version="1.1" id="Layer_1" xmlns="http://www.w3.org/2000/svg" xmlns:xlink="http://www.w3.org/1999/xlink" x="0px" y="0px"
	 viewBox="0 0 512 512" style="enable-background:new 0 0 512 512;" xml:space="preserve">
<rect x="165.657" y="427.658" style="fill:#AFB6BB;" width="120.466" height="36.138"/>
<polygon style="fill:#595E62;" points="442.718,385.498 442.718,427.66 286.116,427.66 165.653,427.66 9.05,427.66 9.05,385.498 
	93.375,385.498 358.393,385.498 "/>
<g>
	<path style="fill:#AFB6BB;" d="M502.95,72.294c0,6.023,0,234.903,0,234.903h-96.37v-42.162h48.185c0,0,0-145.158,0-150.94
		c0-5.662-4.337-5.662-4.337-5.662h-13.732V66.271h60.232C496.927,66.271,502.95,66.271,502.95,72.294z"/>
	<path style="fill:#AFB6BB;" d="M45.19,108.433h361.39v156.602v42.162v30.116c0,26.622-21.563,48.185-48.185,48.185H93.375
		c-26.622,0-48.185-21.563-48.185-48.185C45.19,337.313,45.19,108.433,45.19,108.433z"/>
</g>
<polygon style="fill:#E7ECED;" points="436.695,66.271 436.695,108.433 406.58,108.433 45.19,108.433 15.074,108.433 15.074,48.201 
	436.695,48.201 "/>
<path style="fill:#959BA0;" d="M141.56,337.313v-228.88h-30.116H45.19v228.88c0,26.622,21.563,48.185,48.185,48.185h96.37
	C163.123,385.498,141.56,363.935,141.56,337.313z"/>
<polygon style="fill:#D0D4D6;" points="111.444,48.201 15.074,48.201 15.074,108.433 45.19,108.433 111.444,108.433 "/>
<path d="M415.63,316.247H512V72.294c0-9.79-7.766-15.073-15.073-15.073h-51.181v-18.07H6.024v78.332H36.14v219.83
	c0,15.126,5.909,28.891,15.526,39.135H0v60.263h156.602v36.138h138.564v-36.138h156.602v-60.263h-51.665
	c9.617-10.244,15.527-24.009,15.527-39.135v-21.065H415.63z M493.899,75.321v222.826H415.63v-24.062h48.185v-159.99
	c0-9.556-6.898-14.712-13.387-14.712h-4.682V75.321H493.899z M445.713,117.483v138.501h-30.084V117.483H445.713z M24.124,57.252
	h403.521v42.131H24.124V57.252z M277.065,454.75H174.702v-18.038h102.363V454.75z M433.668,418.61H18.101v-24.062h415.567V418.61z
	 M93.375,376.448c-21.578,0-39.135-17.555-39.135-39.135V189.761h249.945v-18.101H54.24v-54.178h343.288v219.83
	c0,21.58-17.556,39.135-39.136,39.135H93.375z"/>
<g>
	<rect x="84.325" y="210.824" style="fill:#FFFFFF;" width="18.101" height="78.301"/>
	<rect x="84.325" y="307.192" style="fill:#FFFFFF;" width="18.101" height="24.093"/>
</g>
<g>
</g>
<g>
</g>
<g>
</g>
<g>
</g>
<g>
</g>
<g>
</g>
<g>
</g>
<g>
</g>
<g>
</g>
<g>
</g>
<g>
</g>
<g>
</g>
<g>
</g>
<g>
</g>
<g>
</g>
</svg>
