<?xml version="1.0" encoding="iso-8859-1"?>
<!-- Generator: Adobe Illustrator 19.0.0, SVG Export Plug-In . SVG Version: 6.00 Build 0)  -->
<svg version="1.1" id="Layer_1" xmlns="http://www.w3.org/2000/svg" xmlns:xlink="http://www.w3.org/1999/xlink" x="0px" y="0px"
	 viewBox="0 0 512 512" style="enable-background:new 0 0 512 512;" xml:space="preserve">
<path style="fill:#FFE1B2;" d="M256.001,7.931c137.019,0,248.07,111.051,248.07,248.07s-111.052,248.069-248.07,248.069
	S7.931,393.019,7.931,256.001S118.981,7.931,256.001,7.931z"/>
<circle style="fill:#FFD7A3;" cx="256.005" cy="256.005" r="221.68"/>
<path d="M256.001,512c-68.386,0-132.676-26.627-181.024-74.975S0,324.387,0,256.001S26.627,123.324,74.975,74.976
	S187.613,0,256.001,0s132.676,26.627,181.024,74.975S512,187.613,512,255.999s-26.627,132.676-74.975,181.024
	S324.387,512,256.001,512z M256.001,15.862c-64.15,0-124.457,24.977-169.809,70.33s-70.33,105.659-70.33,169.809
	s24.977,124.456,70.33,169.809s105.659,70.33,169.809,70.33s124.456-24.977,169.809-70.33s70.33-105.659,70.33-169.809
	s-24.977-124.456-70.33-169.809S320.15,15.862,256.001,15.862z"/>
<path style="fill:#A26234;" d="M416.981,189.286c8.972,21.851,34.307,41.697,34.307,66.715s-25.335,44.864-34.307,66.715
	c-9.395,22.484-5.911,54.364-22.907,71.36c-16.996,16.996-48.875,13.512-71.36,22.907c-21.851,8.972-41.697,34.307-66.715,34.307
	s-44.864-25.335-66.715-34.307c-22.484-9.395-54.364-5.911-71.36-22.907c-16.996-16.996-13.512-48.875-22.907-71.36
	c-8.972-21.851-34.307-41.697-34.307-66.715s25.335-44.864,34.307-66.715c9.395-22.484,5.911-54.364,22.907-71.36
	s48.875-13.512,71.36-22.907c21.851-8.972,41.697-34.307,66.715-34.307s44.864,25.335,66.715,34.307
	c22.484,9.395,54.364,5.911,71.36,22.907S407.586,166.801,416.981,189.286z M319.337,256.001c0-34.941-28.396-63.337-63.337-63.337
	s-63.337,28.396-63.337,63.337s28.396,63.337,63.337,63.337S319.337,290.941,319.337,256.001z"/>
<path style="fill:#93592D;" d="M253.361,322.715c-0.498-1.213-1.207-2.4-1.799-3.603c-32.867-2.291-58.899-29.669-58.899-63.113
	s26.033-60.82,58.899-63.113c0.591-1.201,1.301-2.39,1.799-3.603c9.395-22.484,5.911-54.365,22.906-71.36
	c14.053-14.052,38.225-14.179,58.903-19.087c-4.331-1.028-8.562-2.193-12.457-3.821c-21.851-8.973-41.697-34.307-66.715-34.307
	s-44.864,25.334-66.715,34.307c-22.484,9.395-54.364,5.911-71.36,22.906c-16.995,16.995-13.512,48.875-22.906,71.36
	c-8.972,21.851-34.307,41.697-34.307,66.715s25.335,44.864,34.307,66.715c9.395,22.484,5.911,54.364,22.906,71.359
	c16.996,16.996,48.875,13.512,71.36,22.907c21.851,8.972,41.697,34.307,66.715,34.307s44.864-25.335,66.715-34.307
	c3.895-1.626,8.124-2.793,12.457-3.821c-20.678-4.908-44.851-5.034-58.903-19.087C259.272,377.079,262.757,345.2,253.361,322.715z"
	/>
<path d="M256.001,459.219c-18.072,0-32.736-10.563-46.918-20.776c-7.905-5.693-15.372-11.07-22.809-14.124
	c-7.89-3.297-17.252-4.882-27.165-6.56c-16.995-2.878-34.568-5.854-46.789-18.075c-12.222-12.221-15.197-29.794-18.075-46.789
	c-1.678-9.913-3.263-19.276-6.541-27.12c-3.073-7.482-8.451-14.949-14.143-22.854c-10.215-14.182-20.776-28.847-20.776-46.918
	s10.562-32.736,20.776-46.918c5.693-7.905,11.071-15.372,14.125-22.809c3.297-7.891,4.882-17.253,6.56-27.165
	c2.878-16.995,5.854-34.568,18.075-46.789s29.795-15.197,46.79-18.075c9.912-1.678,19.275-3.264,27.119-6.542
	c7.482-3.073,14.949-8.45,22.854-14.143c14.182-10.215,28.847-20.776,46.918-20.776s32.736,10.563,46.918,20.776
	c7.905,5.693,15.372,11.071,22.809,14.125c7.89,3.296,17.252,4.882,27.164,6.56c16.995,2.877,34.569,5.854,46.79,18.075
	s15.197,29.795,18.075,46.79c1.678,9.912,3.264,19.275,6.542,27.119c3.073,7.483,8.45,14.95,14.143,22.854
	c10.215,14.182,20.776,28.847,20.776,46.918s-10.563,32.736-20.776,46.918c-5.693,7.905-11.071,15.372-14.125,22.809
	c-3.296,7.89-4.882,17.252-6.56,27.164c-2.877,16.995-5.854,34.569-18.075,46.79c-12.221,12.222-29.794,15.197-46.789,18.075
	c-9.912,1.678-19.275,3.263-27.12,6.541c-7.483,3.073-14.95,8.451-22.854,14.144C288.737,448.658,274.072,459.219,256.001,459.219z
	 M256.001,68.642c-12.954,0-24.949,8.639-37.649,17.786c-8.303,5.98-16.888,12.163-26.054,15.927
	c-9.476,3.959-20.185,5.773-30.542,7.527c-15.212,2.576-29.58,5.008-38.223,13.651c-8.642,8.643-11.076,23.011-13.651,38.222
	c-1.753,10.357-3.567,21.066-7.545,30.587c-3.745,9.121-9.929,17.707-15.908,26.01c-9.147,12.699-17.786,24.694-17.786,37.648
	c0,12.954,8.639,24.949,17.786,37.649c5.98,8.303,12.163,16.887,15.927,26.053c3.96,9.476,5.773,20.185,7.527,30.543
	c2.576,15.211,5.009,29.579,13.651,38.222c8.643,8.642,23.011,11.076,38.222,13.651c10.357,1.753,21.066,3.567,30.587,7.545
	c9.12,3.745,17.706,9.929,26.009,15.908c12.7,9.147,24.695,17.786,37.649,17.786c12.954,0,24.949-8.639,37.648-17.786
	c8.303-5.98,16.888-12.163,26.055-15.927c9.476-3.96,20.185-5.773,30.542-7.527c15.211-2.576,29.579-5.009,38.222-13.651
	c8.643-8.643,11.077-23.011,13.651-38.223c1.754-10.357,3.568-21.065,7.545-30.586c3.745-9.12,9.929-17.707,15.908-26.009
	c9.147-12.699,17.786-24.694,17.786-37.649c0-12.954-8.639-24.949-17.786-37.648c-5.98-8.303-12.164-16.888-15.928-26.055
	c-3.959-9.476-5.773-20.184-7.527-30.541c-2.576-15.211-5.008-29.58-13.651-38.222c-8.643-8.642-23.011-11.077-38.222-13.651
	c-10.357-1.754-21.065-3.568-30.586-7.545c-9.121-3.745-17.707-9.929-26.01-15.909C280.949,77.282,268.954,68.642,256.001,68.642z"
	/>
<path style="fill:#FFFFFF;" d="M256.001,192.663c34.941,0,63.337,28.396,63.337,63.337s-28.396,63.337-63.337,63.337
	s-63.337-28.396-63.337-63.337S221.06,192.663,256.001,192.663z"/>
<path d="M256.001,327.268c-39.297,0-71.268-31.97-71.268-71.268s31.97-71.267,71.268-71.267s71.267,31.97,71.267,71.267
	C327.267,295.297,295.297,327.268,256.001,327.268z M256.001,200.594c-30.551,0-55.406,24.855-55.406,55.405
	s24.855,55.406,55.406,55.406s55.405-24.855,55.405-55.406S286.551,200.594,256.001,200.594z"/>
<g>
	<rect x="155.718" y="131.947" style="fill:#FFFFFF;" width="21.112" height="15.862"/>
	<rect x="134.601" y="163.617" style="fill:#FFFFFF;" width="21.113" height="15.862"/>
	<rect x="187.388" y="153.064" style="fill:#FFFFFF;" width="21.112" height="15.862"/>
	<rect x="366.845" y="226.957" style="fill:#FFFFFF;" width="21.112" height="15.862"/>
	<rect x="387.951" y="258.627" style="fill:#FFFFFF;" width="21.113" height="15.862"/>
	<rect x="145.165" y="332.521" style="fill:#FFFFFF;" width="21.112" height="15.862"/>
	<rect x="166.271" y="364.191" style="fill:#FFFFFF;" width="21.113" height="15.862"/>
	<rect x="197.941" y="343.074" style="fill:#FFFFFF;" width="21.112" height="15.862"/>
</g>
<g>
</g>
<g>
</g>
<g>
</g>
<g>
</g>
<g>
</g>
<g>
</g>
<g>
</g>
<g>
</g>
<g>
</g>
<g>
</g>
<g>
</g>
<g>
</g>
<g>
</g>
<g>
</g>
<g>
</g>
</svg>
