<?xml version="1.0" encoding="iso-8859-1"?>
<!-- Generator: Adobe Illustrator 19.0.0, SVG Export Plug-In . SVG Version: 6.00 Build 0)  -->
<svg version="1.1" id="Layer_1" xmlns="http://www.w3.org/2000/svg" xmlns:xlink="http://www.w3.org/1999/xlink" x="0px" y="0px"
	 viewBox="0 0 512 512" style="enable-background:new 0 0 512 512;" xml:space="preserve">
<path style="fill:#A26234;" d="M170.675,451.541h-63.995l-8.676-270.203h1.564c52.05,0,52.05,28.443,104.242,28.443
	s52.192-28.443,104.242-28.443c52.192,0,52.192,28.443,104.384,28.443h0.711l-7.822,241.76h-63.996l14.222,49.775H156.454
	L170.675,451.541z"/>
<path style="fill:#945A2E;" d="M308.052,309.33c50.977,0,52.299,27.061,100.958,28.323l4.137-127.872h-0.711
	c-52.192,0-52.192-28.443-104.384-28.443c-52.05,0-52.05,28.443-104.24,28.443c-52.192,0-52.192-28.443-104.242-28.443h-1.564
	l4.111,128.079c49.401,0.954,50.409,28.353,101.695,28.353C256.003,337.772,256.003,309.33,308.052,309.33z"/>
<path style="fill:#E7ECED;" d="M419.547,10.684l-6.399,199.097h-0.711c-52.192,0-52.192-28.443-104.384-28.443
	c-52.05,0-52.05,28.443-104.242,28.443s-52.192-28.443-104.242-28.443h-1.564L92.459,10.684H419.547z"/>
<path style="fill:#D9DEDF;" d="M92.459,10.684l5.547,170.655h1.564c52.05,0,52.05,28.443,104.242,28.443
	c26.108,0,39.156-7.117,52.192-14.231V10.684H92.459z"/>
<path d="M430.58,0H81.42l14.914,462.225h60.177L142.289,512h227.427l-14.222-49.775h60.175L430.58,0z M408.513,21.369l-5.7,177.334
	c-17.028-1.42-26.628-6.623-37.456-12.523c-13.353-7.277-28.486-15.524-57.305-15.524c-28.732,0-43.836,8.241-57.16,15.512
	c-12.714,6.939-23.693,12.931-47.082,12.931s-34.368-5.992-47.082-12.931c-11.891-6.489-25.226-13.733-48.373-15.22l-4.861-149.579
	H408.513z M327.165,440.857l14.221,49.775H170.62l8.117-28.406h91.487v-21.369H117.026l-7.976-248.45
	c17.031,1.406,26.621,6.61,37.443,12.516c13.348,7.285,28.479,15.542,57.318,15.542s43.969-8.257,57.318-15.542
	c12.686-6.922,23.642-12.901,46.923-12.901c23.373,0,34.359,5.987,47.079,12.918c11.662,6.355,24.685,13.448,46.992,15.143
	l-7.143,220.772h-67.815V440.857z"/>
<g>
	<polygon style="fill:#FFFFFF;" points="138.725,125.633 130.296,49.775 184.897,49.775 184.897,71.143 154.172,71.143 
		159.962,123.274 	"/>
	<rect x="170.678" y="298.647" style="fill:#FFFFFF;" width="28.442" height="21.369"/>
	<rect x="142.229" y="341.313" style="fill:#FFFFFF;" width="28.443" height="21.369"/>
	<rect x="199.113" y="341.313" style="fill:#FFFFFF;" width="28.443" height="21.369"/>
	<rect x="270.227" y="383.979" style="fill:#FFFFFF;" width="28.443" height="21.369"/>
	<rect x="298.662" y="341.313" style="fill:#FFFFFF;" width="28.443" height="21.369"/>
	<rect x="256.01" y="255.981" style="fill:#FFFFFF;" width="28.443" height="21.369"/>
	<rect x="341.328" y="284.43" style="fill:#FFFFFF;" width="28.443" height="21.369"/>
</g>
<g>
</g>
<g>
</g>
<g>
</g>
<g>
</g>
<g>
</g>
<g>
</g>
<g>
</g>
<g>
</g>
<g>
</g>
<g>
</g>
<g>
</g>
<g>
</g>
<g>
</g>
<g>
</g>
<g>
</g>
</svg>
