<?xml version="1.0" encoding="iso-8859-1"?>
<!-- Generator: Adobe Illustrator 19.0.0, SVG Export Plug-In . SVG Version: 6.00 Build 0)  -->
<svg version="1.1" id="Layer_1" xmlns="http://www.w3.org/2000/svg" xmlns:xlink="http://www.w3.org/1999/xlink" x="0px" y="0px"
	 viewBox="0 0 512.001 512.001" style="enable-background:new 0 0 512.001 512.001;" xml:space="preserve">
<path style="fill:#A26234;" d="M364.518,287.563l-13.512,216.506h-190.01l-14.884-237.408c21.217,0.528,21.535,21.007,43.385,21.007
	c22.062,0,22.062-21.113,44.23-21.113s22.168,21.113,44.336,21.113c22.274,0,22.274-21.113,44.442-21.113
	C343.828,266.556,344.672,286.19,364.518,287.563z"/>
<path style="fill:#8F572C;" d="M233.727,351.006c22.168,0,22.168,21.113,44.336,21.113c22.273,0,22.273-21.113,44.441-21.113
	c19.229,0,21.931,15.846,36.806,19.989l5.207-83.432c-19.846-1.373-20.691-21.007-42.014-21.007
	c-22.168,0-22.168,21.113-44.441,21.113c-22.168,0-22.168-21.113-44.336-21.113s-22.168,21.113-44.23,21.113
	c-21.851,0-22.168-20.479-43.385-21.007l5.344,85.247c15.973,3.568,18.258,20.209,38.041,20.209
	C211.559,372.117,211.559,351.006,233.727,351.006z"/>
<g>
	<path style="fill:#E7ECED;" d="M372.119,166.273l-7.601,121.29c-19.846-1.373-20.69-21.007-42.014-21.007
		c-22.168,0-22.168,21.113-44.442,21.113c-22.168,0-22.168-21.113-44.336-21.113s-22.168,21.113-44.23,21.113
		c-21.851,0-22.168-20.479-43.385-21.007l-6.228-100.389H372.119z"/>
	<path style="fill:#E7ECED;" d="M366.84,81.824v42.224H145.162V81.824c0,0,15.834-31.668,110.839-31.668
		S366.84,81.824,366.84,81.824z"/>
</g>
<polygon style="fill:#CED2D4;" points="398.509,124.049 398.509,166.273 372.119,166.273 139.883,166.273 113.493,166.273 
	113.493,124.049 145.162,124.049 366.84,124.049 "/>
<path d="M406.439,116.118h-31.668V79.952l-0.837-1.674c-1.793-3.587-19.793-34.266-110.002-35.975V15.862h139.855V0H261.279
	c-8.58,0-13.209,6.806-13.209,13.208v29.094C157.861,44.01,139.861,74.69,138.068,78.278l-0.837,1.674v36.166h-31.668v58.086h26.867
	l21.117,337.797h204.912l21.11-337.797h26.871V116.118z M358.909,84.304v31.814h-94.978V58.166
	C333.713,59.554,354.581,79.097,358.909,84.304z M153.092,84.255c1.682-2.027,6.134-6.535,15.409-11.172
	c12.902-6.45,37.018-14.066,79.57-14.915v57.949h-94.978V84.255H153.092z M121.424,131.979H248.07v26.363H121.424V131.979z
	 M248.07,174.204v87.367c-3.897-1.767-8.548-2.945-14.342-2.945c-14.275,0-21.691,7.081-27.651,12.77
	c-5.074,4.843-8.74,8.343-16.58,8.343c-7.913,0-11.598-3.5-16.699-8.343c-4.638-4.404-10.19-9.668-19.177-11.754l-5.3-85.436h99.748
	V174.204z M168.444,496.139l-13.739-219.154c2.488,1.469,4.653,3.52,7.172,5.912c5.96,5.66,13.377,12.703,27.621,12.703
	c14.196,0,21.591-7.059,27.532-12.732c5.096-4.865,8.779-8.38,16.698-8.38c6.649,0,10.314,2.484,14.342,6.158v117.863h15.862V292.75
	c3.854,1.714,8.441,2.85,14.132,2.85c14.317,0,21.761-7.073,27.742-12.756c5.106-4.85,8.795-8.356,16.699-8.356
	c7.886,0,11.578,3.51,16.687,8.367c4.23,4.02,9.264,8.784,16.976,11.177L343.555,496.14h-175.11V496.139z M357.219,277.242
	c-2.441-1.466-4.588-3.498-7.098-5.882c-5.968-5.673-13.393-12.734-27.616-12.734c-14.237,0-21.659,7.052-27.624,12.719
	c-5.129,4.873-8.834,8.394-16.816,8.394c-6.533,0-10.186-2.396-14.132-5.966v-99.568h99.743L357.219,277.242z M390.578,158.342
	H263.932v-26.363h126.647v26.363H390.578z"/>
<g>
	<rect x="192.665" y="332.521" style="fill:#FFFFFF;" width="21.112" height="15.862"/>
	<rect x="203.218" y="374.744" style="fill:#FFFFFF;" width="21.113" height="15.862"/>
	<rect x="203.218" y="448.637" style="fill:#FFFFFF;" width="21.113" height="15.862"/>
	<rect x="245.442" y="427.521" style="fill:#FFFFFF;" width="21.112" height="15.862"/>
	<rect x="298.229" y="448.637" style="fill:#FFFFFF;" width="21.112" height="15.862"/>
	<rect x="308.782" y="406.414" style="fill:#FFFFFF;" width="21.113" height="15.862"/>
	<rect x="287.665" y="364.191" style="fill:#FFFFFF;" width="21.113" height="15.862"/>
	<rect x="308.782" y="311.404" style="fill:#FFFFFF;" width="21.113" height="15.862"/>
</g>
<g>
</g>
<g>
</g>
<g>
</g>
<g>
</g>
<g>
</g>
<g>
</g>
<g>
</g>
<g>
</g>
<g>
</g>
<g>
</g>
<g>
</g>
<g>
</g>
<g>
</g>
<g>
</g>
<g>
</g>
</svg>
