<?xml version="1.0" encoding="iso-8859-1"?>
<!-- Generator: Adobe Illustrator 19.0.0, SVG Export Plug-In . SVG Version: 6.00 Build 0)  -->
<svg version="1.1" id="Layer_1" xmlns="http://www.w3.org/2000/svg" xmlns:xlink="http://www.w3.org/1999/xlink" x="0px" y="0px"
	 viewBox="0 0 512.001 512.001" style="enable-background:new 0 0 512.001 512.001;" xml:space="preserve">
<path style="fill:#A58763;" d="M269.75,73.537c29.179,0.338,43.463,30.39,43.463,54.463H95.46c0-24.072,19.5-43.572,43.572-43.572
	c8.282,0,15.91,2.401,22.446,6.427c-0.327-2.172-0.655-4.245-0.655-6.427c0-24.072,19.5-43.572,43.572-43.572
	c22.435,0,40.735,17.11,43.136,39C254.069,75.938,261.588,73.537,269.75,73.537z"/>
<path style="fill:#AFB6BB;" d="M427.704,128c0,0,5.445,0,5.445,5.445c0,5.456,0,206.972,0,206.972h-43.572V177.018
	c0,0,0-5.445-5.445-5.445H328.25L329.669,128C329.669,128,427.704,128,427.704,128z"/>
<path style="fill:#A26234;" d="M164.415,215.145c39.982,0,39.982-21.781,79.844-21.781c39,0,45.1,20.69,82.573,21.672
	l-4.027,125.054c-33.882-2.281-40.964-21.453-78.546-21.453c-26.899,0-35.617,9.908-50.764,16.336
	c-7.289,3.165-16.008,5.445-29.081,5.445c-37.8,0-44.773-19.391-79.081-21.453l-4.038-125.49
	C119.205,194.128,125.196,215.145,164.415,215.145z"/>
<path style="fill:#E7ECED;" d="M326.832,215.036c-37.472-0.982-43.572-21.672-82.573-21.672c-39.862,0-39.862,21.781-79.844,21.781
	c-39.218,0-45.209-21.017-83.118-21.672L79.125,128H95.46h217.753c0.109,0,0.109,0,0.109,0h16.346l-1.419,43.572L326.832,215.036z"
	/>
<path style="fill:#BC723E;" d="M164.415,340.417c13.073,0,21.792-2.281,29.081-5.445c15.146-6.427,23.865-16.336,50.764-16.336
	c37.582,0,44.664,19.173,78.546,21.453l-4.038,125.599H269.75l10.89,38.127H128.142l10.89-38.127H90.015l-4.681-146.725
	C119.642,321.026,126.615,340.417,164.415,340.417z"/>
<g>
	<rect x="204.396" y="272.325" style="fill:#FFFFFF;" width="21.781" height="16.368"/>
	<rect x="247.968" y="261.434" style="fill:#FFFFFF;" width="21.781" height="16.368"/>
	<rect x="117.251" y="413.932" style="fill:#FFFFFF;" width="21.781" height="16.368"/>
	<rect x="160.823" y="392.151" style="fill:#FFFFFF;" width="21.781" height="16.368"/>
	<rect x="128.141" y="261.434" style="fill:#FFFFFF;" width="21.781" height="16.368"/>
	<rect x="237.067" y="381.25" style="fill:#FFFFFF;" width="21.793" height="16.368"/>
	<rect x="269.749" y="337.678" style="fill:#FFFFFF;" width="21.793" height="16.368"/>
	<rect x="193.494" y="326.787" style="fill:#FFFFFF;" width="21.792" height="16.368"/>
</g>
<path d="M427.704,119.816H320.936c-1.324-11.797-5.446-23.332-11.755-32.564c-9.523-13.937-23.492-21.713-39.431-21.897
	c-1.773,0-3.53,0.104-5.275,0.288l26.512-49.274h65.907V0h-75.688l-31.838,59.174c-8.886-15.938-25.787-26.501-44.971-26.501
	c-26.44,0-48.315,19.931-51.388,45.557c-4.539-1.311-9.243-1.985-13.977-1.985c-25.753,0-47.167,18.91-51.103,43.572H70.666
	l11.423,354.057h46.095l-10.889,38.127h174.197l-10.89-38.127h46.093l9.478-294.115h45.222v168.842h59.941V133.445
	C441.333,124.593,434.311,119.816,427.704,119.816z M139.033,92.612c6.433,0,12.54,1.753,18.155,5.211l15.013,9.247l-2.668-17.703
	c-0.28-1.856-0.523-3.46-0.523-4.939c0-19.513,15.875-35.388,35.388-35.388c17.971,0,33.018,13.632,35.001,31.709l1.391,12.693
	l10.951-6.566c5.704-3.42,11.762-5.154,17.913-5.155c21.057,0.244,32.108,20.348,34.742,38.094H104.61
	C108.315,104.238,122.337,92.612,139.033,92.612z M310.842,457.505H258.9l10.89,38.127H138.992l6.214-21.759h70.08v-16.368H97.943
	l-8.18-255.265c11.853,1.449,19.973,5.337,28.473,9.412c11.42,5.474,24.363,11.677,46.178,11.677
	c22.093,0,33.683-6.324,43.908-11.902c9.715-5.3,18.107-9.879,35.936-9.879c18.113,0,28.321,4.882,39.128,10.049
	c9.302,4.448,19.678,9.394,35.014,11.064L310.842,457.505z M318.93,206.251c-11.855-1.481-19.978-5.355-28.48-9.42
	c-11.421-5.46-24.365-11.651-46.19-11.651c-22.003,0-33.57,6.311-43.774,11.878c-9.74,5.314-18.151,9.903-36.07,9.903
	c-18.096,0-28.301-4.891-39.104-10.07c-9.526-4.566-20.155-9.657-36.083-11.17l-1.642-49.537h233.629L318.93,206.251z
	 M424.965,332.233h-27.204V177.018c0-6.607-4.777-13.628-13.629-13.628h-47.428l0.887-27.205h87.375v196.048H424.965z"/>
<g>
</g>
<g>
</g>
<g>
</g>
<g>
</g>
<g>
</g>
<g>
</g>
<g>
</g>
<g>
</g>
<g>
</g>
<g>
</g>
<g>
</g>
<g>
</g>
<g>
</g>
<g>
</g>
<g>
</g>
</svg>
