<?xml version="1.0" encoding="iso-8859-1"?>
<!-- Generator: Adobe Illustrator 19.0.0, SVG Export Plug-In . SVG Version: 6.00 Build 0)  -->
<svg version="1.1" id="Layer_1" xmlns="http://www.w3.org/2000/svg" xmlns:xlink="http://www.w3.org/1999/xlink" x="0px" y="0px"
	 viewBox="0 0 511.999 511.999" style="enable-background:new 0 0 511.999 511.999;" xml:space="preserve">
<polygon style="fill:#AFB6BB;" points="459.205,97.659 459.205,345.727 374.756,345.727 374.756,308.781 422.258,308.781 
	422.258,134.604 374.756,134.604 374.756,102.936 374.756,97.659 "/>
<polygon style="fill:#A26234;" points="374.756,345.727 374.756,504.069 110.853,504.069 110.853,234.887 374.756,234.887 
	374.756,308.781 "/>
<path style="fill:#8C552B;" d="M110.853,234.887v102.432c18.686-5.888,50.005-12.705,95.005-12.705
	c51.663,0,71.977,23.898,109.11,36.645c15.687,5.385,34.407,8.758,59.789,7.482v-23.013V308.78v-73.893H110.853z"/>
<polygon style="fill:#6E7377;" points="374.756,134.604 374.756,166.273 110.853,166.273 79.184,166.273 52.794,134.604 
	52.794,102.936 110.853,102.936 374.756,102.936 "/>
<rect x="110.853" y="166.275" style="fill:#E7ECED;" width="263.9" height="68.614"/>
<path style="fill:#AFB6BB;" d="M374.756,97.659v5.278H110.853V65.99c0,0,0-15.834,15.834-15.834s216.401,0,232.234,0
	c15.834,0,15.834,15.834,15.834,15.834V97.659z"/>
<path d="M467.136,89.728h-84.449V65.99c0-9.553-6.329-23.766-23.765-23.766H250.735V15.862h34.293V0H200.58v15.862h34.294v26.362
	H126.687c-17.435,0-23.765,14.212-23.765,23.766v29.015H44.863v42.47l30.606,36.729h27.453v337.795h279.765V353.657h84.449V89.728z
	 M118.784,174.204h116.089v52.752H118.784V174.204z M250.735,174.204h116.089v52.752H250.735V174.204z M366.825,158.342h-116.09
	v-47.476h116.089v47.476H366.825z M382.687,142.535h31.641V300.85h-31.641V142.535z M358.922,58.086
	c6.365,0,7.811,4.349,7.903,7.905v29.015h-116.09V58.086H358.922z M118.783,66.084c0.093-3.648,1.54-7.998,7.905-7.998h108.187
	v36.919h-116.09L118.783,66.084z M82.899,158.342l-22.174-26.609v-20.866h174.149v47.476H82.899V158.342z M118.784,496.138v-253.32
	h116.089v147.758h-34.294v15.862h84.449v-15.862h-34.293V242.818h116.089v253.32H118.784z M451.274,337.795h-68.587v-21.084h47.503
	V126.673h-47.503V105.59h68.587V337.795z"/>
<rect x="269.197" y="126.673" width="47.503" height="15.862"/>
<rect x="327.252" y="126.673" width="21.112" height="15.862"/>
<g>
	<polygon style="fill:#FFFFFF;" points="155.731,345.726 139.869,345.726 139.869,263.903 174.19,263.903 174.19,279.765 
		155.731,279.765 	"/>
	<rect x="139.87" y="366.844" style="fill:#FFFFFF;" width="15.862" height="21.112"/>
	<rect x="298.214" y="308.778" style="fill:#FFFFFF;" width="15.862" height="21.112"/>
	<rect x="329.874" y="329.896" style="fill:#FFFFFF;" width="15.862" height="21.112"/>
	<rect x="329.874" y="277.118" style="fill:#FFFFFF;" width="15.862" height="21.112"/>
	<rect x="139.87" y="446.005" style="fill:#FFFFFF;" width="15.862" height="21.113"/>
	<rect x="182.094" y="435.452" style="fill:#FFFFFF;" width="15.862" height="21.112"/>
	<rect x="266.543" y="435.452" style="fill:#FFFFFF;" width="15.862" height="21.112"/>
	<rect x="298.214" y="456.569" style="fill:#FFFFFF;" width="15.862" height="21.113"/>
	<rect x="329.874" y="414.345" style="fill:#FFFFFF;" width="15.862" height="21.112"/>
</g>
<g>
</g>
<g>
</g>
<g>
</g>
<g>
</g>
<g>
</g>
<g>
</g>
<g>
</g>
<g>
</g>
<g>
</g>
<g>
</g>
<g>
</g>
<g>
</g>
<g>
</g>
<g>
</g>
<g>
</g>
</svg>
