<?xml version="1.0" encoding="iso-8859-1"?>
<!-- Generator: Adobe Illustrator 19.0.0, SVG Export Plug-In . SVG Version: 6.00 Build 0)  -->
<svg version="1.1" id="Layer_1" xmlns="http://www.w3.org/2000/svg" xmlns:xlink="http://www.w3.org/1999/xlink" x="0px" y="0px"
	 viewBox="0 0 512 512" style="enable-background:new 0 0 512 512;" xml:space="preserve">
<path style="fill:#00ABD5;" d="M167.73,467.85h-41.193V161.844c25.893,0,25.893,23.539,51.785,23.539
	c25.775,0,25.775-23.539,51.667-23.539s25.893,23.539,51.785,23.539s25.893-23.539,51.903-23.539
	c25.893,0,25.893,23.539,51.785,23.539V467.85h-41.193v35.308H167.73V467.85z"/>
<path style="fill:#009DD3;" d="M333.678,161.844c-26.01,0-26.01,23.539-51.903,23.539s-25.893-23.539-51.785-23.539
	s-25.893,23.539-51.667,23.539c-25.893,0-25.893-23.539-51.785-23.539v105.925c25.893,0,25.893,23.539,51.785,23.539
	c25.775,0,25.775-23.539,51.667-23.539s25.893,23.539,51.785,23.539c25.893,0,25.893-23.539,51.903-23.539
	c25.893,0,25.893,23.539,51.785,23.539V185.384C359.571,185.384,359.571,161.844,333.678,161.844z"/>
<path style="fill:#E7ECED;" d="M385.463,8.842v176.541c-25.893,0-25.893-23.539-51.785-23.539c-26.01,0-26.01,23.539-51.903,23.539
	c-25.893,0-25.893-23.539-51.785-23.539s-25.893,23.539-51.667,23.539c-25.893,0-25.893-23.539-51.785-23.539V8.842H385.463z"/>
<path d="M117.694,0v476.692h41.192V512h194.227v-35.308h41.192V0H117.694z M376.621,17.685v157.333
	c-4.166-1.643-7.305-4.493-11.102-7.945c-6.895-6.269-15.475-14.07-31.84-14.07c-16.432,0-25.041,7.808-31.958,14.083
	c-6.053,5.49-10.427,9.457-19.945,9.457c-9.527,0-13.897-3.972-19.945-9.469c-6.896-6.269-15.476-14.07-31.842-14.07
	c-16.384,0-24.964,7.815-31.856,14.096c-6.017,5.482-10.363,9.444-19.813,9.444c-9.527,0-13.897-3.972-19.945-9.469
	c-5.529-5.027-12.154-11.03-22.998-13.215V17.685H376.621z M335.429,459.008v35.308H176.572v-17.623H279.54v-17.685H135.379V172.212
	c4.166,1.643,7.305,4.493,11.102,7.945c6.895,6.269,15.475,14.07,31.84,14.07c16.297,0,24.85-7.793,31.723-14.056
	c6.042-5.506,10.408-9.484,19.945-9.484c9.528,0,13.898,3.972,19.946,9.471c6.896,6.267,15.475,14.069,31.84,14.069
	c16.344,0,24.929-7.786,31.825-14.043c6.079-5.513,10.47-9.497,20.078-9.497c9.527,0,13.897,3.972,19.945,9.469
	c5.529,5.027,12.154,11.03,22.998,13.215v265.636h-41.192V459.008z"/>
<g>
	<polygon style="fill:#FFFFFF;" points="182.456,97.113 164.772,97.113 164.772,41.193 220.692,41.193 220.692,58.878 
		182.456,58.878 	"/>
	<rect x="173.615" y="235.393" style="fill:#FFFFFF;" width="23.539" height="17.685"/>
	<rect x="220.692" y="247.159" style="fill:#FFFFFF;" width="23.538" height="17.685"/>
	<rect x="185.381" y="282.47" style="fill:#FFFFFF;" width="23.538" height="17.685"/>
	<rect x="314.844" y="341.312" style="fill:#FFFFFF;" width="23.538" height="17.685"/>
	<rect x="279.534" y="376.622" style="fill:#FFFFFF;" width="23.538" height="17.685"/>
	<rect x="326.622" y="400.166" style="fill:#FFFFFF;" width="23.539" height="17.685"/>
	<rect x="173.615" y="400.166" style="fill:#FFFFFF;" width="23.539" height="17.685"/>
	<rect x="197.148" y="364.856" style="fill:#FFFFFF;" width="23.539" height="17.685"/>
	<rect x="314.844" y="223.615" style="fill:#FFFFFF;" width="23.538" height="17.685"/>
</g>
<g>
</g>
<g>
</g>
<g>
</g>
<g>
</g>
<g>
</g>
<g>
</g>
<g>
</g>
<g>
</g>
<g>
</g>
<g>
</g>
<g>
</g>
<g>
</g>
<g>
</g>
<g>
</g>
<g>
</g>
</svg>
