<?xml version="1.0" encoding="iso-8859-1"?>
<!-- Generator: Adobe Illustrator 19.0.0, SVG Export Plug-In . SVG Version: 6.00 Build 0)  -->
<svg version="1.1" id="Layer_1" xmlns="http://www.w3.org/2000/svg" xmlns:xlink="http://www.w3.org/1999/xlink" x="0px" y="0px"
	 viewBox="0 0 511.999 511.999" style="enable-background:new 0 0 511.999 511.999;" xml:space="preserve">
<path style="fill:#A26234;" d="M364.517,287.563l-13.512,216.505h-190.01l-14.884-237.407c21.218,0.528,21.534,21.006,43.385,21.006
	c22.062,0,22.062-21.112,44.23-21.112s22.168,21.112,44.336,21.112c22.273,0,22.273-21.112,44.441-21.112
	C343.827,266.556,344.672,286.19,364.517,287.563z"/>
<path style="fill:#8F572C;" d="M233.726,351.005c22.168,0,22.168,21.112,44.336,21.112c22.273,0,22.273-21.112,44.441-21.112
	c19.23,0,21.931,15.846,36.807,19.988l5.207-83.43c-19.845-1.373-20.69-21.006-42.014-21.006c-22.168,0-22.168,21.112-44.441,21.112
	c-22.169,0-22.169-21.112-44.336-21.112c-22.169,0-22.169,21.112-44.23,21.112c-21.851,0-22.169-20.479-43.385-21.006l5.344,85.247
	c15.973,3.568,18.257,20.208,38.041,20.208C211.559,372.117,211.559,351.005,233.726,351.005z"/>
<g>
	<path style="fill:#E7ECED;" d="M372.117,166.273l-7.6,121.29c-19.845-1.373-20.69-21.006-42.013-21.006
		c-22.168,0-22.168,21.112-44.441,21.112c-22.168,0-22.168-21.112-44.336-21.112s-22.168,21.112-44.23,21.112
		c-21.851,0-22.168-20.479-43.385-21.006l-6.228-100.389H372.117z"/>
	<path style="fill:#E7ECED;" d="M366.839,81.824v42.224H145.161V81.824c0,0,15.834-31.669,110.839-31.669
		S366.839,81.824,366.839,81.824z"/>
</g>
<polygon style="fill:#CED2D4;" points="398.507,124.049 398.507,166.273 372.117,166.273 139.882,166.273 113.492,166.273 
	113.492,124.049 145.161,124.049 366.839,124.049 "/>
<g>
	<polygon style="fill:#E7ECED;" points="308.78,425.279 289.004,467.993 246.291,448.216 266.066,405.422 	"/>
	<polygon style="fill:#E7ECED;" points="250.343,324.615 267.364,370.975 221.003,387.914 204.063,341.635 	"/>
</g>
<path d="M406.438,116.118H374.77V79.952l-0.837-1.675c-1.793-3.587-19.795-34.267-110.002-35.975V15.862h139.854V0H261.278
	c-8.58,0-13.21,6.806-13.21,13.209v29.093c-90.208,1.708-108.208,32.388-110.001,35.975l-0.838,1.675v36.165h-31.669v58.087h26.867
	l21.117,337.795h204.91l21.111-337.795h26.871V116.118z M358.908,84.304v31.814H263.93V58.167
	C333.712,59.553,354.58,79.097,358.908,84.304z M153.092,84.255c1.682-2.026,6.134-6.535,15.408-11.171
	c12.902-6.452,37.017-14.066,79.569-14.917v57.95h-94.977L153.092,84.255L153.092,84.255z M121.423,131.979h126.646v26.364H121.423
	V131.979z M248.069,174.204v87.366c-3.897-1.767-8.549-2.945-14.342-2.945c-14.276,0-21.692,7.08-27.65,12.769
	c-5.074,4.843-8.739,8.343-16.579,8.343c-7.913,0-11.598-3.5-16.698-8.343c-4.638-4.404-10.19-9.668-19.177-11.755l-5.3-85.435
	H248.069z M168.444,496.138l-13.74-219.153c2.487,1.469,4.653,3.52,7.171,5.912c5.96,5.66,13.377,12.703,27.621,12.703
	c14.195,0,21.59-7.06,27.532-12.732c5.097-4.865,8.779-8.38,16.698-8.38c7.912,0,11.597,3.51,16.698,8.368
	c5.962,5.677,13.381,12.745,27.638,12.745c14.317,0,21.762-7.072,27.742-12.756c5.105-4.852,8.794-8.356,16.698-8.356
	c7.887,0,11.578,3.51,16.688,8.368c4.23,4.02,9.264,8.785,16.975,11.177l-12.613,202.106H168.444V496.138z M357.217,277.242
	c-2.441-1.466-4.588-3.498-7.098-5.883c-5.967-5.672-13.394-12.733-27.617-12.733c-14.238,0-21.66,7.052-27.624,12.718
	c-5.129,4.873-8.834,8.394-16.817,8.394c-6.533,0-10.185-2.396-14.132-5.966v-99.567h99.743L357.217,277.242z M390.576,158.342
	H263.93v-26.364h126.646V158.342z"/>
<path d="M255.053,314.433l-61.159,22.493l22.385,61.159l61.267-22.385L255.053,314.433z M214.234,346.345l31.399-11.548
	l11.547,31.455l-31.454,11.492L214.234,346.345z"/>
<path d="M235.767,452.084l57.103,26.438l26.435-57.096l-57.102-26.546L235.767,452.084z M298.257,429.132l-13.117,28.33
	l-28.325-13.114l13.117-28.385L298.257,429.132z"/>
<g>
	<rect x="292.948" y="311.401" style="fill:#FFFFFF;" width="21.112" height="15.862"/>
	<rect x="314.055" y="343.072" style="fill:#FFFFFF;" width="21.112" height="15.862"/>
	<rect x="176.828" y="416.967" style="fill:#FFFFFF;" width="21.112" height="15.862"/>
	<rect x="197.946" y="448.638" style="fill:#FFFFFF;" width="21.112" height="15.862"/>
</g>
<g>
</g>
<g>
</g>
<g>
</g>
<g>
</g>
<g>
</g>
<g>
</g>
<g>
</g>
<g>
</g>
<g>
</g>
<g>
</g>
<g>
</g>
<g>
</g>
<g>
</g>
<g>
</g>
<g>
</g>
</svg>
