<?xml version="1.0" encoding="iso-8859-1"?>
<!-- Generator: Adobe Illustrator 19.0.0, SVG Export Plug-In . SVG Version: 6.00 Build 0)  -->
<svg version="1.1" id="Layer_1" xmlns="http://www.w3.org/2000/svg" xmlns:xlink="http://www.w3.org/1999/xlink" x="0px" y="0px"
	 viewBox="0 0 511.999 511.999" style="enable-background:new 0 0 511.999 511.999;" xml:space="preserve">
<path style="fill:#A26234;" d="M176.828,472.4h-36.947V197.942c23.224,0,23.224,21.112,46.447,21.112
	c23.118,0,23.118-21.112,46.341-21.112c23.224,0,23.224,21.112,46.447,21.112c23.224,0,23.224-21.112,46.553-21.112
	c23.223,0,23.223,21.112,46.447,21.112v253.347h-36.947v31.669H176.828V472.4z"/>
<path style="fill:#875228;" d="M325.67,197.942c-23.329,0-23.329,21.112-46.553,21.112s-23.224-21.112-46.447-21.112
	s-23.223,21.112-46.341,21.112c-23.224,0-23.224-21.112-46.447-21.112v116.118c23.224,0,23.224,21.112,46.447,21.112
	c23.118,0,23.118-21.112,46.341-21.112c23.224,0,23.224,21.112,46.447,21.112c23.224,0,23.224-21.112,46.553-21.112
	c23.224,0,23.224,21.112,46.447,21.112V219.054C348.893,219.054,348.893,197.942,325.67,197.942z"/>
<g>
	<path style="fill:#E7ECED;" d="M372.117,60.712v158.342c-23.224,0-23.224-21.112-46.447-21.112
		c-23.329,0-23.329,21.112-46.553,21.112c-23.223,0-23.223-21.112-46.447-21.112c-23.223,0-23.223,21.112-46.341,21.112
		c-23.224,0-23.224-21.112-46.447-21.112V60.712H372.117z"/>
	<polygon style="fill:#E7ECED;" points="318.703,385.102 292.946,440.732 237.315,414.975 263.073,359.239 	"/>
	<polygon style="fill:#E7ECED;" points="242.593,253.995 264.762,314.376 204.381,336.437 182.318,276.162 	"/>
</g>
<path d="M263.93,52.781V15.862h87.074V0H248.069v52.781H131.951v427.55h36.947v31.668h174.204v-31.668h36.947V52.781H263.93z
	 M364.186,68.643v141.112c-3.738-1.474-6.552-4.029-9.958-7.126c-6.184-5.621-13.88-12.619-28.558-12.619
	c-14.739,0-22.459,7.004-28.664,12.63c-5.429,4.924-9.351,8.482-17.889,8.482c-7.072,0-10.976-2.444-15.187-6.08V68.643H364.186z
	 M248.069,68.643V193.19c-4.146-1.898-9.132-3.18-15.398-3.18c-14.697,0-22.39,7.01-28.573,12.643
	c-5.396,4.916-9.295,8.469-17.77,8.469c-8.546,0-12.465-3.563-17.889-8.494c-4.959-4.509-10.901-9.893-20.627-11.852V68.643H248.069
	z M327.24,464.469v31.668h-142.48v-15.806h92.352v-15.862H147.813V207.24c3.737,1.474,6.551,4.03,9.958,7.126
	c6.184,5.621,13.88,12.619,28.559,12.619c14.617,0,22.288-6.99,28.452-12.606c5.419-4.938,9.335-8.506,17.889-8.506
	c8.545,0,12.464,3.563,17.889,8.494c6.184,5.621,13.88,12.619,28.558,12.619c14.66,0,22.359-6.983,28.546-12.594
	c5.451-4.945,9.39-8.518,18.006-8.518c8.545,0,12.464,3.563,17.889,8.494c4.96,4.509,10.901,9.893,20.628,11.852V464.47H327.24
	V464.469z"/>
<path d="M247.303,243.811l-75.155,27.641l27.509,75.155l75.287-27.509L247.303,243.811z M192.487,280.872l45.396-16.696
	l16.695,45.476l-45.475,16.616L192.487,280.872z"/>
<path d="M226.791,418.842l70.02,32.419l32.416-70.013l-70.02-32.551L226.791,418.842z M308.179,388.955l-19.098,41.247
	l-41.242-19.096l19.098-41.326L308.179,388.955z"/>
<g>
	<polygon style="fill:#FFFFFF;" points="184.759,139.882 168.898,139.882 168.898,89.728 213.775,89.728 213.775,105.59 
		184.759,105.59 	"/>
	<rect x="287.671" y="258.623" style="fill:#FFFFFF;" width="21.112" height="15.862"/>
	<rect x="308.778" y="290.294" style="fill:#FFFFFF;" width="21.112" height="15.862"/>
	<rect x="319.342" y="248.07" style="fill:#FFFFFF;" width="21.112" height="15.862"/>
	<rect x="171.552" y="427.521" style="fill:#FFFFFF;" width="21.112" height="15.862"/>
	<rect x="192.659" y="395.86" style="fill:#FFFFFF;" width="21.112" height="15.862"/>
	<rect x="160.998" y="374.743" style="fill:#FFFFFF;" width="21.112" height="15.862"/>
</g>
<g>
</g>
<g>
</g>
<g>
</g>
<g>
</g>
<g>
</g>
<g>
</g>
<g>
</g>
<g>
</g>
<g>
</g>
<g>
</g>
<g>
</g>
<g>
</g>
<g>
</g>
<g>
</g>
<g>
</g>
</svg>
