<?xml version="1.0" encoding="iso-8859-1"?>
<!-- Generator: Adobe Illustrator 19.0.0, SVG Export Plug-In . SVG Version: 6.00 Build 0)  -->
<svg version="1.1" id="Layer_1" xmlns="http://www.w3.org/2000/svg" xmlns:xlink="http://www.w3.org/1999/xlink" x="0px" y="0px"
	 viewBox="0 0 511.999 511.999" style="enable-background:new 0 0 511.999 511.999;" xml:space="preserve">
<path style="fill:#A26234;" d="M153.738,342.227h-48.503l-6.574-204.789h1.186c39.449,0,39.449,21.557,79.005,21.557
	s39.557-21.557,79.005-21.557c39.557,0,39.557,21.557,79.113,21.557h0.539l-5.928,183.232h-48.502l10.779,37.724H142.96
	L153.738,342.227z"/>
<path style="fill:#945A2E;" d="M257.857,234.443c38.636,0,39.638,20.509,76.517,21.467l3.135-96.915h-0.539
	c-39.557,0-39.557-21.557-79.113-21.557c-39.449,0-39.449,21.557-79.004,21.557c-39.557,0-39.557-21.557-79.005-21.557h-1.186
	l3.116,97.072c37.442,0.723,38.205,21.49,77.075,21.49C218.408,256,218.408,234.443,257.857,234.443z"/>
<path style="fill:#FFD7A3;" d="M342.359,8.098l-4.85,150.897h-0.539c-39.557,0-39.557-21.557-79.113-21.557
	c-39.449,0-39.449,21.557-79.005,21.557s-39.557-21.557-79.005-21.557h-1.186L94.457,8.098H342.359z"/>
<path style="fill:#E9C596;" d="M94.457,8.098l4.203,129.34h1.186c39.449,0,39.449,21.557,79.005,21.557
	c19.787,0,29.676-5.393,39.557-10.785V8.098H94.457z"/>
<g>
	<polygon style="fill:#FFFFFF;" points="129.522,95.219 123.134,37.724 164.516,37.724 164.516,53.92 141.229,53.92 145.619,93.431 
			"/>
	<rect x="153.741" y="226.342" style="fill:#FFFFFF;" width="21.557" height="16.196"/>
	<rect x="132.179" y="258.68" style="fill:#FFFFFF;" width="21.557" height="16.196"/>
	<rect x="175.292" y="258.68" style="fill:#FFFFFF;" width="21.557" height="16.196"/>
	<rect x="229.181" y="291.018" style="fill:#FFFFFF;" width="21.557" height="16.196"/>
	<rect x="250.743" y="258.68" style="fill:#FFFFFF;" width="21.557" height="16.196"/>
	<rect x="218.405" y="194.015" style="fill:#FFFFFF;" width="21.557" height="16.196"/>
	<rect x="283.081" y="215.567" style="fill:#FFFFFF;" width="21.557" height="16.196"/>
</g>
<polygon style="fill:#AFB6BB;" points="293.857,466.178 304.635,503.902 132.182,503.902 142.96,466.178 196.852,466.178 
	202.241,379.951 234.576,379.951 239.965,466.178 "/>
<g>
	<polygon style="fill:none;" points="337.509,158.995 341.174,45.822 341.713,45.822 380.084,45.822 380.084,185.941 
		336.971,185.941 336.647,185.941 	"/>
	<polygon style="fill:#E7ECED;" points="380.084,185.941 380.084,45.822 341.713,45.822 341.174,45.822 342.359,8.098 
		417.808,8.098 417.808,218.276 336.971,218.276 335.569,218.276 336.647,185.941 336.971,185.941 	"/>
</g>
<path d="M425.906,0H86.093l11.301,350.325h45.61l-10.778,37.724h61.396l-4.377,70.031h-52.392l-15.407,53.919h193.926
	l-15.407-53.919h-52.392l-4.377-70.031h61.397l-10.778-37.724h45.607l3.987-123.951h82.495V0H425.906z M349.014,53.92h22.972
	v123.922h-26.978l0.594-18.585L349.014,53.92z M334.003,16.196l-0.922,29.364l-3.401,105.039c-12.907-1.076-20.182-5.02-28.39-9.492
	c-10.119-5.515-21.59-11.766-43.432-11.766c-21.777,0-33.223,6.246-43.322,11.758c-9.637,5.258-17.958,9.8-35.684,9.8
	s-26.047-4.541-35.684-9.8c-9.011-4.918-19.119-10.409-36.661-11.537l-3.685-113.367H334.003z M232.357,474.277h55.392l6.15,21.527
	H142.916l6.151-21.527h55.391l5.389-86.227h17.119L232.357,474.277z M327.475,218.015l-3.736,116.113h-51.397l10.778,37.724H153.695
	l6.151-21.529h69.34v-16.196H113.078l-6.045-188.301c12.907,1.066,20.176,5.01,28.377,9.486
	c10.118,5.521,21.585,11.779,43.443,11.779s33.325-6.258,43.443-11.779c9.614-5.247,17.918-9.779,35.563-9.779
	c17.715,0,26.041,4.537,35.682,9.791c8.838,4.818,18.709,10.194,35.619,11.479l-0.604,18.866L327.475,218.015z M409.71,210.178
	h-65.768l0.539-16.139h43.702V37.724h-38.652l0.676-21.529h59.504L409.71,210.178L409.71,210.178z"/>
<g>
</g>
<g>
</g>
<g>
</g>
<g>
</g>
<g>
</g>
<g>
</g>
<g>
</g>
<g>
</g>
<g>
</g>
<g>
</g>
<g>
</g>
<g>
</g>
<g>
</g>
<g>
</g>
<g>
</g>
</svg>
