<?xml version="1.0" encoding="iso-8859-1"?>
<!-- Generator: Adobe Illustrator 19.0.0, SVG Export Plug-In . SVG Version: 6.00 Build 0)  -->
<svg version="1.1" id="Layer_1" xmlns="http://www.w3.org/2000/svg" xmlns:xlink="http://www.w3.org/1999/xlink" x="0px" y="0px"
	 viewBox="0 0 512.001 512.001" style="enable-background:new 0 0 512.001 512.001;" xml:space="preserve">
<rect x="195.192" y="8.548" style="fill:#AFB6BB;" width="159.281" height="45.508"/>
<path style="fill:#FFD311;" d="M308.96,139.384c0,0.797,0,1.706-0.114,2.503c-1.251,17.748-15.928,31.628-34.017,31.628
	c-17.976,0-32.766-13.88-34.018-31.514c-0.114-0.911-0.114-1.706-0.114-2.617c0-18.886,15.245-34.131,34.131-34.131
	C293.714,105.254,308.96,120.499,308.96,139.384z"/>
<path style="fill:#E7ECED;" d="M308.96,141.887c24.12,3.64,46.874,11.035,67.921,21.503c-3.982,47.102-48.125,84.077-102.053,84.077
	c-53.814,0-97.843-36.862-102.053-83.735c20.934-10.695,43.802-18.09,67.921-21.73h0.114c1.251,17.634,16.042,31.514,34.018,31.514
	c18.09,0,32.766-13.88,34.017-31.628h0.115V141.887z"/>
<polygon style="fill:#AFB6BB;" points="53.43,174.312 37.274,190.468 13.155,166.235 85.513,93.876 109.747,117.995 93.591,134.151 
	"/>
<path style="fill:#36C63F;" d="M479.617,457.944v45.508H66.399v-45.508c-12.287-27.874-19.113-58.592-19.113-91.017
	c0-55.52,19.91-106.262,52.904-145.742l-46.76-46.874l40.161-40.161l48.353,48.353c4.323-3.185,8.874-6.144,13.425-8.987
	c5.688-3.527,11.491-6.827,17.407-9.784c4.21,46.874,48.239,83.735,102.053,83.735c53.927,0,98.071-36.976,102.053-84.077
	c5.916,3.071,11.718,6.257,17.407,9.784c64.85,40.161,108.082,111.837,108.082,193.753c0,32.425-6.827,63.143-19.113,91.017H479.617
	z"/>
<g>
	<path style="fill:#00AC4E;" d="M394.288,173.175c-5.688-3.527-11.491-6.713-17.407-9.784
		c-2.149,25.432-16.073,47.846-36.859,63.147c30.378,38.677,48.577,87.355,48.577,140.39c0,32.425-6.826,63.144-19.113,91.017
		h-3.641v45.508h113.771v-45.508h3.641c12.288-27.873,19.113-58.592,19.113-91.017C502.371,285.012,459.138,213.336,394.288,173.175
		z"/>
	<rect x="66.397" y="457.944" style="fill:#00AC4E;" width="413.212" height="45.508"/>
</g>
<path d="M480.074,250.16c-18.758-32.904-45.409-61.036-77.238-81.658V35.853c0-8.508-7.335-13.098-14.237-13.098h-25.583V0H186.642
	v22.755h-25.585c-6.902,0-14.236,4.591-14.236,13.098v132.961c-1.255,0.808-2.563,1.664-3.91,2.569l-37.232-37.232l16.17-16.17
	l-36.35-36.179L1.081,166.22l36.179,36.35l16.163-16.163l35.295,35.381c-32.282,41.353-49.978,92.586-49.978,145.139
	c0,32.208,6.43,63.419,19.113,92.8v52.273h430.313v-45.51h0.667l2.249-5.1c13.164-29.865,19.839-61.647,19.839-94.465
	C510.919,325.934,500.253,285.557,480.074,250.16z M203.737,17.095h142.185v28.413H203.737V17.095z M186.642,39.85v22.754h176.375
	V39.85h22.725v116.601h-3.687c-0.411-0.215-0.813-0.427-1.234-0.646l-0.133-0.067c-20.209-10.05-41.523-17.135-63.454-21.125
	c-2.382-21.294-20.486-37.906-42.405-37.906c-21.959,0-40.091,16.672-42.42,38.022c-22.279,4.049-43.614,11.222-63.456,21.359
	c-0.235,0.117-0.471,0.245-0.705,0.364h-4.331V39.85H186.642z M233.995,151.813c2.217,7.31,6.356,13.783,11.822,18.845h-27.874
	v17.095h113.771v-17.095h-27.906c5.49-5.085,9.643-11.598,11.862-18.955c17.866,3.379,35.282,8.992,51.95,16.73
	c-3.033,18.341-12.987,35.241-28.487,48.076c-17.454,14.452-40.292,22.412-64.305,22.412c-23.946,0-46.74-7.931-64.186-22.334
	c-15.484-12.781-25.472-29.618-28.584-47.889C198.473,160.896,215.886,155.232,233.995,151.813z M249.245,139.384
	c0-14.107,11.477-25.583,25.583-25.583c14.107,0,25.583,11.477,25.583,25.583c0,0.399-0.092,1.902-0.092,1.902
	c-0.952,13.501-11.911,23.681-25.491,23.681c-13.356,0-24.553-10.354-25.492-23.572
	C249.336,141.396,249.245,140.157,249.245,139.384z M25.228,166.25l60.299-60.299l12.117,12.06l-60.356,60.356L25.228,166.25z
	 M477.607,449.397H166.746v17.095h304.323v28.413H74.947v-38.762l-0.726-1.648c-12.201-27.678-18.388-57.141-18.388-87.569
	c0-51.162,18.082-100.974,50.915-140.26l5.007-5.99L65.51,174.319l28.08-28.08l47.506,47.506l5.917-4.359
	c4.503-3.318,9.252-6.35,12.859-8.605c2.187-1.356,4.313-2.614,6.418-3.829c4.715,20.214,16.3,38.644,33.469,52.818
	c20.502,16.925,47.162,26.246,75.07,26.246c27.985,0,54.694-9.354,75.207-26.339c17.189-14.232,28.741-32.729,33.381-53.017
	c2.241,1.279,4.351,2.531,6.371,3.783c31.209,19.328,57.294,46.363,75.434,78.185c18.711,32.821,28.601,70.271,28.601,108.301
	C493.824,395.494,488.372,423.209,477.607,449.397z"/>
<path style="fill:#FFFFFF;" d="M102.297,444.859c-24.452-46.457-27.046-97.351-7.505-147.183
	c14.652-37.363,36.359-60.766,37.275-61.744l12.471,11.692l-6.236-5.845l6.243,5.839c-0.205,0.22-20.663,22.384-34.057,56.86
	C92.803,350,95.137,394.553,117.424,436.898L102.297,444.859z"/>
<g>
</g>
<g>
</g>
<g>
</g>
<g>
</g>
<g>
</g>
<g>
</g>
<g>
</g>
<g>
</g>
<g>
</g>
<g>
</g>
<g>
</g>
<g>
</g>
<g>
</g>
<g>
</g>
<g>
</g>
</svg>
