<?xml version="1.0" encoding="iso-8859-1"?>
<!-- Generator: Adobe Illustrator 19.0.0, SVG Export Plug-In . SVG Version: 6.00 Build 0)  -->
<svg version="1.1" id="Layer_1" xmlns="http://www.w3.org/2000/svg" xmlns:xlink="http://www.w3.org/1999/xlink" x="0px" y="0px"
	 viewBox="0 0 512 512" style="enable-background:new 0 0 512 512;" xml:space="preserve">
<polygon style="fill:#546A79;" points="381.539,287.669 381.539,472.401 318.203,472.401 328.759,504.069 170.417,504.069 
	180.972,472.401 117.636,472.401 117.636,287.669 "/>
<polygon style="fill:#30404B;" points="281.256,34.321 281.256,7.931 217.919,7.931 217.919,34.321 59.576,34.321 96.523,81.824 
	117.636,287.669 381.539,287.669 413.208,34.321 "/>
<rect x="117.64" y="287.664" style="fill:#40535F;" width="263.904" height="47.503"/>
<polygon style="fill:#475B69;" points="217.919,7.931 217.919,34.321 59.576,34.321 96.523,81.824 117.636,287.669 249.588,287.669 
	249.588,7.931 "/>
<g>
	<rect x="241.656" y="65.994" style="fill:#FFFFFF;" width="15.862" height="190.01"/>
	<rect x="315.549" y="65.994" style="fill:#FFFFFF;" width="15.862" height="190.01"/>
	<rect x="167.762" y="65.994" style="fill:#FFFFFF;" width="15.862" height="190.01"/>
	<rect x="241.656" y="361.558" style="fill:#FFFFFF;" width="15.862" height="84.447"/>
	<rect x="315.549" y="361.558" style="fill:#FFFFFF;" width="15.862" height="84.447"/>
	<rect x="167.762" y="361.558" style="fill:#FFFFFF;" width="15.862" height="84.447"/>
</g>
<rect x="334.033" y="327.244" width="21.113" height="15.862"/>
<path d="M289.187,26.39V0h-79.198v26.39H43.361l45.505,58.506l20.839,203.182v192.253h60.264L159.413,512h180.35l-10.556-31.669
	h60.264V288.163l30.739-245.913h32.57v192.256c-0.446,4.349-6.461,55.786-39.571,55.786v15.862
	c20.724,0,36.944-12.638,46.906-36.549c6.996-16.791,8.44-33.363,8.499-34.06l0.027-209.156H289.187V26.39z M307.198,464.47
	l10.556,31.669H181.419l10.555-31.669h-66.409V343.101h192.636V327.24H125.567v-31.641h248.042V464.47H307.198z M374.538,279.738
	H124.795L104.18,78.751L75.792,42.252h150.057v-26.39h47.475v26.39h130.899L374.538,279.738z"/>
<g>
</g>
<g>
</g>
<g>
</g>
<g>
</g>
<g>
</g>
<g>
</g>
<g>
</g>
<g>
</g>
<g>
</g>
<g>
</g>
<g>
</g>
<g>
</g>
<g>
</g>
<g>
</g>
<g>
</g>
</svg>
