<?xml version="1.0" encoding="iso-8859-1"?>
<!-- Generator: Adobe Illustrator 19.0.0, SVG Export Plug-In . SVG Version: 6.00 Build 0)  -->
<svg version="1.1" id="Layer_1" xmlns="http://www.w3.org/2000/svg" xmlns:xlink="http://www.w3.org/1999/xlink" x="0px" y="0px"
	 viewBox="0 0 511.999 511.999" style="enable-background:new 0 0 511.999 511.999;" xml:space="preserve">
<path style="fill:#DBDFE1;" d="M362.66,216.002v287.984H149.339V194.67c21.332,0,21.332,21.332,42.664,21.332
	c21.225,0,21.225-21.332,42.557-21.332s21.332,21.332,42.664,21.332s21.332-21.332,42.771-21.332
	C341.328,194.67,341.328,216.002,362.66,216.002z"/>
<path style="fill:#E7ECED;" d="M319.996,194.67c-21.439,0-21.439,21.332-42.771,21.332s-21.332-21.332-42.664-21.332
	s-21.332,21.332-42.557,21.332c-21.332,0-21.332-21.332-42.664-21.332v85.328c21.332,0,21.332,21.332,42.664,21.332
	c21.225,0,21.225-21.332,42.557-21.332s21.332,21.332,42.664,21.332s21.332-21.332,42.771-21.332
	c21.332,0,21.332,21.332,42.664,21.332v-85.328C341.328,216.002,341.328,194.67,319.996,194.67z"/>
<path style="fill:#595E62;" d="M330.661,18.68v26.665h-26.665h-95.995h-26.665V18.68c0-5.866,4.8-10.667,10.665-10.667h127.993
	C325.862,8.014,330.661,12.813,330.661,18.68z"/>
<rect x="207.999" y="45.346" style="fill:#DBDFE1;" width="95.992" height="47.997"/>
<path style="fill:#AFB6BB;" d="M309.329,93.342l53.331,26.665v95.995c-21.332,0-21.332-21.332-42.664-21.332
	c-21.439,0-21.439,21.332-42.771,21.332s-21.332-21.332-42.664-21.332s-21.332,21.332-42.557,21.332
	c-21.332,0-21.332-21.332-42.664-21.332v-74.663l53.331-26.665h5.333h95.995H309.329z"/>
<path d="M312.01,85.723V53.357h26.666V18.679c0-10.3-8.38-18.679-18.679-18.679H192.002c-10.3,0-18.679,8.38-18.679,18.679v34.678
	h26.665v32.365l-58.662,29.332v396.945h229.348V115.054L312.01,85.723z M189.35,18.679c0-1.438,1.215-2.652,2.652-2.652h127.994
	c1.438,0,2.652,1.215,2.652,2.652V37.33H189.35V18.679z M295.983,53.357v31.971h-79.968V53.357H295.983z M204.56,101.355h102.877
	l47.209,23.605v81.143c-2.669-1.46-4.906-3.689-7.651-6.434c-5.799-5.798-13.014-13.013-26.999-13.013
	c-14.046,0-21.287,7.223-27.105,13.026c-5.014,5.002-8.327,8.305-15.666,8.305c-7.347,0-10.656-3.31-15.665-8.319
	c-5.799-5.798-13.014-13.013-26.999-13.013c-14.004,0-21.218,7.231-27.013,13.041c-4.98,4.993-8.271,8.291-15.545,8.291
	c-7.347,0-10.656-3.31-15.665-8.319c-4.57-4.569-10.035-10.004-18.986-12.108v-62.601L204.56,101.355z M157.353,495.973V204.568
	c2.669,1.46,4.906,3.689,7.651,6.434c5.799,5.798,13.014,13.013,26.999,13.013c13.924,0,21.115-7.208,26.892-13
	c5.005-5.016,8.311-8.332,15.666-8.332c7.347,0,10.656,3.31,15.665,8.319c5.799,5.798,13.014,13.013,26.999,13.013
	c13.966,0,21.185-7.2,26.984-12.985c5.039-5.026,8.367-8.347,15.787-8.347c7.347,0,10.656,3.31,15.665,8.319
	c4.57,4.569,10.035,10.004,18.986,12.108v272.862H157.353V495.973z"/>
<g>
	<polygon style="fill:#FFFFFF;" points="194.683,178.671 178.656,178.671 178.656,142.022 220.026,118.383 227.977,132.297 
		194.683,151.323 	"/>
	<rect x="186.673" y="442.637" style="fill:#FFFFFF;" width="21.332" height="16.027"/>
	<rect x="218.673" y="410.647" style="fill:#FFFFFF;" width="21.332" height="16.027"/>
	<rect x="240" y="442.637" style="fill:#FFFFFF;" width="21.332" height="16.027"/>
	<rect x="303.991" y="239.99" style="fill:#FFFFFF;" width="21.333" height="16.027"/>
	<rect x="272.001" y="261.317" style="fill:#FFFFFF;" width="21.332" height="16.027"/>
	<rect x="303.991" y="293.318" style="fill:#FFFFFF;" width="21.333" height="16.027"/>
</g>
<g>
</g>
<g>
</g>
<g>
</g>
<g>
</g>
<g>
</g>
<g>
</g>
<g>
</g>
<g>
</g>
<g>
</g>
<g>
</g>
<g>
</g>
<g>
</g>
<g>
</g>
<g>
</g>
<g>
</g>
</svg>
