<?xml version="1.0" encoding="iso-8859-1"?>
<!-- Generator: Adobe Illustrator 19.0.0, SVG Export Plug-In . SVG Version: 6.00 Build 0)  -->
<svg version="1.1" id="Layer_1" xmlns="http://www.w3.org/2000/svg" xmlns:xlink="http://www.w3.org/1999/xlink" x="0px" y="0px"
	 viewBox="0 0 512 512" style="enable-background:new 0 0 512 512;" xml:space="preserve">
<rect x="345.039" y="153.053" style="fill:#00ABD5;" width="66.779" height="267.119"/>
<polygon style="fill:#D7DCDD;" points="333.909,8.362 333.909,47.316 267.129,47.316 178.09,47.316 178.09,8.362 "/>
<polygon style="fill:#C3C7C9;" points="267.129,47.316 300.518,102.965 100.182,102.965 155.831,47.316 178.09,47.316 "/>
<polygon style="fill:#B2B5B8;" points="361.733,47.316 411.817,102.965 300.518,102.965 267.129,47.316 333.909,47.316 "/>
<polygon style="fill:#AFB6BB;" points="411.817,420.165 411.817,503.638 300.518,503.638 300.518,347.821 300.518,192.004 
	300.518,102.965 411.817,102.965 411.817,153.049 345.038,153.049 345.038,420.165 "/>
<g>
	<rect x="100.184" y="347.827" style="fill:#C3C7C9;" width="200.336" height="155.818"/>
	<rect x="100.184" y="102.961" style="fill:#C3C7C9;" width="200.336" height="89.036"/>
</g>
<g>
	<rect x="100.184" y="102.961" style="fill:#B6BABC;" width="100.163" height="89.036"/>
	<rect x="100.184" y="347.827" style="fill:#B6BABC;" width="100.163" height="155.818"/>
</g>
<rect x="100.184" y="192.008" style="fill:#E7ECED;" width="200.336" height="155.818"/>
<path style="fill:#FFD311;" d="M200.35,230.958c21.481,0,38.955,17.474,38.955,38.955s-17.474,38.955-38.955,38.955
	s-38.955-17.474-38.955-38.955S178.87,230.958,200.35,230.958z"/>
<g>
	<rect x="183.657" y="411.799" style="fill:#FFFFFF;" width="83.474" height="16.723"/>
	<rect x="244.865" y="450.754" style="fill:#FFFFFF;" width="22.26" height="16.723"/>
</g>
<path d="M365.456,38.955h-23.187V0H169.728v38.955h-17.361L91.82,99.501V512H420.18V99.757L365.456,38.955z M358.009,55.678
	l35.032,38.926h-87.789l-23.354-38.926H358.009z M186.452,16.723h139.094v22.231H186.452V16.723z M159.294,55.678h103.1
	l23.356,38.926H120.368L159.294,55.678z M108.544,111.327h183.613v72.316H108.544V111.327z M108.544,339.459V200.365h183.613
	v139.094H108.544z M108.544,356.183h183.613v139.094H108.544V356.183z M353.399,411.803V161.411h50.056v250.392H353.399z
	 M336.676,144.687v283.839h66.779v66.75H308.88V111.327h94.575v33.361h-66.779V144.687z"/>
<path d="M200.35,222.596c-26.09,0-47.316,21.227-47.316,47.316s21.227,47.315,47.316,47.315s47.315-21.225,47.315-47.315
	S226.44,222.596,200.35,222.596z M200.35,300.505c-16.868,0-30.593-13.723-30.593-30.592s13.724-30.593,30.593-30.593
	s30.592,13.724,30.592,30.593S217.219,300.505,200.35,300.505z"/>
<g>
	<rect x="367.292" y="183.646" style="fill:#FFFFFF;" width="22.26" height="16.723"/>
	<rect x="367.292" y="228.164" style="fill:#FFFFFF;" width="22.26" height="16.723"/>
	<rect x="367.292" y="272.682" style="fill:#FFFFFF;" width="22.26" height="16.724"/>
	<rect x="367.292" y="317.2" style="fill:#FFFFFF;" width="22.26" height="16.723"/>
	<rect x="367.292" y="361.718" style="fill:#FFFFFF;" width="22.26" height="16.723"/>
	<polygon style="fill:#FFFFFF;" points="141.933,164.179 125.209,164.179 125.209,127.993 155.831,127.993 155.831,144.716 
		141.933,144.716 	"/>
</g>
<g>
</g>
<g>
</g>
<g>
</g>
<g>
</g>
<g>
</g>
<g>
</g>
<g>
</g>
<g>
</g>
<g>
</g>
<g>
</g>
<g>
</g>
<g>
</g>
<g>
</g>
<g>
</g>
<g>
</g>
</svg>
