<?xml version="1.0" encoding="iso-8859-1"?>
<!-- Generator: Adobe Illustrator 19.0.0, SVG Export Plug-In . SVG Version: 6.00 Build 0)  -->
<svg version="1.1" id="Layer_1" xmlns="http://www.w3.org/2000/svg" xmlns:xlink="http://www.w3.org/1999/xlink" x="0px" y="0px"
	 viewBox="0 0 512 512" style="enable-background:new 0 0 512 512;" xml:space="preserve">
<path style="fill:#C98F61;" d="M364.417,123.491H87.351H63.259c0-43.246,35.055-78.301,78.301-78.301
	c5.903,0,11.685,0.723,17.226,1.927C172.519,24.349,197.335,9.05,225.884,9.05s53.366,15.299,67.098,38.067
	c5.541-1.204,11.324-1.927,17.226-1.927c43.246,0,78.301,35.055,78.301,78.301H364.417z"/>
<rect x="165.657" y="466.816" style="fill:#AFB6BB;" width="120.466" height="36.139"/>
<polygon style="fill:#595E62;" points="442.718,424.649 442.718,466.811 286.116,466.811 165.652,466.811 9.05,466.811 
	9.05,424.649 93.375,424.649 358.394,424.649 "/>
<path style="fill:#AFB6BB;" d="M502.95,129.514c0,6.023,0,186.718,0,186.718h-96.37v-42.162h48.185c0,0,0-96.972,0-102.755
	c0-5.662-4.337-5.662-4.337-5.662h-43.848V123.49h90.348C496.927,123.491,502.95,123.491,502.95,129.514z"/>
<path style="fill:#553323;" d="M358.394,382.487c0,0-258.996,0-265.019,0s-6.023-6.023-6.023-6.023V243.953
	c46.137,0,46.137,24.093,92.275,24.093c46.258,0,46.258-24.093,92.395-24.093c46.258,0,46.258,24.093,92.395,24.093v108.417
	C364.417,382.487,358.394,382.487,358.394,382.487z"/>
<path style="fill:#A26234;" d="M272.023,243.953c-46.137,0-46.137,24.093-92.395,24.093c-46.137,0-46.137-24.093-92.275-24.093
	v60.232c46.137,0,46.137,24.093,92.275,24.093c46.258,0,46.258-24.093,92.395-24.093c46.257,0,46.257,24.093,92.395,24.093v-60.232
	C318.28,268.047,318.28,243.953,272.023,243.953z"/>
<path style="fill:#704324;" d="M364.417,231.908v36.139c-46.137,0-46.137-24.093-92.395-24.093
	c-46.137,0-46.137,24.093-92.395,24.093c-46.137,0-46.137-24.093-92.275-24.093v-36.139v-36.139
	c46.137,0,46.137,24.093,92.275,24.093c46.258,0,46.258-24.093,92.395-24.093c46.258,0,46.258,24.093,92.395,24.093V231.908z"/>
<path style="fill:#A26234;" d="M364.417,123.491v72.278c-46.137,0-46.137-24.093-92.395-24.093
	c-46.137,0-46.137,24.093-92.395,24.093c-46.137,0-46.137-24.093-92.275-24.093v-48.185
	C87.351,123.491,364.417,123.491,364.417,123.491z"/>
<path style="fill:#E7ECED;" d="M87.351,243.953v132.51c0,0,0,6.023,6.023,6.023s265.019,0,265.019,0s6.023,0,6.023-6.023V268.047
	v-72.278V123.49h24.093h18.069v42.162v108.417v42.162v60.232c0,26.622-21.563,48.185-48.185,48.185H93.375
	c-26.622,0-48.185-21.563-48.185-48.185V123.491h18.069h24.093v48.185v72.277H87.351z"/>
<g>
	<rect x="141.559" y="301.159" style="fill:#FFFFFF;" width="24.093" height="18.101"/>
	<rect x="117.461" y="337.3" style="fill:#FFFFFF;" width="24.092" height="18.101"/>
	<rect x="177.7" y="325.257" style="fill:#FFFFFF;" width="24.092" height="18.101"/>
	<rect x="310.209" y="289.116" style="fill:#FFFFFF;" width="24.092" height="18.101"/>
	<rect x="262.025" y="313.202" style="fill:#FFFFFF;" width="24.092" height="18.101"/>
</g>
<path d="M415.63,325.282H512V129.514c0-9.791-7.766-15.074-15.073-15.074h-99.835c-4.543-43.929-41.773-78.301-86.883-78.301
	c-4.215,0-8.547,0.333-12.938,0.992C280.853,13.766,254.609,0,225.884,0s-54.969,13.766-71.387,37.13
	c-4.391-0.659-8.723-0.992-12.938-0.992c-45.11,0-82.34,34.372-86.883,78.301H36.139v262.024c0,15.126,5.909,28.891,15.527,39.135H0
	v60.263h156.602V512h138.564v-36.139h156.602v-60.263h-51.665c9.617-10.244,15.527-24.009,15.527-39.135V325.282z M493.899,132.54
	v174.641h-78.27v-24.061h48.185V171.315c0-9.556-6.898-14.712-13.387-14.712H415.63v-24.062h78.27V132.54z M415.63,265.02v-90.316
	h30.085v90.316H415.63z M141.56,54.239c4.902,0,10.051,0.579,15.305,1.721l6.328,1.376l3.344-5.545
	c12.724-21.096,34.91-33.69,59.347-33.69s46.624,12.594,59.348,33.69l3.345,5.545l6.327-1.376
	c5.254-1.142,10.403-1.721,15.305-1.721c35.118,0,64.214,26.276,68.662,60.2H72.897C77.345,80.517,106.442,54.239,141.56,54.239z
	 M96.402,253.38c14.89,1.266,23.36,5.661,32.897,10.642c11.736,6.129,25.038,13.073,50.327,13.073
	c25.363,0,38.691-6.951,50.45-13.083c11.327-5.908,21.11-11.009,41.945-11.009c20.926,0,30.729,5.113,42.08,11.033
	c10.251,5.346,21.698,11.314,41.265,12.74v96.659H96.402V253.38z M355.367,258.62c-14.88-1.265-23.352-5.656-32.895-10.632
	c-11.759-6.132-25.089-13.083-50.45-13.083c-25.271,0-38.576,6.939-50.315,13.06c-11.352,5.92-21.155,11.033-42.08,11.033
	c-20.848,0-30.626-5.106-41.949-11.018c-10.25-5.352-21.695-11.327-41.277-12.755v-54.121c14.89,1.266,23.358,5.661,32.897,10.642
	c11.736,6.129,25.038,13.075,50.327,13.075c25.363,0,38.691-6.951,50.45-13.084c11.327-5.908,21.11-11.009,41.945-11.009
	c20.926,0,30.729,5.113,42.08,11.033c10.251,5.346,21.698,11.314,41.265,12.742v54.119H355.367z M355.367,186.343
	c-14.88-1.265-23.352-5.656-32.895-10.632c-11.759-6.134-25.089-13.084-50.45-13.084c-25.272,0-38.576,6.939-50.315,13.06
	c-11.352,5.92-21.155,11.033-42.08,11.033c-20.848,0-30.626-5.106-41.949-11.018c-10.25-5.352-21.695-11.327-41.277-12.755v-30.404
	h258.965v53.801H355.367z M277.066,493.899H174.703v-18.038h102.363V493.899z M433.668,457.761H18.101v-24.062h415.567V457.761z
	 M93.374,415.598c-21.58,0-39.135-17.555-39.135-39.135V132.54h24.062v243.923c0,7.307,5.283,15.073,15.073,15.073h265.02
	c7.307,0,15.073-5.283,15.073-15.073V132.54h24.062v243.923c0,21.58-17.555,39.135-39.135,39.135H93.374z"/>
<g>
	<rect x="135.538" y="78.301" style="fill:#FFFFFF;" width="24.092" height="18.101"/>
	<rect x="183.722" y="66.254" style="fill:#FFFFFF;" width="24.092" height="18.101"/>
	<rect x="231.906" y="42.162" style="fill:#FFFFFF;" width="24.093" height="18.101"/>
	<rect x="292.145" y="78.301" style="fill:#FFFFFF;" width="24.092" height="18.101"/>
</g>
<g>
</g>
<g>
</g>
<g>
</g>
<g>
</g>
<g>
</g>
<g>
</g>
<g>
</g>
<g>
</g>
<g>
</g>
<g>
</g>
<g>
</g>
<g>
</g>
<g>
</g>
<g>
</g>
<g>
</g>
</svg>
