<?xml version="1.0" encoding="iso-8859-1"?>
<!-- Generator: Adobe Illustrator 19.0.0, SVG Export Plug-In . SVG Version: 6.00 Build 0)  -->
<svg version="1.1" id="Layer_1" xmlns="http://www.w3.org/2000/svg" xmlns:xlink="http://www.w3.org/1999/xlink" x="0px" y="0px"
	 viewBox="0 0 511.999 511.999" style="enable-background:new 0 0 511.999 511.999;" xml:space="preserve">
<polygon style="fill:#A58763;" points="442.171,282.18 424.717,503.258 87.283,503.258 69.829,282.18 "/>
<polygon style="fill:#907656;" points="69.829,282.18 87.283,503.258 215.274,503.258 197.821,282.18 "/>
<path style="fill:#A26234;" d="M89.028,200.73c-1.048-7.68-1.745-15.359-1.745-23.272c0-93.202,75.515-168.717,168.717-168.717
	S424.716,84.257,424.716,177.46c0,7.912-0.698,15.592-1.745,23.272h10.472c23.97,0,43.633,19.664,43.633,43.633v37.816h-34.907
	H69.829H34.922v-37.816c0-23.97,19.664-43.633,43.633-43.633h10.473V200.73z"/>
<path style="fill:#845027;" d="M433.444,200.73h-10.473H89.028H78.555c-23.97,0-43.633,19.664-43.633,43.633v37.816h34.908h372.341
	h34.907v-37.816C477.077,220.395,457.413,200.73,433.444,200.73z"/>
<path style="fill:#FFFFFF;" d="M378.174,157.111c-15.714,0-23.893-7.788-30.463-14.047c-5.623-5.355-9.686-9.224-18.407-9.224
	c-8.713,0-12.778,3.863-18.407,9.21c-6.594,6.264-14.799,14.06-30.58,14.06c-15.714,0-23.893-7.788-30.463-14.047
	c-5.623-5.355-9.686-9.224-18.407-9.224c-8.729,0-12.789,3.874-18.406,9.237c-6.549,6.252-14.7,14.033-30.348,14.033
	c-15.714,0-23.893-7.788-30.463-14.047c-5.623-5.355-9.686-9.224-18.407-9.224v-17.484c15.714,0,23.893,7.788,30.463,14.047
	c5.623,5.355,9.686,9.224,18.407,9.224c8.643,0,12.683-3.858,18.275-9.196c6.569-6.271,14.743-14.075,30.479-14.075
	c15.714,0,23.893,7.788,30.463,14.047c5.623,5.355,9.686,9.224,18.407,9.224c8.799,0,12.884-3.881,18.537-9.252
	c6.574-6.246,14.755-14.02,30.449-14.02c15.714,0,23.893,7.788,30.463,14.047c5.623,5.355,9.686,9.224,18.407,9.224V157.111z"/>
<path d="M485.819,244.363c0-28.879-23.496-52.375-52.376-52.375h-0.67c0.463-5.108,0.685-9.86,0.685-14.53
	C433.459,79.607,353.85,0,255.999,0S78.541,79.607,78.541,177.458c0,4.668,0.221,9.421,0.685,14.53h-0.67
	c-28.879,0-52.376,23.496-52.376,52.375v46.558h35.57l17.453,221.078h353.592l17.453-221.078h35.571V244.363z M416.637,494.516
	H95.361L79.288,290.922h353.424L416.637,494.516z M468.335,273.439H43.664v-29.074c0-19.239,15.652-34.891,34.893-34.891h270.529
	V191.99H96.795c-0.518-5.189-0.77-9.931-0.77-14.53c0-88.211,71.764-159.975,159.975-159.975S415.974,89.249,415.974,177.46
	c0,6.742-0.529,13.761-1.664,22.091l-1.353,9.923h20.487c19.239,0,34.893,15.652,34.893,34.891v29.074H468.335z"/>
<g>
	<rect x="247.253" y="317.082" style="fill:#FFFFFF;" width="17.484" height="151.268"/>
	<rect x="340.347" y="317.082" style="fill:#FFFFFF;" width="17.484" height="151.268"/>
	<rect x="154.17" y="317.082" style="fill:#FFFFFF;" width="17.484" height="151.268"/>
	<rect x="81.464" y="238.534" style="fill:#FFFFFF;" width="23.271" height="17.484"/>
	<rect x="407.263" y="238.534" style="fill:#FFFFFF;" width="23.272" height="17.484"/>
	<rect x="128.003" y="226.89" style="fill:#FFFFFF;" width="23.272" height="17.484"/>
	<rect x="244.362" y="40.725" style="fill:#FFFFFF;" width="23.271" height="17.484"/>
	<rect x="279.271" y="75.632" style="fill:#FFFFFF;" width="23.271" height="17.484"/>
</g>
<g>
</g>
<g>
</g>
<g>
</g>
<g>
</g>
<g>
</g>
<g>
</g>
<g>
</g>
<g>
</g>
<g>
</g>
<g>
</g>
<g>
</g>
<g>
</g>
<g>
</g>
<g>
</g>
<g>
</g>
</svg>
