<?xml version="1.0" encoding="iso-8859-1"?>
<!-- Generator: Adobe Illustrator 19.0.0, SVG Export Plug-In . SVG Version: 6.00 Build 0)  -->
<svg version="1.1" id="Layer_1" xmlns="http://www.w3.org/2000/svg" xmlns:xlink="http://www.w3.org/1999/xlink" x="0px" y="0px"
	 viewBox="0 0 512 512" style="enable-background:new 0 0 512 512;" xml:space="preserve">
<polygon style="fill:#E7ECED;" points="502.008,49.883 502.008,342.435 395.626,342.435 395.626,295.893 455.467,295.893 
	455.467,96.426 395.626,96.426 395.626,49.883 "/>
<path style="fill:#F25B22;" d="M395.626,342.435v106.382c0,7.313-5.984,13.298-13.297,13.298H23.289
	c-7.313,0-13.298-5.984-13.298-13.298V129.671h385.635v166.223V342.435z"/>
<polygon style="fill:#F23222;" points="395.626,96.426 395.626,129.671 9.991,129.671 9.991,49.883 395.626,49.883 "/>
<path style="fill:#F05125;" d="M169.564,448.817V129.671H9.991v319.147c0,7.313,5.984,13.298,13.298,13.298h159.573
	C175.549,462.115,169.564,456.13,169.564,448.817z"/>
<rect x="9.991" y="49.883" style="fill:#CD2E1F;" width="159.573" height="79.786"/>
<path d="M512,39.894H0v408.924c0,12.841,10.448,23.288,23.288,23.288h359.04c12.842,0,23.288-10.448,23.288-23.288v-96.391h106.382
	V39.894H512z M405.617,106.417h39.859v179.485h-39.859V106.417z M385.635,59.875v59.805H19.982V59.875H385.635z M382.329,452.125
	H23.288c-1.793,0-3.306-1.515-3.306-3.306V139.661h365.654v309.156C385.635,450.61,384.121,452.125,382.329,452.125z
	 M492.018,332.444h-86.4v-26.56h59.841V86.435h-59.841v-26.56h86.4V332.444z"/>
<g>
	<rect x="53.191" y="162.916" style="fill:#FFFFFF;" width="19.982" height="186.162"/>
	<rect x="53.191" y="375.68" style="fill:#FFFFFF;" width="19.982" height="26.595"/>
	<polygon style="fill:#FFFFFF;" points="359.076,209.458 339.094,209.458 339.094,186.204 315.84,186.204 315.84,166.223 
		359.076,166.223 	"/>
</g>
<g>
</g>
<g>
</g>
<g>
</g>
<g>
</g>
<g>
</g>
<g>
</g>
<g>
</g>
<g>
</g>
<g>
</g>
<g>
</g>
<g>
</g>
<g>
</g>
<g>
</g>
<g>
</g>
<g>
</g>
</svg>
