<?xml version="1.0" encoding="iso-8859-1"?>
<!-- Generator: Adobe Illustrator 19.0.0, SVG Export Plug-In . SVG Version: 6.00 Build 0)  -->
<svg version="1.1" id="Layer_1" xmlns="http://www.w3.org/2000/svg" xmlns:xlink="http://www.w3.org/1999/xlink" x="0px" y="0px"
	 viewBox="0 0 512 512" style="enable-background:new 0 0 512 512;" xml:space="preserve">
<rect x="53.461" y="334.764" style="fill:#704324;" width="343.195" height="67.513"/>
<g>
	<path style="fill:#A26234;" d="M53.462,481.042v-78.764h343.189v101.269c0,0-298.181,0-320.684,0S53.462,481.042,53.462,481.042z"
		/>
	<rect x="53.461" y="233.5" style="fill:#A26234;" width="343.195" height="101.263"/>
</g>
<path style="fill:#704324;" d="M475.416,233.496v270.05h-78.765V402.278v-67.513V233.496H53.462H36.584v-50.635
	c0,0,5.626-16.878,28.13-16.878h191.285h191.286c28.13,0,28.13,28.13,28.13,28.13L475.416,233.496L475.416,233.496z"/>
<path style="fill:#F23222;" d="M255.999,75.967c24.867,0,45.008,20.141,45.008,45.008s-20.141,45.008-45.008,45.008
	s-45.008-20.141-45.008-45.008S231.132,75.967,255.999,75.967z"/>
<rect x="396.655" y="233.5" style="fill:#83502C;" width="78.765" height="270.054"/>
<path d="M447.286,157.529H294.959c8.983-9.568,14.503-22.426,14.503-36.555c0-26.654-19.608-48.811-45.156-52.814
	c0.361-11.079,3.114-28.882,13.306-39.959c6.993-7.6,16.486-11.295,29.022-11.295V0C289.351,0,275.4,5.637,265.17,16.754
	c-14.703,15.98-17.428,39.114-17.748,51.456c-25.414,4.117-44.883,26.206-44.883,52.765c0,14.129,5.52,26.986,14.503,36.555H64.714
	c-28.272,0-35.842,21.734-36.15,22.659l-0.434,1.302v60.459h16.878v239.093c0,12.444,8.244,30.957,30.958,30.957H483.87V194.113
	C483.87,179.407,474.127,157.529,447.286,157.529z M219.445,120.975c0-20.157,16.398-36.556,36.555-36.556
	s36.555,16.399,36.555,36.556s-16.398,36.555-36.555,36.555S219.445,141.132,219.445,120.975z M388.197,241.95v84.362H61.915V241.95
	H388.197z M61.915,343.218h326.282v50.605H61.915V343.218z M75.967,495.093c-12.801,0-13.991-10.809-14.051-14.05v-70.312h326.282
	v84.362H75.967z M466.962,495.093h-61.858v-270.05H45.038v-40.448c1.475-2.898,6.49-10.158,19.677-10.158h382.572
	c18.466,0,19.632,16.438,19.677,19.677V495.093z"/>
<g>
	<path style="fill:#FFFFFF;" d="M362.895,303.836c-16.796,0-25.733-7.295-32.914-13.157c-6.398-5.222-11.451-9.346-22.222-9.346
		c-10.847,0-15.922,4.134-22.348,9.37c-7.183,5.852-16.123,13.135-32.9,13.135c-16.796,0-25.733-7.295-32.914-13.157
		c-6.398-5.222-11.451-9.346-22.222-9.346c-10.781,0-15.83,4.13-22.223,9.359c-7.16,5.857-16.07,13.145-32.8,13.145
		c-16.796,0-25.733-7.295-32.914-13.157c-6.398-5.222-11.451-9.346-22.222-9.346v-16.907c16.796,0,25.733,7.295,32.914,13.157
		c6.398,5.222,11.451,9.346,22.222,9.346c10.697,0,15.727-4.115,22.096-9.324c7.179-5.871,16.111-13.18,32.927-13.18
		c16.796,0,25.733,7.295,32.913,13.157c6.398,5.222,11.451,9.346,22.222,9.346c10.762,0,15.82-4.12,22.222-9.335
		c7.201-5.867,16.164-13.168,33.027-13.168c16.796,0,25.733,7.295,32.913,13.157c6.398,5.222,11.451,9.346,22.222,9.346v16.906
		H362.895z"/>
	<path style="fill:#FFFFFF;" d="M362.895,472.617c-16.797,0-25.733-7.295-32.914-13.157c-6.398-5.222-11.451-9.347-22.222-9.347
		c-10.847,0-15.922,4.134-22.348,9.37c-7.183,5.851-16.123,13.135-32.9,13.135c-16.796,0-25.733-7.295-32.914-13.157
		c-6.398-5.222-11.451-9.347-22.222-9.347c-10.781,0-15.83,4.131-22.223,9.359c-7.16,5.857-16.07,13.146-32.8,13.146
		c-16.796,0-25.733-7.295-32.914-13.157c-6.398-5.222-11.451-9.347-22.222-9.347v-16.907c16.796,0,25.733,7.295,32.914,13.157
		c6.398,5.222,11.451,9.347,22.222,9.347c10.697,0,15.727-4.115,22.096-9.325c7.179-5.871,16.111-13.18,32.927-13.18
		c16.796,0,25.733,7.295,32.913,13.157c6.398,5.222,11.451,9.347,22.222,9.347c10.762,0,15.82-4.12,22.222-9.335
		c7.201-5.868,16.164-13.17,33.027-13.17c16.796,0,25.733,7.295,32.913,13.157c6.398,5.222,11.451,9.347,22.222,9.347v16.907
		H362.895z"/>
	<rect x="87.219" y="360.068" style="fill:#FFFFFF;" width="219.411" height="16.907"/>
	<rect x="329.139" y="360.068" style="fill:#FFFFFF;" width="33.756" height="16.907"/>
</g>
<g>
</g>
<g>
</g>
<g>
</g>
<g>
</g>
<g>
</g>
<g>
</g>
<g>
</g>
<g>
</g>
<g>
</g>
<g>
</g>
<g>
</g>
<g>
</g>
<g>
</g>
<g>
</g>
<g>
</g>
</svg>
