<?xml version="1.0" encoding="iso-8859-1"?>
<!-- Generator: Adobe Illustrator 19.0.0, SVG Export Plug-In . SVG Version: 6.00 Build 0)  -->
<svg version="1.1" id="Layer_1" xmlns="http://www.w3.org/2000/svg" xmlns:xlink="http://www.w3.org/1999/xlink" x="0px" y="0px"
	 viewBox="0 0 512 512" style="enable-background:new 0 0 512 512;" xml:space="preserve">
<path style="fill:#AFB6BB;" d="M342.228,94.324v64.671c0,39.988-27.593,73.724-64.671,83.425v261.483h-43.113V242.42
	c-37.078-9.701-64.67-43.437-64.67-83.425V94.324c0-47.425,38.802-86.227,86.227-86.227S342.228,46.9,342.228,94.324z"/>
<path style="fill:#9CA2A7;" d="M169.773,94.324v64.671c0,39.988,27.593,73.724,64.67,83.425v261.483h20.868V8.115
	C208.202,8.491,169.773,47.131,169.773,94.324z"/>
<path d="M285.655,512h-59.31V248.456c-38.377-12.8-64.669-48.731-64.669-89.461V94.324C161.676,42.313,203.989,0,256,0
	s94.324,42.313,94.324,94.324v64.671c0,40.73-26.294,76.66-64.669,89.461V512z M242.541,495.805h26.919V236.168l6.048-1.583
	c34.516-9.029,58.622-40.114,58.622-75.591v-64.67c0-43.081-35.049-78.129-78.129-78.129s-78.129,35.048-78.129,78.129v64.671
	c0,35.477,24.106,66.56,58.622,75.591l6.048,1.583v259.636H242.541z"/>
<path style="fill:#FFFFFF;" d="M210.206,115.882H194.01c0-21.98,5.314-51.636,30.63-68.091c15.31-9.952,30.711-10.066,31.36-10.066
	l0.045,16.195c-0.118,0.001-11.842,0.221-23.164,7.836C217.836,71.877,210.206,90.088,210.206,115.882z"/>
<g>
</g>
<g>
</g>
<g>
</g>
<g>
</g>
<g>
</g>
<g>
</g>
<g>
</g>
<g>
</g>
<g>
</g>
<g>
</g>
<g>
</g>
<g>
</g>
<g>
</g>
<g>
</g>
<g>
</g>
</svg>
