<?xml version="1.0" encoding="iso-8859-1"?>
<!-- Generator: Adobe Illustrator 19.0.0, SVG Export Plug-In . SVG Version: 6.00 Build 0)  -->
<svg version="1.1" id="Layer_1" xmlns="http://www.w3.org/2000/svg" xmlns:xlink="http://www.w3.org/1999/xlink" x="0px" y="0px"
	 viewBox="0 0 512 512" style="enable-background:new 0 0 512 512;" xml:space="preserve">
<rect x="150.434" y="150.434" style="fill:#009DD3;" width="211.122" height="211.122"/>
<g>
	<polygon style="fill:#91979C;" points="382.674,477.678 382.674,504.069 129.326,504.069 129.326,477.678 150.439,456.566 
		361.561,456.566 	"/>
	<polygon style="fill:#91979C;" points="382.674,7.931 382.674,34.321 361.561,55.433 150.439,55.433 129.326,34.321 129.326,7.931 
			"/>
</g>
<g>
	<rect x="150.434" y="361.567" style="fill:#AFB6BB;" width="211.122" height="95.002"/>
	<rect x="150.434" y="55.432" style="fill:#AFB6BB;" width="211.122" height="95.002"/>
</g>
<rect x="150.434" y="150.434" style="fill:#0092D1;" width="105.566" height="211.122"/>
<g>
	<polygon style="fill:#858B8F;" points="255.999,456.566 150.439,456.566 129.326,477.678 129.326,504.069 234.887,504.069 
		234.887,477.678 	"/>
	<polygon style="fill:#858B8F;" points="234.887,34.321 234.887,7.931 129.326,7.931 129.326,34.321 150.439,55.433 255.999,55.433 
			"/>
</g>
<g>
	<rect x="150.434" y="361.567" style="fill:#9EA5AA;" width="105.566" height="95.002"/>
	<rect x="150.434" y="55.432" style="fill:#9EA5AA;" width="105.566" height="95.002"/>
</g>
<rect x="271.831" y="219.053" style="fill:#CFD1D2;" width="36.947" height="73.893"/>
<rect x="203.223" y="219.053" style="fill:#F1F2F2;" width="68.614" height="73.893"/>
<path d="M390.605,37.606V0H121.395v37.606l21.112,21.112v394.563l-21.112,21.112V512h269.209v-37.606l-21.112-21.112V58.719
	L390.605,37.606z M137.257,15.862h237.485v15.175l-16.466,16.467H153.723l-16.466-16.467V15.862z M353.631,353.631H158.369V158.369
	h195.261V353.631z M353.631,142.508H158.369V63.365h195.261V142.508z M158.369,369.492h195.261v79.142H158.369V369.492z
	 M374.743,496.138H137.257v-15.175l16.466-16.467h204.554l16.466,16.467V496.138z"/>
<path d="M316.711,300.877v-89.755H195.289v89.755L316.711,300.877L316.711,300.877z M279.765,226.984h21.085v58.031h-21.085V226.984
	z M211.15,226.984h52.752v58.031H211.15V226.984z"/>
<g>
	<rect x="176.828" y="95.002" style="fill:#FFFFFF;" width="110.843" height="15.862"/>
	<rect x="303.502" y="95.002" style="fill:#FFFFFF;" width="21.112" height="15.862"/>
	<rect x="213.776" y="401.137" style="fill:#FFFFFF;" width="110.843" height="15.862"/>
	<rect x="176.828" y="401.137" style="fill:#FFFFFF;" width="21.112" height="15.862"/>
	<rect x="319.342" y="321.965" style="fill:#FFFFFF;" width="21.112" height="15.862"/>
	<rect x="171.552" y="321.965" style="fill:#FFFFFF;" width="21.112" height="15.862"/>
	<rect x="319.342" y="174.174" style="fill:#FFFFFF;" width="21.112" height="15.862"/>
	<rect x="171.552" y="174.174" style="fill:#FFFFFF;" width="21.112" height="15.862"/>
</g>
<g>
</g>
<g>
</g>
<g>
</g>
<g>
</g>
<g>
</g>
<g>
</g>
<g>
</g>
<g>
</g>
<g>
</g>
<g>
</g>
<g>
</g>
<g>
</g>
<g>
</g>
<g>
</g>
<g>
</g>
</svg>
