<?xml version="1.0" encoding="iso-8859-1"?>
<!-- Generator: Adobe Illustrator 19.0.0, SVG Export Plug-In . SVG Version: 6.00 Build 0)  -->
<svg version="1.1" id="Layer_1" xmlns="http://www.w3.org/2000/svg" xmlns:xlink="http://www.w3.org/1999/xlink" x="0px" y="0px"
	 viewBox="0 0 512 512" style="enable-background:new 0 0 512 512;" xml:space="preserve">
<polygon style="fill:#BFC4C5;" points="404.039,268.337 404.039,453.385 330.02,453.385 330.02,268.337 379.366,268.337 "/>
<rect x="144.974" y="268.333" style="fill:#D7DCDD;" width="185.051" height="185.051"/>
<polygon style="fill:#D3D5D6;" points="502.731,58.615 502.731,453.385 404.039,453.385 404.039,268.337 379.366,268.337 
	379.366,58.615 "/>
<polygon style="fill:#E7ECED;" points="379.366,58.615 379.366,268.337 330.02,268.337 144.971,268.337 144.971,453.385 
	9.269,453.385 9.269,58.615 "/>
<rect x="9.269" y="58.615" style="fill:#DDE1E2;" width="370.102" height="98.692"/>
<rect x="379.371" y="58.615" style="fill:#C8CBCC;" width="123.372" height="98.692"/>
<rect x="144.974" y="268.333" style="fill:#CBD0D1;" width="185.051" height="61.683"/>
<rect x="330.025" y="268.333" style="fill:#B3B7B8;" width="74.019" height="61.683"/>
<path d="M0,49.346v413.308h512V49.346H0z M154.24,444.117V277.605h166.511v166.511H154.24z M135.703,259.068v185.049H18.537V67.883
	h351.56v191.185H135.703z M394.77,444.117h-55.482V277.605h55.482V444.117z M493.463,444.117h-80.155V259.068h-24.673V67.883
	h104.828L493.463,444.117L493.463,444.117z"/>
<g>
	<polygon style="fill:#FFFFFF;" points="61.715,181.98 43.178,181.98 43.178,92.524 95.625,92.524 95.625,111.062 61.715,111.062 	
		"/>
	<rect x="43.178" y="200.486" style="fill:#FFFFFF;" width="18.537" height="24.674"/>
	<rect x="326.923" y="89.461" style="fill:#FFFFFF;" width="18.537" height="24.673"/>
	<rect x="289.91" y="89.461" style="fill:#FFFFFF;" width="18.537" height="24.673"/>
	<rect x="326.923" y="126.461" style="fill:#FFFFFF;" width="18.537" height="24.673"/>
	<rect x="450.282" y="89.461" style="fill:#FFFFFF;" width="18.537" height="24.673"/>
	<rect x="450.282" y="126.461" style="fill:#FFFFFF;" width="18.537" height="24.673"/>
	<polygon style="fill:#FFFFFF;" points="197.418,354.693 178.881,354.693 178.881,302.246 218.99,302.246 218.99,320.783 
		197.418,320.783 	"/>
	<rect x="178.884" y="373.204" style="fill:#FFFFFF;" width="18.537" height="18.505"/>
</g>
<g>
</g>
<g>
</g>
<g>
</g>
<g>
</g>
<g>
</g>
<g>
</g>
<g>
</g>
<g>
</g>
<g>
</g>
<g>
</g>
<g>
</g>
<g>
</g>
<g>
</g>
<g>
</g>
<g>
</g>
</svg>
