<?xml version="1.0" encoding="iso-8859-1"?>
<!-- Generator: Adobe Illustrator 19.0.0, SVG Export Plug-In . SVG Version: 6.00 Build 0)  -->
<svg version="1.1" id="Layer_1" xmlns="http://www.w3.org/2000/svg" xmlns:xlink="http://www.w3.org/1999/xlink" x="0px" y="0px"
	 viewBox="0 0 512 512" style="enable-background:new 0 0 512 512;" xml:space="preserve">
<polygon style="fill:#717578;" points="290.226,12.857 290.226,104.126 221.774,104.126 221.774,41.379 "/>
<rect x="124.798" y="223.915" style="fill:#00ACD5;" width="262.394" height="199.653"/>
<g>
	<path style="fill:#AFB6BB;" d="M387.2,423.568v57.043c0,12.549-10.267,22.818-22.818,22.818H147.618
		c-12.549,0-22.818-10.267-22.818-22.818v-57.043H387.2z"/>
	<path style="fill:#AFB6BB;" d="M127.995,161.169H90.575v-57.043h131.199h68.452h131.199v57.043h-37.421
		c1.939,3.423,3.194,7.187,3.194,11.409v51.339H124.801v-51.339C124.801,168.356,126.056,164.592,127.995,161.169z"/>
</g>
<rect x="90.57" y="104.123" style="fill:#91979C;" width="330.85" height="57.043"/>
<rect x="124.798" y="223.915" style="fill:#00A2D3;" width="131.197" height="199.653"/>
<g>
	<rect x="273.114" y="286.668" style="fill:#F1F2F2;" width="45.634" height="79.861"/>
	<rect x="193.253" y="286.668" style="fill:#F1F2F2;" width="79.861" height="79.861"/>
</g>
<path d="M429.997,95.554H298.798V0l-85.595,35.664v59.89H82.003v74.186h34.363c-0.091,0.943-0.137,310.872-0.137,310.872
	c0,17.308,14.081,31.388,31.389,31.388h216.764c17.308,0,31.389-14.08,31.389-31.388c0,0-0.046-309.928-0.137-310.872h34.363V95.554
	z M230.345,47.093l51.311-21.379v69.841h-51.31V47.093H230.345z M133.372,232.489h245.256v182.509H133.372V232.489z
	 M364.382,494.858H147.618c-7.856,0-14.247-6.391-14.247-14.245V432.14h245.256v48.472
	C378.629,488.467,372.238,494.858,364.382,494.858z M412.854,152.598h-43.553l7.247,12.795c1.419,2.506,2.081,4.788,2.081,7.184
	v42.768H133.372c0,0,0.111-44.663,0.328-45.605h173.64v-17.142H99.146v-39.901h313.708V152.598z"/>
<path d="M184.681,278.093v97.004H327.32v-97.004H184.681z M201.823,357.954v-62.719h62.719v62.719H201.823z M310.178,357.954
	h-28.493v-62.719h28.493V357.954z"/>
<g>
	<rect x="147.62" y="249.572" style="fill:#FFFFFF;" width="22.818" height="17.142"/>
	<rect x="341.559" y="249.572" style="fill:#FFFFFF;" width="22.818" height="17.142"/>
	<rect x="341.559" y="380.769" style="fill:#FFFFFF;" width="22.818" height="17.142"/>
	<rect x="147.62" y="380.769" style="fill:#FFFFFF;" width="22.818" height="17.142"/>
</g>
<g>
</g>
<g>
</g>
<g>
</g>
<g>
</g>
<g>
</g>
<g>
</g>
<g>
</g>
<g>
</g>
<g>
</g>
<g>
</g>
<g>
</g>
<g>
</g>
<g>
</g>
<g>
</g>
<g>
</g>
</svg>
