<?xml version="1.0" encoding="iso-8859-1"?>
<!-- Generator: Adobe Illustrator 19.0.0, SVG Export Plug-In . SVG Version: 6.00 Build 0)  -->
<svg version="1.1" id="Layer_1" xmlns="http://www.w3.org/2000/svg" xmlns:xlink="http://www.w3.org/1999/xlink" x="0px" y="0px"
	 viewBox="0 0 512 512" style="enable-background:new 0 0 512 512;" xml:space="preserve">
<rect x="223.327" y="8.184" style="fill:#7E8488;" width="65.358" height="38.126"/>
<polygon style="fill:#AFB6BB;" points="288.679,46.31 288.679,89.882 256.001,89.882 223.322,89.882 223.322,46.31 "/>
<rect x="147.074" y="155.235" style="fill:#4B5F6D;" width="217.86" height="348.575"/>
<path style="fill:#2D3D48;" d="M364.931,100.775v54.465h-217.86v-54.465c0,0,0-10.894,16.34-10.894c9.15,0,37.145,0,59.912,0h32.679
	h32.679c22.766,0,50.762,0,59.912,0C364.931,89.882,364.931,100.775,364.931,100.775z"/>
<rect x="147.074" y="155.235" style="fill:#546A79;" width="98.034" height="348.575"/>
<path style="fill:#3C4E5A;" d="M245.108,100.775c0,0,0-10.894,16.34-10.894h-5.446h-32.679c-22.767,0-50.761,0-59.912,0
	c-16.34,0-16.34,10.894-16.34,10.894v54.465h98.037L245.108,100.775L245.108,100.775z"/>
<rect x="190.645" y="215.153" style="fill:#F23222;" width="130.716" height="206.969"/>
<path style="fill:#E7ECED;" d="M256.001,258.723c15.032,0,27.232,12.2,27.232,27.232c0,15.032-12.2,27.232-27.232,27.232
	s-27.232-12.2-27.232-27.232C228.768,270.924,240.969,258.723,256.001,258.723z"/>
<path d="M348.591,81.698h-51.728V0h-81.726v81.698H163.41c-20.118,0-24.524,13.771-24.524,19.076V512h234.228V100.775
	C373.115,95.469,368.709,81.698,348.591,81.698z M356.747,100.775v0.255C356.735,100.868,356.747,100.775,356.747,100.775z
	 M231.506,54.493h48.99v27.205h-48.99L231.506,54.493L231.506,54.493z M280.495,16.368v21.756h-48.99V16.368H280.495z
	 M356.747,495.632H155.255V163.424h201.491V495.632z M155.254,147.055v-46.28c0-0.026,0.864-2.708,8.156-2.708h185.181
	c4.634,0,7.812,1.183,8.156,3.023v45.967H155.254V147.055z"/>
<path d="M329.543,206.967H182.459v223.335h147.084V206.967z M313.175,413.934H198.827V223.335h114.348V413.934z"/>
<path d="M256.001,321.373c19.528,0,35.417-15.888,35.417-35.416c0-19.528-15.888-35.417-35.417-35.417s-35.417,15.889-35.417,35.417
	C220.584,305.485,236.472,321.373,256.001,321.373z M256.001,266.907c10.503,0,19.049,8.545,19.049,19.049
	c0,10.503-8.545,19.048-19.049,19.048s-19.049-8.545-19.049-19.048C236.952,275.452,245.497,266.907,256.001,266.907z"/>
<g>
	<rect x="223.327" y="343.13" style="fill:#FFFFFF;" width="65.358" height="16.368"/>
	<rect x="223.327" y="375.812" style="fill:#FFFFFF;" width="21.786" height="16.368"/>
	<rect x="266.899" y="375.812" style="fill:#FFFFFF;" width="21.786" height="16.368"/>
	<rect x="179.744" y="452.055" style="fill:#FFFFFF;" width="152.496" height="16.368"/>
</g>
<g>
</g>
<g>
</g>
<g>
</g>
<g>
</g>
<g>
</g>
<g>
</g>
<g>
</g>
<g>
</g>
<g>
</g>
<g>
</g>
<g>
</g>
<g>
</g>
<g>
</g>
<g>
</g>
<g>
</g>
</svg>
