<?xml version="1.0" encoding="iso-8859-1"?>
<!-- Generator: Adobe Illustrator 19.0.0, SVG Export Plug-In . SVG Version: 6.00 Build 0)  -->
<svg version="1.1" id="Layer_1" xmlns="http://www.w3.org/2000/svg" xmlns:xlink="http://www.w3.org/1999/xlink" x="0px" y="0px"
	 viewBox="0 0 512 512" style="enable-background:new 0 0 512 512;" xml:space="preserve">
<path style="fill:#4B5F6D;" d="M490.542,148.733c0,5.72,0,177.335,0,177.335h-91.528v-40.044h45.764c0,0,0-92.1,0-97.592
	c0-5.377-4.119-5.377-4.119-5.377h-41.645v-40.044h85.808C484.82,143.013,490.542,143.013,490.542,148.733z"/>
<rect x="170.192" y="469.076" style="fill:#AFB6BB;" width="114.412" height="34.323"/>
<polygon style="fill:#E7ECED;" points="433.336,429.038 433.336,469.081 284.604,469.081 170.194,469.081 21.46,469.081 
	21.46,429.038 101.547,429.038 353.249,429.038 "/>
<path style="fill:#546A79;" d="M399.013,205.938v80.088v40.044v57.205c0,25.285-20.479,45.764-45.764,45.764H101.547
	c-25.285,0-45.764-20.479-45.764-45.764V205.938v-62.925h343.23v40.044v22.881H399.013z"/>
<path style="fill:#4B5F6D;" d="M147.311,383.273V211.659v-5.72v-62.925H55.783v62.925v177.335c0,25.285,20.479,45.764,45.764,45.764
	h91.528C167.79,429.038,147.311,408.558,147.311,383.273z"/>
<rect x="55.783" y="143.007" style="fill:#3A4C57;" width="343.226" height="62.925"/>
<rect x="55.783" y="143.007" style="fill:#2B3B45;" width="91.525" height="62.925"/>
<g>
	<rect x="92.947" y="240.263" style="fill:#FFFFFF;" width="17.191" height="85.808"/>
	<rect x="92.947" y="343.226" style="fill:#FFFFFF;" width="17.191" height="22.882"/>
</g>
<path style="fill:#36C63F;" d="M233.119,194.498c0,0,97.249,137.293,0,137.293S233.119,194.498,233.119,194.498z"/>
<path style="fill:#00B04C;" d="M247.419,217.028c-7.883-13.45-14.302-22.531-14.302-22.531s-97.249,137.293,0,137.293
	c5.376,0,10.065-0.484,14.302-1.277C194.694,320.646,226.296,253.075,247.419,217.028z"/>
<path d="M407.608,334.665h91.528V148.733c0-9.298-7.376-14.316-14.316-14.316H47.188v248.857c0,14.366,5.612,27.439,14.747,37.168
	h-49.07v57.235h148.733V512h131.601v-34.323h148.733v-57.235h-49.068c9.134-9.729,14.747-22.802,14.747-37.168v-48.61H407.608z
	 M481.946,151.608v165.865h-74.337v-22.853h45.764V188.435c0-9.076-6.551-13.973-12.715-13.973h-33.049v-22.852h74.337V151.608z
	 M407.608,277.429v-85.778h28.573v85.778H407.608z M276.007,494.809h-97.219v-17.132h97.219V494.809z M424.741,460.486H30.055
	v-22.853H424.74v22.853H424.741z M101.547,420.441c-20.495,0-37.168-16.674-37.168-37.168v-168.74h65.771v-17.191H64.379v-45.734
	h326.039v45.734h-65.771v17.191h65.771v168.74c0,20.494-16.673,37.168-37.168,37.168H101.547z"/>
<path d="M230.243,108.69h17.191c0-16.767-7.474-25.642-13.48-32.774c-5.459-6.482-9.402-11.165-9.402-21.571
	c0-10.473,3.949-15.152,9.414-21.629c6-7.11,13.468-15.959,13.468-32.716h-17.191c0,10.473-3.949,15.152-9.414,21.629
	c-6,7.11-13.467,15.959-13.467,32.716c0,16.681,7.454,25.532,13.443,32.644C226.285,93.495,230.243,98.198,230.243,108.69z"/>
<path d="M344.653,108.69h17.191c0-16.767-7.474-25.642-13.48-32.774c-5.459-6.482-9.402-11.165-9.402-21.571
	c0-10.473,3.949-15.152,9.415-21.629c6.001-7.11,13.467-15.959,13.467-32.716h-17.191c0,10.473-3.949,15.152-9.415,21.629
	c-6,7.11-13.467,15.959-13.467,32.716c0,16.681,7.454,25.532,13.443,32.645C340.695,93.495,344.653,98.198,344.653,108.69z"/>
<path d="M115.834,108.69h17.191c0-16.767-7.474-25.642-13.48-32.774c-5.459-6.482-9.402-11.165-9.402-21.571
	c0-10.473,3.949-15.152,9.415-21.629c6-7.11,13.467-15.959,13.467-32.716h-17.191c0,10.473-3.949,15.152-9.415,21.629
	c-6,7.11-13.468,15.959-13.468,32.716c0,16.681,7.454,25.532,13.443,32.645C111.874,93.495,115.834,98.198,115.834,108.69z"/>
<path d="M240.133,189.528l-7.014-9.903l-7.014,9.903c-0.614,0.868-15.187,21.534-27.593,47.17
	c-17.483,36.13-21.654,63.527-12.397,81.428c6.559,12.682,19.165,19.979,37.504,21.794c-0.128,7.813,1.343,18.804,8.745,28.284
	c9.297,11.908,24.948,17.944,46.519,17.944v-17.191c-15.936,0-27.003-3.781-32.893-11.237c-4.466-5.652-5.296-12.671-5.192-17.636
	c19.331-1.5,32.551-8.858,39.325-21.958c9.257-17.902,5.086-45.297-12.397-81.428C255.32,211.062,240.747,190.396,240.133,189.528z
	 M264.85,310.235c-4.449,8.598-15.125,12.959-31.731,12.959s-27.282-4.361-31.731-12.959c-6.436-12.439-1.996-35.827,12.504-65.852
	c6.59-13.644,13.974-26.017,19.227-34.308c5.252,8.29,12.638,20.663,19.227,34.308C266.845,274.409,271.286,297.796,264.85,310.235z
	"/>
<rect x="224.528" y="280.306" style="fill:#FFFFFF;" width="17.191" height="22.882"/>
<g>
</g>
<g>
</g>
<g>
</g>
<g>
</g>
<g>
</g>
<g>
</g>
<g>
</g>
<g>
</g>
<g>
</g>
<g>
</g>
<g>
</g>
<g>
</g>
<g>
</g>
<g>
</g>
<g>
</g>
</svg>
