<?xml version="1.0" encoding="iso-8859-1"?>
<!-- Generator: Adobe Illustrator 19.0.0, SVG Export Plug-In . SVG Version: 6.00 Build 0)  -->
<svg version="1.1" id="Layer_1" xmlns="http://www.w3.org/2000/svg" xmlns:xlink="http://www.w3.org/1999/xlink" x="0px" y="0px"
	 viewBox="0 0 512 512" style="enable-background:new 0 0 512 512;" xml:space="preserve">
<g>
	<polygon style="fill:#607889;" points="435.454,472.4 461.845,504.069 50.156,504.069 76.546,472.4 76.546,446.01 435.454,446.01 	
		"/>
	<polygon style="fill:#607889;" points="461.845,7.931 435.454,39.6 435.454,71.268 76.546,71.268 76.546,39.6 50.156,7.931 	"/>
</g>
<rect x="76.55" y="71.262" style="fill:#354752;" width="358.913" height="374.743"/>
<rect x="76.55" y="113.497" style="fill:#546A79;" width="358.913" height="290.294"/>
<g>
	<rect x="245.448" y="105.566" style="fill:#FFFFFF;" width="21.112" height="15.862"/>
	<rect x="287.672" y="105.566" style="fill:#FFFFFF;" width="21.113" height="15.862"/>
	<rect x="329.896" y="105.566" style="fill:#FFFFFF;" width="21.112" height="15.862"/>
	<rect x="372.121" y="105.566" style="fill:#FFFFFF;" width="21.112" height="15.862"/>
	<rect x="203.223" y="105.566" style="fill:#FFFFFF;" width="21.112" height="15.862"/>
	<rect x="160.999" y="105.566" style="fill:#FFFFFF;" width="21.112" height="15.862"/>
	<rect x="118.774" y="105.566" style="fill:#FFFFFF;" width="21.112" height="15.862"/>
	<rect x="245.448" y="395.86" style="fill:#FFFFFF;" width="21.112" height="15.862"/>
	<rect x="287.672" y="395.86" style="fill:#FFFFFF;" width="21.113" height="15.862"/>
	<rect x="329.896" y="395.86" style="fill:#FFFFFF;" width="21.112" height="15.862"/>
	<rect x="372.121" y="395.86" style="fill:#FFFFFF;" width="21.112" height="15.862"/>
	<rect x="203.223" y="395.86" style="fill:#FFFFFF;" width="21.112" height="15.862"/>
	<rect x="160.999" y="395.86" style="fill:#FFFFFF;" width="21.112" height="15.862"/>
	<rect x="118.774" y="395.86" style="fill:#FFFFFF;" width="21.112" height="15.862"/>
</g>
<path style="fill:#36C63F;" d="M256,176.828c0,0,89.728,126.673,0,126.673C166.273,303.503,256,176.828,256,176.828z"/>
<path style="fill:#00B04C;" d="M269.196,197.617c-7.273-12.409-13.195-20.789-13.195-20.789s-89.727,126.673,0,126.673
	c4.961,0,9.287-0.446,13.195-1.178C220.548,293.221,249.706,230.876,269.196,197.617z"/>
<path d="M443.385,42.471L478.777,0H33.223l35.392,42.471v427.058L33.223,512h445.555l-35.392-42.47V42.471z M427.523,438.078H84.477
	V79.2h343.046V438.078z M67.089,15.862h377.823l-17.388,20.865v26.61H84.477v-26.61L67.089,15.862z M444.912,496.138H67.089
	l17.388-20.865v-21.332h343.046v21.332L444.912,496.138z"/>
<path d="M247.235,311.004c-0.118,7.209,1.239,17.349,8.068,26.096c8.578,10.987,23.018,16.557,42.92,16.557v-15.862
	c-14.702,0-24.914-3.489-30.348-10.367c-4.121-5.216-4.887-11.691-4.79-16.272c17.836-1.384,30.033-8.173,36.284-20.259
	c8.541-16.518,4.693-41.794-11.438-75.13c-11.446-23.653-24.892-42.721-25.458-43.522l-6.472-9.138l-6.472,9.138
	c-0.567,0.801-14.012,19.869-25.458,43.522c-16.13,33.335-19.98,58.613-11.437,75.13
	C218.683,302.599,230.314,309.331,247.235,311.004z M238.26,222.857c6.088-12.606,12.913-24.036,17.76-31.685
	c15.494,24.491,40.154,71.37,29.258,92.439c-4.104,7.936-13.954,11.961-29.279,11.961c-15.322,0-25.172-4.023-29.277-11.957
	C220.786,272.138,224.882,250.56,238.26,222.857z"/>
<rect x="248.07" y="256.001" style="fill:#FFFFFF;" width="15.862" height="21.112"/>
<g>
</g>
<g>
</g>
<g>
</g>
<g>
</g>
<g>
</g>
<g>
</g>
<g>
</g>
<g>
</g>
<g>
</g>
<g>
</g>
<g>
</g>
<g>
</g>
<g>
</g>
<g>
</g>
<g>
</g>
</svg>
