<?xml version="1.0" encoding="iso-8859-1"?>
<!-- Generator: Adobe Illustrator 19.0.0, SVG Export Plug-In . SVG Version: 6.00 Build 0)  -->
<svg version="1.1" id="Layer_1" xmlns="http://www.w3.org/2000/svg" xmlns:xlink="http://www.w3.org/1999/xlink" x="0px" y="0px"
	 viewBox="0 0 512 512" style="enable-background:new 0 0 512 512;" xml:space="preserve">
<polygon style="fill:#A58763;" points="376.776,178.539 376.776,504.11 329.515,456.849 256,456.849 182.484,456.849 
	135.224,504.11 135.224,178.539 "/>
<g>
	<polygon style="fill:#766246;" points="376.776,504.11 135.224,504.11 182.484,456.849 256,456.849 329.515,456.849 	"/>
	<polygon style="fill:#766246;" points="376.776,126.028 376.776,178.539 135.224,178.539 135.224,126.028 156.228,105.023 
		355.771,105.023 	"/>
</g>
<polygon style="fill:#8E7555;" points="135.224,178.539 135.224,504.11 182.484,456.849 256,456.849 256,178.539 "/>
<rect x="177.237" y="241.548" style="fill:#36C63F;" width="157.532" height="157.532"/>
<path d="M359.04,97.133h-95.15V0H248.11v97.133h-95.15l-25.627,25.627V512h257.333V122.759L359.04,97.133z M368.886,485.06
	l-36.102-36.102H256h-76.784l-36.102,36.102V186.429h225.772V485.06z M357.727,496.219H154.272l31.479-31.479h140.497
	L357.727,496.219z M143.114,170.649v-41.354l16.382-16.382h88.613v20.977h-23.616v15.781h63.014V133.89H263.89v-20.977h88.613
	l16.382,16.382v41.354L143.114,170.649L143.114,170.649z"/>
<path d="M342.656,233.662H169.342v173.315h173.314V233.662z M326.876,391.196H185.123V249.443h141.753V391.196z"/>
<g>
	<rect x="208.735" y="286.176" style="fill:#FFFFFF;" width="94.515" height="15.781"/>
	<rect x="208.735" y="328.184" style="fill:#FFFFFF;" width="21.004" height="15.781"/>
	<rect x="240.244" y="328.184" style="fill:#FFFFFF;" width="21.005" height="15.781"/>
	<rect x="282.252" y="328.184" style="fill:#FFFFFF;" width="21.004" height="15.781"/>
</g>
<g>
</g>
<g>
</g>
<g>
</g>
<g>
</g>
<g>
</g>
<g>
</g>
<g>
</g>
<g>
</g>
<g>
</g>
<g>
</g>
<g>
</g>
<g>
</g>
<g>
</g>
<g>
</g>
<g>
</g>
</svg>
