<?xml version="1.0" encoding="iso-8859-1"?>
<!-- Generator: Adobe Illustrator 19.0.0, SVG Export Plug-In . SVG Version: 6.00 Build 0)  -->
<svg version="1.1" id="Layer_1" xmlns="http://www.w3.org/2000/svg" xmlns:xlink="http://www.w3.org/1999/xlink" x="0px" y="0px"
	 viewBox="0 0 511.999 511.999" style="enable-background:new 0 0 511.999 511.999;" xml:space="preserve">
<polygon style="fill:#AFB6BB;" points="311.085,463.379 298.123,502.262 155.55,502.262 142.588,463.379 "/>
<polygon style="fill:#595E62;" points="440.696,411.533 440.696,463.379 311.085,463.379 142.588,463.379 12.978,463.379 
	12.978,411.533 71.302,411.533 382.371,411.533 "/>
<polygon style="fill:#AFB6BB;" points="499.021,9.738 499.021,230.078 395.332,230.078 395.332,184.714 453.657,184.714 
	453.657,55.102 395.332,55.102 395.332,9.738 "/>
<g>
	<path style="fill:#D9DEDF;" d="M395.332,74.544v110.17v45.364v168.495c0,7.129-5.832,12.961-12.961,12.961H71.302
		c-7.129,0-12.961-5.832-12.961-12.961V74.544V9.738h336.991v45.364V74.544z"/>
	<path style="fill:#D9DEDF;" d="M162.031,398.573V74.544V9.738H58.341v64.806v324.03c0,7.129,5.832,12.961,12.961,12.961h103.689
		C167.863,411.533,162.031,405.701,162.031,398.573z"/>
</g>
<rect x="58.341" y="9.738" style="fill:#C7CCCE;" width="336.987" height="64.806"/>
<rect x="58.341" y="9.738" style="fill:#B5BABC;" width="123.136" height="64.806"/>
<rect x="123.148" y="197.674" style="fill:#36C63F;" width="116.644" height="90.729"/>
<rect x="123.148" y="145.831" style="fill:#A58763;" width="116.644" height="51.845"/>
<path d="M405.07,239.815h103.689V0H48.604v398.572c0,1.097,0.105,2.168,0.256,3.224H3.24v71.32h132.331l12.961,38.883h156.61
	l12.963-38.883h132.329v-71.32h-45.62c0.151-1.056,0.256-2.127,0.256-3.224V239.815z M405.07,64.838h38.851v110.137H405.07V64.838z
	 M489.283,19.475v200.864H405.07v-25.888h58.326V45.363H405.07V19.475H489.283z M291.104,492.525H162.567l-6.47-19.408h141.475
	L291.104,492.525z M430.957,453.64H22.715v-32.369h408.243v32.369H430.957z M71.302,401.797c-1.748,0-3.223-1.478-3.223-3.224
	V84.281h74.51V64.806H68.08V19.475h103.655v116.617h-58.326v162.049h136.126V136.092H191.21V19.475h194.384v45.331H220.356v19.475
	h165.239v314.291c0,1.748-1.476,3.224-3.223,3.224H71.302V401.797z M132.884,207.413h97.175v71.252h-97.175V207.413z
	 M230.06,187.938h-97.175v-32.371h97.175V187.938z"/>
<g>
	<rect x="155.555" y="233.301" style="fill:#FFFFFF;" width="51.844" height="19.475"/>
	<rect x="327.262" y="113.424" style="fill:#FFFFFF;" width="19.475" height="174.979"/>
	<rect x="327.262" y="307.839" style="fill:#FFFFFF;" width="19.475" height="25.922"/>
</g>
<g>
</g>
<g>
</g>
<g>
</g>
<g>
</g>
<g>
</g>
<g>
</g>
<g>
</g>
<g>
</g>
<g>
</g>
<g>
</g>
<g>
</g>
<g>
</g>
<g>
</g>
<g>
</g>
<g>
</g>
</svg>
