<?xml version="1.0" encoding="iso-8859-1"?>
<!-- Generator: Adobe Illustrator 19.0.0, SVG Export Plug-In . SVG Version: 6.00 Build 0)  -->
<svg version="1.1" id="Layer_1" xmlns="http://www.w3.org/2000/svg" xmlns:xlink="http://www.w3.org/1999/xlink" x="0px" y="0px"
	 viewBox="0 0 512 512" style="enable-background:new 0 0 512 512;" xml:space="preserve">
<rect x="165.657" y="427.658" style="fill:#AFB6BB;" width="120.466" height="36.139"/>
<polygon style="fill:#E7ECED;" points="442.718,385.498 442.718,427.661 286.116,427.661 165.652,427.661 9.05,427.661 
	9.05,385.498 93.375,385.498 358.394,385.498 "/>
<path style="fill:#4B5F6D;" d="M502.95,72.294c0,6.023,0,234.903,0,234.903h-96.37v-42.162h48.185c0,0,0-145.159,0-150.94
	c0-5.662-4.337-5.662-4.337-5.662h-13.732V66.27h60.232C496.927,66.27,502.95,66.27,502.95,72.294z"/>
<path style="fill:#546A79;" d="M45.189,108.433h361.39v156.602v42.162v30.116c0,26.622-21.563,48.185-48.185,48.185H93.375
	c-26.622,0-48.185-21.563-48.185-48.185v-228.88H45.189z"/>
<polygon style="fill:#3A4C57;" points="436.695,66.27 436.695,108.433 406.579,108.433 45.189,108.433 15.073,108.433 
	15.073,48.201 436.695,48.201 "/>
<path style="fill:#4B5F6D;" d="M141.56,337.313V180.711v-72.278h-30.116H45.189v228.88c0,26.622,21.563,48.185,48.185,48.185h96.37
	C163.123,385.498,141.56,363.935,141.56,337.313z"/>
<polygon style="fill:#2B3B45;" points="111.445,48.201 15.073,48.201 15.073,108.433 45.189,108.433 111.445,108.433 "/>
<g>
	<rect x="84.324" y="210.824" style="fill:#FFFFFF;" width="18.101" height="78.301"/>
	<rect x="84.324" y="307.192" style="fill:#FFFFFF;" width="18.101" height="24.093"/>
</g>
<rect x="147.581" y="228.901" style="fill:#36C63F;" width="108.411" height="84.325"/>
<rect x="147.581" y="180.705" style="fill:#A58763;" width="108.411" height="48.185"/>
<path d="M415.63,316.247H512V72.294c0-9.791-7.766-15.074-15.073-15.074h-51.181V39.151H6.023v78.332h30.116v219.83
	c0,15.126,5.909,28.891,15.527,39.135H0v60.263h156.602v36.139h138.564v-36.139h156.602v-60.263h-51.665
	c9.617-10.244,15.527-24.009,15.527-39.135V316.247z M493.899,75.32v222.826h-78.27v-24.061h48.185V114.094
	c0-9.556-6.898-14.712-13.387-14.712h-4.682V75.32H493.899z M445.714,117.483v138.501H415.63V117.483H445.714z M427.645,99.382
	H210.842V57.251h216.804v42.131H427.645z M24.123,57.251h168.617v42.131H24.123V57.251z M277.066,454.749H174.703v-18.038h102.363
	V454.749z M433.668,418.61H18.101v-24.062h415.567V418.61z M93.374,376.448c-21.58,0-39.135-17.555-39.135-39.135V189.761h57.204
	v-18.101H54.239v-54.178h138.501v54.176h-54.208V322.27H265.05v-150.61h-54.208v-54.178H397.53v54.176H292.14v18.101h105.39v147.552
	c0,21.58-17.556,39.135-39.136,39.135H93.374V376.448z M156.633,237.946h90.316v66.224h-90.316V237.946z M246.95,219.846h-90.316
	v-30.085h90.316V219.846z"/>
<rect x="177.7" y="262.013" style="fill:#FFFFFF;" width="48.186" height="18.101"/>
<g>
</g>
<g>
</g>
<g>
</g>
<g>
</g>
<g>
</g>
<g>
</g>
<g>
</g>
<g>
</g>
<g>
</g>
<g>
</g>
<g>
</g>
<g>
</g>
<g>
</g>
<g>
</g>
<g>
</g>
</svg>
