<?xml version="1.0" encoding="iso-8859-1"?>
<!-- Generator: Adobe Illustrator 19.0.0, SVG Export Plug-In . SVG Version: 6.00 Build 0)  -->
<svg version="1.1" id="Layer_1" xmlns="http://www.w3.org/2000/svg" xmlns:xlink="http://www.w3.org/1999/xlink" x="0px" y="0px"
	 viewBox="0 0 512.001 512.001" style="enable-background:new 0 0 512.001 512.001;" xml:space="preserve">
<path style="fill:#E7ECED;" d="M440.878,251.727c0,44.257-13.312,85.328-36.293,119.459c-13.312,20.023-29.922,37.658-49.036,52.335
	v44.371H93.876v-44.371C42.11,384.043,8.548,321.923,8.548,251.727v-68.262h432.33V251.727z"/>
<path style="fill:#D9DEDF;" d="M133.696,251.727v-68.262H8.548v68.262c0,70.197,33.563,132.316,85.328,171.794v44.371h125.148
	v-44.371C167.258,384.043,133.696,321.923,133.696,251.727z"/>
<rect x="93.877" y="422.386" style="fill:#B3B8BA;" width="261.676" height="45.508"/>
<path d="M0,174.916v76.81c0,35.644,8.135,69.724,24.18,101.29c14.619,28.763,35.709,54.505,61.148,74.685v48.738h278.769v-48.752
	c17.41-13.876,32.529-29.988,45.011-47.953h43.147c36.598,0,54.869-30.102,59.416-46.019l0.329-1.151V174.916H0z M350.343,416.741
	l-3.343,2.567v40.037H102.424v-27.275h184.863v-17.096H96.83c-50.702-39.728-79.735-99.054-79.735-163.246v-59.715H432.33v28.413
	H82.499v17.096H432.33v14.206c0,41.182-12.046,80.84-34.863,114.727C384.757,385.572,368.902,402.491,350.343,416.741z
	 M494.904,330.031c-1.988,5.779-12.826,32.607-42.649,32.607H419.97c19.312-33.58,29.456-71.609,29.456-110.911v-59.715h45.479
	V330.031z"/>
<path d="M227.542,143.644h17.096c0-16.673-7.432-25.497-13.404-32.59c-5.428-6.446-9.35-11.103-9.35-21.451
	c0-10.413,3.926-15.067,9.362-21.507c5.966-7.071,13.393-15.87,13.393-32.534h-17.096c0,10.415-3.927,15.068-9.362,21.508
	c-5.966,7.071-13.392,15.87-13.392,32.533c0,16.588,7.413,25.39,13.369,32.463C223.605,128.536,227.542,133.211,227.542,143.644z"/>
<path d="M352.69,143.644h17.096c0-16.673-7.432-25.497-13.404-32.59c-5.428-6.446-9.35-11.103-9.35-21.451
	c0-10.413,3.926-15.067,9.362-21.507c5.966-7.071,13.393-15.87,13.393-32.534H352.69c0,10.415-3.927,15.068-9.362,21.508
	c-5.966,7.071-13.392,15.87-13.392,32.533c0,16.588,7.413,25.39,13.369,32.463C348.754,128.536,352.69,133.211,352.69,143.644z"/>
<path d="M102.394,143.644h17.096c0-16.673-7.432-25.497-13.404-32.59c-5.428-6.446-9.35-11.103-9.35-21.451
	c0-10.413,3.926-15.067,9.362-21.507c5.966-7.071,13.393-15.87,13.393-32.534h-17.096c0,10.415-3.927,15.068-9.362,21.508
	c-5.966,7.071-13.392,15.87-13.392,32.533c0,16.588,7.413,25.39,13.369,32.463C98.458,128.536,102.394,133.211,102.394,143.644z"/>
<path style="fill:#FFFFFF;" d="M100.125,378.024c-47.829-35.871-59.745-121.539-60.23-125.168l-0.075-0.562v-34.698h17.096v33.522
	c1.045,7.051,13.169,83.008,53.467,113.231L100.125,378.024z"/>
<g>
</g>
<g>
</g>
<g>
</g>
<g>
</g>
<g>
</g>
<g>
</g>
<g>
</g>
<g>
</g>
<g>
</g>
<g>
</g>
<g>
</g>
<g>
</g>
<g>
</g>
<g>
</g>
<g>
</g>
</svg>
