<?xml version="1.0" encoding="iso-8859-1"?>
<!-- Generator: Adobe Illustrator 19.0.0, SVG Export Plug-In . SVG Version: 6.00 Build 0)  -->
<svg version="1.1" id="Layer_1" xmlns="http://www.w3.org/2000/svg" xmlns:xlink="http://www.w3.org/1999/xlink" x="0px" y="0px"
	 viewBox="0 0 512.001 512.001" style="enable-background:new 0 0 512.001 512.001;" xml:space="preserve">
<polygon style="fill:#AFB6BB;" points="368.134,383.993 362.14,502.619 149.86,502.619 143.992,383.993 "/>
<polygon style="fill:#E7ECED;" points="380.87,128.009 376.875,209.174 368.134,383.993 143.992,383.993 135.251,209.174 
	131.13,128.009 "/>
<polygon style="fill:#A3A9AE;" points="143.992,383.993 149.86,502.619 249.757,502.619 243.888,383.993 "/>
<polygon style="fill:#D9DEDF;" points="235.147,209.174 231.027,128.009 131.13,128.009 135.251,209.174 143.992,383.993 
	243.888,383.993 "/>
<polygon style="fill:#AFB6BB;" points="405.845,65.574 405.845,128.009 380.87,128.009 131.13,128.009 106.156,128.009 
	106.156,65.574 143.617,65.574 368.383,65.574 "/>
<polygon style="fill:#E7ECED;" points="355.896,9.381 368.383,65.574 143.617,65.574 156.104,9.381 "/>
<rect x="187.316" y="437.049" style="fill:#FFFFFF;" width="137.356" height="18.763"/>
<rect x="212.295" y="209.168" style="fill:#A58763;" width="87.41" height="43.705"/>
<rect x="212.295" y="252.873" style="fill:#36C63F;" width="87.41" height="93.653"/>
<path d="M415.226,56.192h-39.317L363.422,0H148.579l-12.487,56.192H96.775v81.198h25.439l3.668,72.253l8.741,174.813l6.309,127.545
	h230.127l6.444-127.535l8.741-174.831l3.557-72.246h25.425L415.226,56.192L415.226,56.192z M163.629,18.763h184.741l8.317,37.429
	H155.312L163.629,18.763z M158.79,493.237l-4.941-99.865h204.417l-5.046,99.865H158.79z M367.505,208.705l-8.294,165.906H152.916
	l-8.297-165.912l-3.62-71.309h105.62v62.403h-43.705v156.12h106.173v-156.12h-43.705V137.39h105.635L367.505,208.705z
	 M221.677,262.259h68.647v74.89h-68.647V262.259z M290.323,243.496h-68.647v-24.941h68.647V243.496z M396.464,118.627H115.538
	V74.955h280.926V118.627z"/>
<g>
	<rect x="237.275" y="293.451" style="fill:#FFFFFF;" width="37.461" height="18.763"/>
	<rect x="168.59" y="156.082" style="fill:#FFFFFF;" width="24.973" height="18.763"/>
	<rect x="318.43" y="156.082" style="fill:#FFFFFF;" width="24.973" height="18.763"/>
</g>
<g>
</g>
<g>
</g>
<g>
</g>
<g>
</g>
<g>
</g>
<g>
</g>
<g>
</g>
<g>
</g>
<g>
</g>
<g>
</g>
<g>
</g>
<g>
</g>
<g>
</g>
<g>
</g>
<g>
</g>
</svg>
