<?xml version="1.0" encoding="iso-8859-1"?>
<!-- Generator: Adobe Illustrator 19.0.0, SVG Export Plug-In . SVG Version: 6.00 Build 0)  -->
<svg version="1.1" id="Layer_1" xmlns="http://www.w3.org/2000/svg" xmlns:xlink="http://www.w3.org/1999/xlink" x="0px" y="0px"
	 viewBox="0 0 512.001 512.001" style="enable-background:new 0 0 512.001 512.001;" xml:space="preserve">
<path style="fill:#A58763;" d="M85.344,164.353c-41.715,0-75.847-34.131-75.847-75.847s34.131-75.847,75.847-75.847h341.311
	c41.715,0,75.847,34.131,75.847,75.847s-34.131,75.847-75.847,75.847v334.991H85.344V164.353z"/>
<path style="fill:#9A7E5C;" d="M237.038,12.659H85.344c-41.715,0-75.847,34.131-75.847,75.847s34.131,75.847,75.847,75.847v334.991
	h151.694V164.353"/>
<path style="fill:#D6B68B;" d="M502.503,88.506c0-41.715-34.131-75.847-75.847-75.847H85.344c-41.715,0-75.847,34.131-75.847,75.847
	s34.131,75.847,75.847,75.847h341.311C468.372,164.353,502.503,130.221,502.503,88.506z"/>
<path style="fill:#CBAD84;" d="M173.833,88.506c0-41.715,34.131-75.847,75.847-75.847H85.344c-41.715,0-75.847,34.131-75.847,75.847
	s34.131,75.847,75.847,75.847H249.68C207.964,164.353,173.833,130.221,173.833,88.506z"/>
<path d="M426.656,3.161H85.346C38.285,3.161,0,41.446,0,88.506c0,43.85,33.239,80.081,75.848,84.819V508.84h360.305V173.326
	c42.608-4.737,75.848-40.97,75.848-84.819C512,41.446,473.715,3.161,426.656,3.161z M426.656,154.855h-9.497v334.991H94.843V173.85
	h268.608v-18.995H85.346c-36.586,0-66.351-29.764-66.351-66.349S48.76,22.155,85.346,22.155h341.31
	c36.586,0,66.351,29.765,66.351,66.351S463.24,154.855,426.656,154.855z"/>
<g>
	<rect x="116.946" y="199.093" style="fill:#FFFFFF;" width="25.282" height="18.995"/>
	<rect x="116.946" y="249.67" style="fill:#FFFFFF;" width="25.282" height="18.995"/>
	<rect x="154.872" y="224.382" style="fill:#FFFFFF;" width="25.282" height="18.995"/>
	<rect x="369.768" y="439.278" style="fill:#FFFFFF;" width="25.282" height="18.995"/>
	<rect x="319.204" y="439.278" style="fill:#FFFFFF;" width="25.282" height="18.995"/>
	<rect x="344.492" y="401.351" style="fill:#FFFFFF;" width="25.282" height="18.995"/>
	<rect x="205.437" y="388.713" style="fill:#FFFFFF;" width="25.282" height="18.995"/>
	<rect x="230.713" y="338.149" style="fill:#FFFFFF;" width="25.282" height="18.995"/>
	<rect x="306.566" y="237.02" style="fill:#FFFFFF;" width="25.284" height="18.995"/>
	<rect x="331.854" y="274.946" style="fill:#FFFFFF;" width="25.282" height="18.995"/>
	<path style="fill:#FFFFFF;" d="M60.078,91.665H41.084c0-33.944,32.142-47.856,49.137-50.471l2.888,18.775l-1.445-9.387l1.475,9.382
		c-0.089,0.014-9.078,1.504-17.693,6.596C65.106,72.673,60.078,80.886,60.078,91.665z"/>
</g>
<g>
</g>
<g>
</g>
<g>
</g>
<g>
</g>
<g>
</g>
<g>
</g>
<g>
</g>
<g>
</g>
<g>
</g>
<g>
</g>
<g>
</g>
<g>
</g>
<g>
</g>
<g>
</g>
<g>
</g>
</svg>
