<?xml version="1.0" encoding="iso-8859-1"?>
<!-- Generator: Adobe Illustrator 19.0.0, SVG Export Plug-In . SVG Version: 6.00 Build 0)  -->
<svg version="1.1" id="Layer_1" xmlns="http://www.w3.org/2000/svg" xmlns:xlink="http://www.w3.org/1999/xlink" x="0px" y="0px"
	 viewBox="0 0 512 512" style="enable-background:new 0 0 512 512;" xml:space="preserve">
<path style="fill:#B57332;" d="M301.582,199.268c14.323,64.342,31.332,157.666,31.332,235.771c0,0,0,50.354-162.254,50.354
	S8.407,435.039,8.407,435.039c0-134.278,50.354-313.317,50.354-313.317L25.192,26.608h106.304v50.354h61.545V26.608H316.13
	l-33.57,95.115c0,0,3.357,12.197,8.505,32.562C294.085,166.593,297.778,181.811,301.582,199.268z"/>
<path style="fill:#A3682A;" d="M131.496,435.039c0-134.278,50.354-313.317,50.354-313.317l-33.57-95.115h-16.785H25.192
	l33.57,95.115c0,0-50.354,179.038-50.354,313.317c0,0,0,50.354,162.254,50.354c23.886,0,44.173-1.113,61.545-2.974
	C131.58,471.637,131.496,435.039,131.496,435.039z"/>
<rect x="131.498" y="26.608" style="fill:#FFD7A3;" width="61.545" height="50.354"/>
<path style="fill:#704324;" d="M483.977,88.151l16.785,39.165l-199.18,71.951c-3.805-17.457-7.497-32.675-10.519-44.984
	L483.977,88.151z"/>
<path d="M512,132.196l-23.367-54.526l-191.672,65.706c-2.639-10.276-4.617-17.685-5.601-21.327L328.011,18.2H13.309l36.647,103.833
	C43.801,144.637,0,309.927,0,435.039c0,1.767,0.68,17.687,24.255,32.32C52.522,484.903,101.78,493.8,170.66,493.8
	s118.138-8.897,146.405-26.441c23.574-14.633,24.255-30.554,24.255-32.32c0-76.42-15.922-166.175-29.945-230.394L512,132.196z
	 M489.525,122.438l-181.807,65.675c-2.28-10.115-4.515-19.516-6.665-28.366l178.271-61.112L489.525,122.438z M139.903,35.015h44.73
	v33.541h-44.73C139.903,68.556,139.903,35.015,139.903,35.015z M16.814,435.039c0-0.065,0-0.134,0-0.198
	C16.82,434.971,16.814,435.039,16.814,435.039z M324.507,435.039c0,0-0.006-0.068,0-0.198
	C324.507,434.907,324.507,434.972,324.507,435.039z M170.661,476.986c-145.413,0-153.543-40.201-153.847-42.217
	c0.059-117.7,39.686-272.192,48.373-304.64h111.068v-16.814H64.71L37.074,35.015h86.014V85.37h78.359V35.015h102.799l-30.492,86.396
	l0.699,2.542c0.034,0.121,3.398,12.363,8.445,32.336c3.297,13.431,6.847,28.151,10.478,44.807
	c14.184,63.723,31.091,155.955,31.13,233.674C324.202,436.785,316.072,476.986,170.661,476.986z"/>
<g>
	<path style="fill:#FFFFFF;" d="M44.766,424.185C39.17,284.276,83.977,159.259,84.43,158.012l15.802,5.745
		c-0.442,1.217-44.125,123.264-38.665,259.756L44.766,424.185z"/>
	<rect x="193.039" y="113.317" style="fill:#FFFFFF;" width="22.38" height="16.814"/>
	<rect x="232.204" y="113.317" style="fill:#FFFFFF;" width="22.38" height="16.814"/>
</g>
<g>
</g>
<g>
</g>
<g>
</g>
<g>
</g>
<g>
</g>
<g>
</g>
<g>
</g>
<g>
</g>
<g>
</g>
<g>
</g>
<g>
</g>
<g>
</g>
<g>
</g>
<g>
</g>
<g>
</g>
</svg>
